v 0.33500 0.00750 0.06250
v 0.33750 0.00500 0.06250
v 0.33750 0.00750 0.06000
v 0.33500 0.00750 0.06750
v 0.33750 0.00500 0.06750
v 0.33500 0.00750 0.07250
v 0.33750 0.00500 0.07250
v 0.33500 0.00750 0.07750
v 0.33750 0.00500 0.07750
v 0.33750 0.00750 0.08000
v 0.33500 0.01250 0.03250
v 0.33750 0.01000 0.03250
v 0.33750 0.01250 0.03000
v 0.33500 0.01250 0.03750
v 0.33750 0.01000 0.03750
v 0.33500 0.01250 0.04250
v 0.33750 0.01000 0.04250
v 0.33500 0.01250 0.04750
v 0.33750 0.01000 0.04750
v 0.33500 0.01250 0.05250
v 0.33750 0.01000 0.05250
v 0.33500 0.01250 0.05750
v 0.33750 0.01000 0.05750
v 0.33500 0.01250 0.06250
v 0.33500 0.01250 0.06750
v 0.33500 0.01250 0.07250
v 0.33500 0.01250 0.07750
v 0.33500 0.01250 0.08250
v 0.33750 0.01000 0.08250
v 0.33500 0.01250 0.08750
v 0.33750 0.01000 0.08750
v 0.33750 0.01250 0.09000
v 0.33500 0.01750 0.01750
v 0.33750 0.01500 0.01750
v 0.33750 0.01750 0.01500
v 0.33500 0.01750 0.02250
v 0.33750 0.01500 0.02250
v 0.33500 0.01750 0.02750
v 0.33750 0.01500 0.02750
v 0.33500 0.01750 0.03250
v 0.33500 0.01750 0.03750
v 0.33500 0.01750 0.04250
v 0.33500 0.01750 0.04750
v 0.33500 0.01750 0.05250
v 0.33500 0.01750 0.05750
v 0.33500 0.01750 0.06250
v 0.33500 0.01750 0.06750
v 0.33500 0.01750 0.07250
v 0.33500 0.01750 0.07750
v 0.33500 0.01750 0.08250
v 0.33500 0.01750 0.08750
v 0.33500 0.01750 0.09250
v 0.33750 0.01500 0.09250
v 0.33500 0.01750 0.09750
v 0.33750 0.01500 0.09750
v 0.33750 0.01750 0.10000
v 0.33500 0.02250 0.01250
v 0.33750 0.02000 0.01250
v 0.33750 0.02250 0.01000
v 0.33500 0.02250 0.01750
v 0.33500 0.02250 0.02250
v 0.33500 0.02250 0.02750
v 0.33500 0.02250 0.03250
v 0.33500 0.02250 0.03750
v 0.33500 0.02250 0.04250
v 0.33500 0.02250 0.04750
v 0.33500 0.02250 0.05250
v 0.33500 0.02250 0.05750
v 0.33500 0.02250 0.06250
v 0.33500 0.02250 0.06750
v 0.33500 0.02250 0.07250
v 0.33500 0.02250 0.07750
v 0.33500 0.02250 0.08250
v 0.33500 0.02250 0.08750
v 0.33500 0.02250 0.09250
v 0.33500 0.02250 0.09750
v 0.33750 0.02250 0.10000
v 0.33750 0.02500 0.01250
v 0.33500 0.02750 0.01750
v 0.33750 0.02750 0.01500
v 0.33500 0.02750 0.02250
v 0.33500 0.02750 0.02750
v 0.33500 0.02750 0.03250
v 0.33500 0.02750 0.03750
v 0.33500 0.02750 0.04250
v 0.33500 0.02750 0.04750
v 0.33500 0.02750 0.05250
v 0.33500 0.02750 0.05750
v 0.33500 0.02750 0.06250
v 0.33500 0.02750 0.06750
v 0.33500 0.02750 0.07250
v 0.33500 0.02750 0.07750
v 0.33500 0.02750 0.08250
v 0.33500 0.02750 0.08750
v 0.33500 0.02750 0.09250
v 0.33750 0.02500 0.09750
v 0.33750 0.02750 0.09500
v 0.33750 0.03000 0.01750
v 0.33750 0.03000 0.02250
v 0.33750 0.03000 0.02750
v 0.33500 0.03250 0.03250
v 0.33750 0.03250 0.03000
v 0.33500 0.03250 0.03750
v 0.33500 0.03250 0.04250
v 0.33500 0.03250 0.04750
v 0.33500 0.03250 0.05250
v 0.33500 0.03250 0.05750
v 0.33500 0.03250 0.06250
v 0.33500 0.03250 0.06750
v 0.33500 0.03250 0.07250
v 0.33500 0.03250 0.07750
v 0.33500 0.03250 0.08250
v 0.33500 0.03250 0.08750
v 0.33750 0.03000 0.09250
v 0.33750 0.03250 0.09000
v 0.33750 0.03500 0.03250
v 0.33750 0.03500 0.03750
v 0.33750 0.03500 0.04250
v 0.33750 0.03500 0.04750
v 0.33750 0.03500 0.05250
v 0.33500 0.03750 0.05750
v 0.33750 0.03750 0.05500
v 0.33500 0.03750 0.06250
v 0.33500 0.03750 0.06750
v 0.33500 0.03750 0.07250
v 0.33500 0.03750 0.07750
v 0.33750 0.03500 0.08250
v 0.33750 0.03750 0.08000
v 0.33750 0.03500 0.08750
v 0.33750 0.04000 0.05750
v 0.33750 0.04000 0.06250
v 0.33750 0.04000 0.06750
v 0.33750 0.04000 0.07250
v 0.33750 0.04000 0.07750
v 0.34000 0.00250 0.05750
v 0.34250 0.00000 0.05750
v 0.34250 0.00250 0.05500
v 0.34000 0.00250 0.06250
v 0.34250 0.00000 0.06250
v 0.34000 0.00250 0.06750
v 0.34250 0.00000 0.06750
v 0.34000 0.00250 0.07250
v 0.34250 0.00000 0.07250
v 0.34250 0.00250 0.07500
v 0.34000 0.00750 0.01750
v 0.34250 0.00500 0.01750
v 0.34250 0.00750 0.01500
v 0.34000 0.00750 0.02250
v 0.34250 0.00500 0.02250
v 0.34000 0.00750 0.02750
v 0.34250 0.00500 0.02750
v 0.34000 0.00750 0.03250
v 0.34250 0.00500 0.03250
v 0.34000 0.00750 0.03750
v 0.34250 0.00500 0.03750
v 0.34000 0.00750 0.04250
v 0.34250 0.00500 0.04250
v 0.34000 0.00750 0.04750
v 0.34250 0.00500 0.04750
v 0.34000 0.00750 0.05250
v 0.34250 0.00500 0.05250
v 0.34000 0.00750 0.05750
v 0.34250 0.00500 0.07750
v 0.34250 0.00750 0.08000
v 0.34000 0.01250 0.01750
v 0.34250 0.01250 0.01500
v 0.34000 0.01250 0.02250
v 0.34250 0.01000 0.02750
v 0.34250 0.01250 0.02500
v 0.34250 0.01250 0.03000
v 0.34000 0.01250 0.06250
v 0.34250 0.01000 0.06250
v 0.34250 0.01250 0.06000
v 0.34250 0.01250 0.06500
v 0.34000 0.01250 0.07250
v 0.34250 0.01000 0.07250
v 0.34250 0.01250 0.07000
v 0.34000 0.01250 0.07750
v 0.34250 0.01000 0.07750
v 0.34000 0.01250 0.08250
v 0.34000 0.01250 0.08750
v 0.34000 0.01750 0.00750
v 0.34250 0.01500 0.00750
v 0.34250 0.01500 0.00250
v 0.34000 0.01750 0.00250
v 0.34000 0.01750 0.01250
v 0.34250 0.01500 0.01250
v 0.34250 0.01500 0.02750
v 0.34250 0.01500 0.06250
v 0.34250 0.01500 0.07250
v 0.34250 0.01500 0.07750
v 0.34250 0.01500 0.08250
v 0.34250 0.01500 0.08750
v 0.34250 0.01500 0.09250
v 0.34000 0.01750 0.09750
v 0.34250 0.01750 0.09500
v 0.34000 0.02250 0.00750
v 0.34000 0.02250 0.00250
v 0.34250 0.02000 0.09750
v 0.34250 0.02250 0.10000
v 0.34000 0.02750 0.00750
v 0.34000 0.02750 0.00250
v 0.34000 0.02750 0.01250
v 0.34250 0.02500 0.09750
v 0.34250 0.02750 0.09500
v 0.34000 0.03250 0.00750
v 0.34000 0.03250 0.00250
v 0.34000 0.03250 0.01250
v 0.34000 0.03250 0.01750
v 0.34000 0.03250 0.02250
v 0.34000 0.03250 0.02750
v 0.34250 0.03000 0.09250
v 0.34250 0.03250 0.09000
v 0.34250 0.03500 0.00750
v 0.34250 0.03500 0.00250
v 0.34000 0.03750 0.01250
v 0.34250 0.03750 0.01000
v 0.34000 0.03750 0.01750
v 0.34000 0.03750 0.02250
v 0.34000 0.03750 0.02750
v 0.34000 0.03750 0.03250
v 0.34000 0.03750 0.03750
v 0.34000 0.03750 0.04250
v 0.34000 0.03750 0.04750
v 0.34000 0.03750 0.05250
v 0.34000 0.03750 0.08250
v 0.34250 0.03500 0.08750
v 0.34250 0.03750 0.08500
v 0.34250 0.04000 0.01250
v 0.34250 0.04000 0.01750
v 0.34250 0.04000 0.02250
v 0.34250 0.04000 0.02750
v 0.34250 0.04000 0.03250
v 0.34250 0.04000 0.03750
v 0.34250 0.04000 0.04250
v 0.34250 0.04000 0.04750
v 0.34000 0.04250 0.05250
v 0.34250 0.04250 0.05000
v 0.34000 0.04250 0.05750
v 0.34000 0.04250 0.06250
v 0.34000 0.04250 0.06750
v 0.34000 0.04250 0.07250
v 0.34250 0.04000 0.07750
v 0.34250 0.04250 0.07500
v 0.34250 0.04000 0.08250
v 0.34250 0.04500 0.05250
v 0.34250 0.04500 0.05750
v 0.34250 0.04500 0.06250
v 0.34250 0.04500 0.06750
v 0.34250 0.04500 0.07250
v 0.34500 -0.00250 0.05250
v 0.34750 -0.00500 0.05250
v 0.34750 -0.00250 0.05000
v 0.34500 -0.00250 0.05750
v 0.34750 -0.00500 0.05750
v 0.34500 -0.00250 0.06250
v 0.34750 -0.00500 0.06250
v 0.34500 -0.00250 0.06750
v 0.34750 -0.00500 0.06750
v 0.34750 -0.00250 0.07000
v 0.34500 0.00250 0.01250
v 0.34750 0.00000 0.01250
v 0.34750 0.00250 0.01000
v 0.34500 0.00250 0.01750
v 0.34750 0.00000 0.01750
v 0.34500 0.00250 0.02250
v 0.34750 0.00000 0.02250
v 0.34500 0.00250 0.02750
v 0.34750 0.00000 0.02750
v 0.34500 0.00250 0.03250
v 0.34750 0.00000 0.03250
v 0.34500 0.00250 0.03750
v 0.34750 0.00000 0.03750
v 0.34500 0.00250 0.04250
v 0.34750 0.00000 0.04250
v 0.34500 0.00250 0.04750
v 0.34750 0.00000 0.04750
v 0.34500 0.00250 0.05250
v 0.34750 0.00000 0.07250
v 0.34500 0.00250 0.07750
v 0.34750 0.00000 0.07750
v 0.34750 0.00250 0.08000
v 0.34500 0.00750 0.00750
v 0.34750 0.00500 0.00750
v 0.34750 0.00500 0.00250
v 0.34500 0.00750 0.00250
v 0.34500 0.00750 0.01250
v 0.34750 0.00750 0.08000
v 0.34500 0.01250 0.00750
v 0.34500 0.01250 0.00250
v 0.34500 0.01250 0.01250
v 0.34500 0.01250 0.02750
v 0.34500 0.01250 0.06250
v 0.34500 0.01250 0.07250
v 0.34500 0.01250 0.07750
v 0.34750 0.01250 0.08000
v 0.34500 0.01750 0.01750
v 0.34750 0.01500 0.01750
v 0.34750 0.01750 0.01500
v 0.34750 0.01750 0.02000
v 0.34500 0.01750 0.06250
v 0.34750 0.01500 0.06250
v 0.34750 0.01750 0.06000
v 0.34750 0.01750 0.06500
v 0.34750 0.01500 0.08250
v 0.34750 0.01500 0.08750
v 0.34750 0.01500 0.09250
v 0.34750 0.01750 0.09500
v 0.34750 0.02000 0.01750
v 0.34750 0.02000 0.06250
v 0.34500 0.02250 0.09750
v 0.34750 0.02250 0.09500
v 0.34750 0.02750 0.09500
v 0.34500 0.03250 0.00750
v 0.34750 0.03000 0.00750
v 0.34750 0.03250 0.00500
v 0.34750 0.03250 0.01000
v 0.34750 0.03000 0.09250
v 0.34750 0.03250 0.09000
v 0.34500 0.03750 0.00750
v 0.34750 0.03500 0.00750
v 0.34500 0.03750 0.00250
v 0.34750 0.03500 0.08750
v 0.34750 0.03750 0.08500
v 0.34750 0.04000 0.00750
v 0.34750 0.04000 0.00250
v 0.34500 0.04250 0.01250
v 0.34750 0.04250 0.01000
v 0.34500 0.04250 0.01750
v 0.34500 0.04250 0.02250
v 0.34500 0.04250 0.02750
v 0.34500 0.04250 0.03250
v 0.34500 0.04250 0.03750
v 0.34500 0.04250 0.04250
v 0.34500 0.04250 0.04750
v 0.34500 0.04250 0.07750
v 0.34750 0.04000 0.08250
v 0.34750 0.04250 0.08000
v 0.34750 0.04500 0.01250
v 0.34750 0.04500 0.01750
v 0.34750 0.04500 0.02250
v 0.34750 0.04500 0.02750
v 0.34750 0.04500 0.03250
v 0.34750 0.04500 0.03750
v 0.34750 0.04500 0.04250
v 0.34750 0.04500 0.04750
v 0.34500 0.04750 0.05250
v 0.34750 0.04750 0.05000
v 0.34500 0.04750 0.05750
v 0.34500 0.04750 0.06250
v 0.34500 0.04750 0.06750
v 0.34750 0.04500 0.07250
v 0.34750 0.04750 0.07000
v 0.34750 0.04500 0.07750
v 0.34750 0.05000 0.05250
v 0.34750 0.05000 0.05750
v 0.34750 0.05000 0.06250
v 0.34750 0.05000 0.06750
v 0.35000 -0.00250 0.01750
v 0.35250 -0.00500 0.01750
v 0.35250 -0.00250 0.01500
v 0.35000 -0.00250 0.02250
v 0.35250 -0.00500 0.02250
v 0.35000 -0.00250 0.02750
v 0.35250 -0.00500 0.02750
v 0.35000 -0.00250 0.03250
v 0.35250 -0.00500 0.03250
v 0.35000 -0.00250 0.03750
v 0.35250 -0.00500 0.03750
v 0.35000 -0.00250 0.04250
v 0.35250 -0.00500 0.04250
v 0.35000 -0.00250 0.04750
v 0.35250 -0.00500 0.04750
v 0.35250 -0.00500 0.05250
v 0.35250 -0.00500 0.05750
v 0.35250 -0.00500 0.06250
v 0.35250 -0.00500 0.06750
v 0.35000 -0.00250 0.07250
v 0.35250 -0.00500 0.07250
v 0.35250 -0.00250 0.07500
v 0.35000 0.00250 0.00750
v 0.35250 0.00000 0.00750
v 0.35250 0.00000 0.00250
v 0.35000 0.00250 0.00250
v 0.35250 0.00000 0.01250
v 0.35250 0.00000 0.07750
v 0.35250 0.00250 0.08000
v 0.35250 0.00750 0.08000
v 0.35000 0.01250 0.01250
v 0.35250 0.01000 0.01250
v 0.35250 0.01250 0.01000
v 0.35250 0.01250 0.01500
v 0.35000 0.01250 0.07750
v 0.35250 0.01000 0.07750
v 0.35250 0.01250 0.07500
v 0.35250 0.01500 0.01250
v 0.35000 0.01750 0.01750
v 0.35000 0.01750 0.06250
v 0.35000 0.01750 0.07750
v 0.35250 0.01750 0.07500
v 0.35000 0.01750 0.08250
v 0.35000 0.01750 0.08750
v 0.35000 0.01750 0.09250
v 0.35250 0.02000 0.07750
v 0.35250 0.02000 0.08250
v 0.35250 0.02000 0.08750
v 0.35250 0.02000 0.09250
v 0.35250 0.02250 0.09500
v 0.35000 0.02750 0.09250
v 0.35250 0.02500 0.09250
v 0.35250 0.02750 0.09000
v 0.35000 0.03250 0.00750
v 0.35250 0.03250 0.09000
v 0.35250 0.03500 0.08750
v 0.35250 0.03750 0.08500
v 0.35000 0.04250 0.00750
v 0.35000 0.04250 0.00250
v 0.35250 0.04000 0.08250
v 0.35250 0.04250 0.08000
v 0.35250 0.04500 0.00750
v 0.35250 0.04500 0.00250
v 0.35250 0.04500 0.01250
v 0.35000 0.04750 0.01750
v 0.35250 0.04750 0.01500
v 0.35000 0.04750 0.02250
v 0.35000 0.04750 0.02750
v 0.35000 0.04750 0.03250
v 0.35000 0.04750 0.03750
v 0.35000 0.04750 0.04250
v 0.35000 0.04750 0.04750
v 0.35000 0.04750 0.07250
v 0.35250 0.04500 0.07750
v 0.35250 0.04750 0.07500
v 0.35250 0.05000 0.01750
v 0.35250 0.05000 0.02250
v 0.35250 0.05000 0.02750
v 0.35250 0.05000 0.03250
v 0.35250 0.05000 0.03750
v 0.35250 0.05000 0.04250
v 0.35250 0.05000 0.04750
v 0.35250 0.05000 0.05250
v 0.35250 0.05000 0.05750
v 0.35250 0.05000 0.06250
v 0.35250 0.05000 0.06750
v 0.35250 0.05000 0.07250
v 0.35500 -0.00750 0.06250
v 0.35750 -0.01000 0.06250
v 0.35750 -0.00750 0.06000
v 0.35500 -0.00750 0.06750
v 0.35750 -0.01000 0.06750
v 0.35750 -0.00750 0.07000
v 0.35500 -0.00250 0.01250
v 0.35750 -0.00500 0.01250
v 0.35750 -0.00250 0.01000
v 0.35750 -0.00500 0.01750
v 0.35750 -0.00500 0.02250
v 0.35750 -0.00500 0.02750
v 0.35750 -0.00500 0.03250
v 0.35750 -0.00500 0.03750
v 0.35750 -0.00500 0.04250
v 0.35750 -0.00500 0.04750
v 0.35750 -0.00500 0.05250
v 0.35750 -0.00500 0.05750
v 0.35750 -0.00500 0.07250
v 0.35750 -0.00250 0.07500
v 0.35750 0.00000 0.00750
v 0.35750 0.00000 0.00250
v 0.35500 0.00250 0.07750
v 0.35750 0.00250 0.07500
v 0.35500 0.00750 0.07750
v 0.35750 0.00750 0.07500
v 0.35500 0.01250 0.01250
v 0.35750 0.01250 0.07500
v 0.35750 0.01750 0.00500
v 0.35750 0.01500 0.00250
v 0.35500 0.01750 0.00250
v 0.35750 0.01750 0.07500
v 0.35500 0.02250 0.00750
v 0.35750 0.02000 0.00750
v 0.35750 0.02250 0.00500
v 0.35750 0.02000 0.00250
v 0.35500 0.02250 0.01250
v 0.35750 0.02000 0.01250
v 0.35500 0.02250 0.01750
v 0.35750 0.02000 0.01750
v 0.35500 0.02250 0.02250
v 0.35750 0.02000 0.02250
v 0.35500 0.02250 0.02750
v 0.35750 0.02000 0.02750
v 0.35500 0.02250 0.03250
v 0.35750 0.02000 0.03250
v 0.35500 0.02250 0.03750
v 0.35750 0.02000 0.03750
v 0.35500 0.02250 0.04250
v 0.35750 0.02000 0.04250
v 0.35500 0.02250 0.04750
v 0.35750 0.02000 0.04750
v 0.35500 0.02250 0.05250
v 0.35750 0.02000 0.05250
v 0.35500 0.02250 0.05750
v 0.35750 0.02000 0.05750
v 0.35500 0.02250 0.06250
v 0.35750 0.02000 0.06250
v 0.35500 0.02250 0.06750
v 0.35750 0.02000 0.06750
v 0.35500 0.02250 0.07250
v 0.35750 0.02000 0.07250
v 0.35750 0.02000 0.07750
v 0.35750 0.02250 0.07500
v 0.35750 0.02000 0.08250
v 0.35750 0.02000 0.08750
v 0.35750 0.02000 0.09250
v 0.35750 0.02250 0.09500
v 0.35750 0.02500 0.00750
v 0.35750 0.02500 0.01250
v 0.35750 0.02500 0.01750
v 0.35750 0.02500 0.02250
v 0.35750 0.02500 0.02750
v 0.35750 0.02500 0.03250
v 0.35750 0.02500 0.03750
v 0.35750 0.02500 0.04250
v 0.35750 0.02500 0.04750
v 0.35750 0.02500 0.05250
v 0.35750 0.02500 0.05750
v 0.35750 0.02500 0.06250
v 0.35750 0.02500 0.06750
v 0.35750 0.02500 0.07250
v 0.35750 0.02500 0.09250
v 0.35750 0.02750 0.09000
v 0.35500 0.03250 0.08750
v 0.35750 0.03000 0.08750
v 0.35750 0.03250 0.08500
v 0.35500 0.03750 0.08250
v 0.35750 0.03500 0.08250
v 0.35750 0.03750 0.08000
v 0.35750 0.04250 0.08000
v 0.35750 0.04500 0.00750
v 0.35750 0.04500 0.00250
v 0.35500 0.04750 0.01250
v 0.35750 0.04750 0.01000
v 0.35750 0.04500 0.07750
v 0.35750 0.04750 0.07500
v 0.35750 0.05000 0.01250
v 0.35750 0.05000 0.01750
v 0.35750 0.05000 0.02250
v 0.35750 0.05000 0.02750
v 0.35750 0.05000 0.03250
v 0.35750 0.05000 0.03750
v 0.35750 0.05000 0.04250
v 0.35750 0.05000 0.04750
v 0.35750 0.05000 0.05250
v 0.35500 0.05250 0.05750
v 0.35750 0.05250 0.05500
v 0.35500 0.05250 0.06250
v 0.35500 0.05250 0.06750
v 0.35750 0.05000 0.07250
v 0.35750 0.05250 0.07000
v 0.35750 0.05500 0.05750
v 0.35750 0.05500 0.06250
v 0.35750 0.05500 0.06750
v 0.36000 -0.00750 0.05250
v 0.36250 -0.01000 0.05250
v 0.36250 -0.00750 0.05000
v 0.36000 -0.00750 0.05750
v 0.36250 -0.01000 0.05750
v 0.36000 -0.00750 0.06250
v 0.36250 -0.00750 0.06000
v 0.36250 -0.01000 0.06750
v 0.36250 -0.00750 0.06500
v 0.36250 -0.00750 0.07000
v 0.36000 -0.00250 0.00750
v 0.36250 -0.00500 0.00750
v 0.36250 -0.00250 0.00500
v 0.36250 -0.00500 0.01250
v 0.36250 -0.00500 0.01750
v 0.36250 -0.00500 0.02250
v 0.36250 -0.00500 0.02750
v 0.36250 -0.00500 0.03250
v 0.36250 -0.00500 0.03750
v 0.36250 -0.00500 0.04250
v 0.36250 -0.00500 0.04750
v 0.36250 -0.00500 0.06250
v 0.36250 -0.00500 0.07250
v 0.36250 -0.00250 0.07500
v 0.36250 0.00000 0.00250
v 0.36250 0.00250 0.07500
v 0.36250 0.00750 0.07500
v 0.36250 0.01250 0.07500
v 0.36000 0.01750 0.00250
v 0.36250 0.01750 0.07500
v 0.36000 0.02250 0.00750
v 0.36000 0.02250 0.01250
v 0.36000 0.02250 0.01750
v 0.36000 0.02250 0.02250
v 0.36000 0.02250 0.02750
v 0.36000 0.02250 0.03250
v 0.36000 0.02250 0.03750
v 0.36000 0.02250 0.04250
v 0.36000 0.02250 0.04750
v 0.36000 0.02250 0.05250
v 0.36000 0.02250 0.05750
v 0.36000 0.02250 0.06250
v 0.36000 0.02250 0.06750
v 0.36000 0.02250 0.07250
v 0.36000 0.02250 0.07750
v 0.36250 0.02250 0.07500
v 0.36000 0.02250 0.08250
v 0.36000 0.02250 0.08750
v 0.36000 0.02250 0.09250
v 0.36250 0.02500 0.07750
v 0.36250 0.02500 0.08250
v 0.36000 0.02750 0.08750
v 0.36250 0.02750 0.08500
v 0.36250 0.03250 0.08500
v 0.36250 0.03500 0.08250
v 0.36250 0.03750 0.08000
v 0.36000 0.04250 0.07750
v 0.36250 0.04000 0.07750
v 0.36250 0.04250 0.07500
v 0.36000 0.04750 0.00750
v 0.36250 0.04750 0.00500
v 0.36250 0.04500 0.00250
v 0.36000 0.04750 0.07250
v 0.36250 0.04500 0.07250
v 0.36250 0.04750 0.07000
v 0.36250 0.05000 0.00750
v 0.36250 0.05000 0.01250
v 0.36250 0.05000 0.01750
v 0.36250 0.05000 0.02250
v 0.36250 0.05000 0.02750
v 0.36250 0.05000 0.03250
v 0.36250 0.05000 0.03750
v 0.36250 0.05000 0.04250
v 0.36250 0.05000 0.04750
v 0.36250 0.05000 0.05250
v 0.36250 0.05250 0.05500
v 0.36250 0.05250 0.07000
v 0.36250 0.05500 0.05750
v 0.36250 0.05500 0.06250
v 0.36250 0.05500 0.06750
v 0.36500 -0.00750 0.05250
v 0.36500 -0.00750 0.05750
v 0.36750 -0.01000 0.06750
v 0.36750 -0.00750 0.06500
v 0.36750 -0.00750 0.07000
v 0.36750 -0.00500 0.00750
v 0.36750 -0.00250 0.00500
v 0.36750 -0.00500 0.01250
v 0.36750 -0.00500 0.01750
v 0.36750 -0.00500 0.02250
v 0.36750 -0.00500 0.02750
v 0.36750 -0.00500 0.03250
v 0.36750 -0.00500 0.03750
v 0.36750 -0.00500 0.04250
v 0.36750 -0.00500 0.04750
v 0.36750 -0.00500 0.05250
v 0.36750 -0.00500 0.05750
v 0.36750 -0.00500 0.06250
v 0.36750 -0.00500 0.07250
v 0.36750 -0.00250 0.07500
v 0.36750 0.00000 0.00250
v 0.36750 0.00250 0.07500
v 0.36750 0.00750 0.07500
v 0.36750 0.01250 0.07500
v 0.36750 0.01750 0.07500
v 0.36750 0.02250 0.07500
v 0.36750 0.02750 0.00500
v 0.36750 0.02500 0.00250
v 0.36500 0.02750 0.00250
v 0.36500 0.02750 0.05250
v 0.36750 0.02500 0.05250
v 0.36750 0.02750 0.05000
v 0.36500 0.02750 0.05750
v 0.36750 0.02500 0.05750
v 0.36750 0.02750 0.06000
v 0.36500 0.02750 0.06750
v 0.36750 0.02500 0.06750
v 0.36750 0.02750 0.06500
v 0.36500 0.02750 0.07250
v 0.36750 0.02500 0.07250
v 0.36500 0.02750 0.07750
v 0.36500 0.02750 0.08250
v 0.36750 0.03000 0.00250
v 0.36750 0.03000 0.05250
v 0.36750 0.03000 0.05750
v 0.36750 0.03000 0.06750
v 0.36750 0.03000 0.07250
v 0.36750 0.03000 0.07750
v 0.36500 0.03250 0.08250
v 0.36750 0.03250 0.08000
v 0.36750 0.03750 0.08000
v 0.36750 0.04000 0.07750
v 0.36750 0.04250 0.07500
v 0.36500 0.04750 0.00250
v 0.36750 0.04500 0.07250
v 0.36750 0.04750 0.07000
v 0.36750 0.05000 0.00750
v 0.36750 0.05000 0.00250
v 0.36750 0.05000 0.01250
v 0.36750 0.05000 0.01750
v 0.36750 0.05000 0.02250
v 0.36750 0.05000 0.02750
v 0.36750 0.05000 0.03250
v 0.36750 0.05000 0.03750
v 0.36750 0.05000 0.04250
v 0.36750 0.05000 0.04750
v 0.36500 0.05250 0.05250
v 0.36750 0.05250 0.05000
v 0.36750 0.05250 0.07000
v 0.36750 0.05500 0.05250
v 0.36750 0.05500 0.05750
v 0.36750 0.05500 0.06250
v 0.36750 0.05500 0.06750
v 0.37250 -0.01000 0.06750
v 0.37250 -0.00750 0.06500
v 0.37250 -0.00750 0.07000
v 0.37250 -0.00500 0.00750
v 0.37250 -0.00250 0.00500
v 0.37250 -0.00500 0.01250
v 0.37250 -0.00500 0.01750
v 0.37250 -0.00500 0.02250
v 0.37250 -0.00500 0.02750
v 0.37250 -0.00500 0.03250
v 0.37250 -0.00500 0.03750
v 0.37250 -0.00500 0.04250
v 0.37250 -0.00500 0.04750
v 0.37250 -0.00500 0.05250
v 0.37250 -0.00500 0.05750
v 0.37250 -0.00500 0.06250
v 0.37000 -0.00250 0.07250
v 0.37250 -0.00250 0.07000
v 0.37250 0.00000 0.00250
v 0.37250 0.00000 0.07250
v 0.37250 0.00250 0.07500
v 0.37250 0.00750 0.07500
v 0.37250 0.01250 0.07500
v 0.37250 0.01750 0.07500
v 0.37000 0.02250 0.07250
v 0.37250 0.02000 0.07250
v 0.37250 0.02250 0.07000
v 0.37000 0.02750 0.00250
v 0.37000 0.02750 0.05250
v 0.37000 0.02750 0.05750
v 0.37000 0.02750 0.06750
v 0.37250 0.02750 0.07000
v 0.37000 0.03250 0.00750
v 0.37250 0.03000 0.00750
v 0.37250 0.03000 0.00250
v 0.37000 0.03250 0.00250
v 0.37000 0.03250 0.01250
v 0.37250 0.03000 0.01250
v 0.37000 0.03250 0.01750
v 0.37250 0.03000 0.01750
v 0.37000 0.03250 0.02250
v 0.37250 0.03000 0.02250
v 0.37250 0.03250 0.02500
v 0.37000 0.03250 0.05250
v 0.37250 0.03000 0.05250
v 0.37250 0.03250 0.05000
v 0.37000 0.03250 0.05750
v 0.37250 0.03000 0.05750
v 0.37250 0.03250 0.06000
v 0.37250 0.03000 0.07250
v 0.37250 0.03000 0.07750
v 0.37250 0.03250 0.08000
v 0.37250 0.03500 0.00750
v 0.37250 0.03500 0.00250
v 0.37250 0.03500 0.01250
v 0.37250 0.03500 0.01750
v 0.37250 0.03500 0.02250
v 0.37250 0.03500 0.05250
v 0.37250 0.03500 0.05750
v 0.37000 0.03750 0.07750
v 0.37250 0.03500 0.07750
v 0.37250 0.03750 0.07500
v 0.37250 0.04250 0.07500
v 0.37250 0.04750 0.00500
v 0.37250 0.04500 0.00250
v 0.37000 0.04750 0.00250
v 0.37250 0.04500 0.07250
v 0.37250 0.04750 0.07000
v 0.37250 0.05000 0.00750
v 0.37250 0.05000 0.01250
v 0.37250 0.05000 0.01750
v 0.37250 0.05000 0.02250
v 0.37250 0.05000 0.02750
v 0.37250 0.05000 0.03250
v 0.37250 0.05000 0.03750
v 0.37250 0.05000 0.04250
v 0.37250 0.05000 0.04750
v 0.37000 0.05250 0.05250
v 0.37250 0.05000 0.05250
v 0.37000 0.05250 0.05750
v 0.37250 0.05000 0.05750
v 0.37250 0.05250 0.06000
v 0.37000 0.05250 0.06750
v 0.37250 0.05000 0.06750
v 0.37250 0.05250 0.06500
v 0.37250 0.05500 0.06250
v 0.37500 -0.00750 0.06750
v 0.37500 -0.00250 0.00750
v 0.37500 -0.00250 0.01250
v 0.37500 -0.00250 0.01750
v 0.37500 -0.00250 0.02250
v 0.37750 -0.00500 0.02750
v 0.37750 -0.00250 0.02500
v 0.37750 -0.00500 0.03250
v 0.37750 -0.00500 0.03750
v 0.37500 -0.00250 0.04250
v 0.37750 -0.00250 0.04000
v 0.37500 -0.00250 0.04750
v 0.37750 -0.00500 0.05250
v 0.37750 -0.00250 0.05000
v 0.37500 -0.00250 0.05750
v 0.37750 -0.00250 0.05500
v 0.37500 -0.00250 0.06250
v 0.37750 -0.00500 0.06750
v 0.37750 -0.00250 0.06500
v 0.37750 -0.00250 0.07000
v 0.37750 0.00000 0.00750
v 0.37750 0.00000 0.00250
v 0.37750 0.00000 0.01250
v 0.37750 0.00000 0.01750
v 0.37750 0.00000 0.02250
v 0.37750 0.00000 0.04250
v 0.37750 0.00000 0.04750
v 0.37750 0.00000 0.05750
v 0.37750 0.00000 0.06250
v 0.37500 0.00250 0.07250
v 0.37750 0.00250 0.07000
v 0.37500 0.00750 0.07250
v 0.37750 0.00750 0.07000
v 0.37500 0.01250 0.07250
v 0.37750 0.01250 0.07000
v 0.37500 0.01750 0.07250
v 0.37750 0.01750 0.07000
v 0.37750 0.02250 0.07000
v 0.37750 0.02750 0.07000
v 0.37500 0.03250 0.00750
v 0.37500 0.03250 0.00250
v 0.37500 0.03250 0.01250
v 0.37500 0.03250 0.01750
v 0.37500 0.03250 0.02250
v 0.37500 0.03250 0.05250
v 0.37500 0.03250 0.05750
v 0.37500 0.03250 0.07250
v 0.37750 0.03250 0.07000
v 0.37500 0.03250 0.07750
v 0.37750 0.03500 0.07250
v 0.37750 0.03750 0.07500
v 0.37500 0.04250 0.07250
v 0.37750 0.04000 0.07250
v 0.37750 0.04250 0.07000
v 0.37500 0.04750 0.00750
v 0.37750 0.04500 0.00750
v 0.37750 0.04500 0.00250
v 0.37500 0.04750 0.01250
v 0.37750 0.04500 0.01250
v 0.37500 0.04750 0.01750
v 0.37750 0.04500 0.01750
v 0.37500 0.04750 0.02250
v 0.37750 0.04500 0.02250
v 0.37750 0.04750 0.02500
v 0.37750 0.04750 0.07000
v 0.37750 0.05000 0.02750
v 0.37750 0.05000 0.03250
v 0.37750 0.05000 0.03750
v 0.37750 0.05000 0.04250
v 0.37750 0.05000 0.04750
v 0.37750 0.05000 0.05250
v 0.37750 0.05000 0.05750
v 0.37500 0.05250 0.06250
v 0.37750 0.05000 0.06250
v 0.37750 0.05000 0.06750
v 0.38000 -0.00250 0.02750
v 0.38000 -0.00250 0.03250
v 0.38000 -0.00250 0.03750
v 0.38000 -0.00250 0.05250
v 0.38000 -0.00250 0.06250
v 0.38250 -0.00500 0.06250
v 0.38250 -0.00250 0.06000
v 0.38000 -0.00250 0.06750
v 0.38250 -0.00250 0.06500
v 0.38250 0.00000 0.00750
v 0.38250 0.00250 0.00500
v 0.38000 0.00250 0.00250
v 0.38250 0.00000 0.01250
v 0.38250 0.00000 0.01750
v 0.38250 0.00000 0.02250
v 0.38250 0.00000 0.02750
v 0.38250 0.00000 0.03250
v 0.38250 0.00000 0.03750
v 0.38250 0.00000 0.04250
v 0.38250 0.00000 0.04750
v 0.38000 0.00250 0.05250
v 0.38250 0.00250 0.05000
v 0.38250 0.00000 0.05750
v 0.38250 0.00250 0.05500
v 0.38250 0.00000 0.06750
v 0.38250 0.00250 0.07000
v 0.38250 0.00500 0.00250
v 0.38250 0.00500 0.05250
v 0.38250 0.00750 0.07000
v 0.38250 0.01250 0.07000
v 0.38250 0.01750 0.07000
v 0.38250 0.02250 0.07000
v 0.38250 0.02750 0.07000
v 0.38250 0.03250 0.07000
v 0.38000 0.03750 0.02250
v 0.38250 0.03500 0.02250
v 0.38250 0.03750 0.02000
v 0.38000 0.03750 0.02750
v 0.38250 0.03500 0.02750
v 0.38000 0.03750 0.03250
v 0.38250 0.03500 0.03250
v 0.38000 0.03750 0.03750
v 0.38250 0.03500 0.03750
v 0.38000 0.03750 0.04250
v 0.38250 0.03500 0.04250
v 0.38000 0.03750 0.04750
v 0.38250 0.03500 0.04750
v 0.38000 0.03750 0.05250
v 0.38250 0.03500 0.05250
v 0.38000 0.03750 0.05750
v 0.38250 0.03500 0.05750
v 0.38000 0.03750 0.06250
v 0.38250 0.03500 0.06250
v 0.38250 0.03750 0.06500
v 0.38000 0.03750 0.07250
v 0.38250 0.03750 0.07000
v 0.38250 0.04000 0.02250
v 0.38250 0.04000 0.02750
v 0.38250 0.04000 0.03250
v 0.38250 0.04000 0.03750
v 0.38250 0.04000 0.04250
v 0.38250 0.04000 0.04750
v 0.38250 0.04000 0.05250
v 0.38250 0.04000 0.05750
v 0.38250 0.04000 0.06250
v 0.38250 0.04250 0.07000
v 0.38250 0.04500 0.00750
v 0.38250 0.04500 0.00250
v 0.38250 0.04500 0.01250
v 0.38250 0.04500 0.01750
v 0.38250 0.04500 0.02250
v 0.38000 0.04750 0.02750
v 0.38250 0.04500 0.02750
v 0.38000 0.04750 0.03250
v 0.38250 0.04500 0.03250
v 0.38000 0.04750 0.03750
v 0.38250 0.04500 0.03750
v 0.38000 0.04750 0.04250
v 0.38250 0.04500 0.04250
v 0.38000 0.04750 0.04750
v 0.38250 0.04500 0.04750
v 0.38000 0.04750 0.05250
v 0.38250 0.04500 0.05250
v 0.38250 0.04750 0.05500
v 0.38000 0.04750 0.06750
v 0.38250 0.04500 0.06750
v 0.38250 0.04750 0.06500
v 0.38250 0.05000 0.05750
v 0.38250 0.05000 0.06250
v 0.38500 -0.00250 0.06250
v 0.38500 0.00250 0.00750
v 0.38500 0.00250 0.01250
v 0.38500 0.00250 0.01750
v 0.38500 0.00250 0.02250
v 0.38500 0.00250 0.02750
v 0.38500 0.00250 0.03250
v 0.38500 0.00250 0.03750
v 0.38500 0.00250 0.04250
v 0.38500 0.00250 0.04750
v 0.38500 0.00250 0.05250
v 0.38750 0.00000 0.05250
v 0.38750 0.00250 0.05000
v 0.38750 0.00000 0.05750
v 0.38750 0.00000 0.06250
v 0.38500 0.00250 0.06750
v 0.38750 0.00250 0.06500
v 0.38750 0.00500 0.00750
v 0.38750 0.00500 0.00250
v 0.38750 0.00500 0.01250
v 0.38750 0.00500 0.01750
v 0.38750 0.00500 0.02250
v 0.38750 0.00500 0.02750
v 0.38750 0.00500 0.03250
v 0.38750 0.00500 0.03750
v 0.38750 0.00500 0.04250
v 0.38750 0.00500 0.04750
v 0.38750 0.00500 0.06750
v 0.38750 0.00750 0.07000
v 0.38750 0.01250 0.07000
v 0.38750 0.01750 0.07000
v 0.38750 0.02250 0.07000
v 0.38750 0.02750 0.07000
v 0.38750 0.03250 0.07000
v 0.38500 0.03750 0.02250
v 0.38500 0.03750 0.02750
v 0.38500 0.03750 0.03250
v 0.38500 0.03750 0.03750
v 0.38500 0.03750 0.04250
v 0.38500 0.03750 0.04750
v 0.38500 0.03750 0.05250
v 0.38500 0.03750 0.05750
v 0.38500 0.03750 0.06250
v 0.38750 0.03750 0.07000
v 0.38500 0.04250 0.00750
v 0.38750 0.04000 0.00750
v 0.38750 0.04000 0.00250
v 0.38500 0.04250 0.00250
v 0.38500 0.04250 0.01250
v 0.38750 0.04000 0.01250
v 0.38500 0.04250 0.01750
v 0.38750 0.04000 0.01750
v 0.38500 0.04250 0.02250
v 0.38750 0.04000 0.02250
v 0.38500 0.04250 0.02750
v 0.38750 0.04000 0.02750
v 0.38500 0.04250 0.03250
v 0.38750 0.04000 0.03250
v 0.38500 0.04250 0.03750
v 0.38750 0.04000 0.03750
v 0.38500 0.04250 0.04250
v 0.38750 0.04000 0.04250
v 0.38500 0.04250 0.04750
v 0.38750 0.04000 0.04750
v 0.38500 0.04250 0.05250
v 0.38750 0.04000 0.05250
v 0.38750 0.04250 0.05500
v 0.38500 0.04250 0.06750
v 0.38750 0.04000 0.06750
v 0.38750 0.04250 0.06500
v 0.38500 0.04750 0.05750
v 0.38750 0.04500 0.05750
v 0.38500 0.04750 0.06250
v 0.38750 0.04500 0.06250
v 0.39000 0.00250 0.05250
v 0.39000 0.00250 0.05750
v 0.39000 0.00250 0.06250
v 0.39000 0.00750 0.00750
v 0.39000 0.00750 0.00250
v 0.39000 0.00750 0.01250
v 0.39000 0.00750 0.01750
v 0.39000 0.00750 0.02250
v 0.39000 0.00750 0.02750
v 0.39000 0.00750 0.03250
v 0.39000 0.00750 0.03750
v 0.39000 0.00750 0.04250
v 0.39250 0.00500 0.04750
v 0.39250 0.00750 0.04500
v 0.39250 0.00500 0.05250
v 0.39250 0.00500 0.05750
v 0.39250 0.00500 0.06250
v 0.39000 0.00750 0.06750
v 0.39250 0.00750 0.06500
v 0.39250 0.01000 0.00750
v 0.39250 0.01000 0.00250
v 0.39250 0.01000 0.01250
v 0.39250 0.01000 0.01750
v 0.39250 0.01000 0.02250
v 0.39250 0.01000 0.02750
v 0.39250 0.01000 0.03250
v 0.39250 0.01000 0.03750
v 0.39250 0.01000 0.04250
v 0.39000 0.01250 0.06750
v 0.39250 0.01250 0.06500
v 0.39250 0.01500 0.06750
v 0.39250 0.01750 0.07000
v 0.39000 0.02250 0.06750
v 0.39250 0.02000 0.06750
v 0.39250 0.02250 0.06500
v 0.39250 0.02500 0.06750
v 0.39250 0.02750 0.07000
v 0.39000 0.03250 0.06750
v 0.39250 0.03000 0.06750
v 0.39250 0.03250 0.06500
v 0.39000 0.03750 0.00750
v 0.39250 0.03500 0.00750
v 0.39250 0.03500 0.00250
v 0.39000 0.03750 0.00250
v 0.39000 0.03750 0.01250
v 0.39250 0.03500 0.01250
v 0.39000 0.03750 0.01750
v 0.39250 0.03500 0.01750
v 0.39000 0.03750 0.02250
v 0.39250 0.03500 0.02250
v 0.39000 0.03750 0.02750
v 0.39250 0.03500 0.02750
v 0.39000 0.03750 0.03250
v 0.39250 0.03500 0.03250
v 0.39250 0.03750 0.03500
v 0.39000 0.03750 0.06750
v 0.39250 0.03750 0.06500
v 0.39250 0.04000 0.03750
v 0.39250 0.04000 0.04250
v 0.39250 0.04000 0.04750
v 0.39250 0.04000 0.05250
v 0.39000 0.04250 0.05750
v 0.39250 0.04000 0.05750
v 0.39000 0.04250 0.06250
v 0.39250 0.04000 0.06250
v 0.39500 0.00750 0.04750
v 0.39500 0.00750 0.05250
v 0.39500 0.00750 0.05750
v 0.39500 0.00750 0.06250
v 0.39500 0.01250 0.00750
v 0.39500 0.01250 0.00250
v 0.39500 0.01250 0.01250
v 0.39500 0.01250 0.01750
v 0.39500 0.01250 0.02250
v 0.39500 0.01250 0.02750
v 0.39500 0.01250 0.03250
v 0.39500 0.01250 0.03750
v 0.39500 0.01250 0.04250
v 0.39500 0.01250 0.04750
v 0.39500 0.01250 0.05250
v 0.39500 0.01250 0.05750
v 0.39500 0.01250 0.06250
v 0.39750 0.01500 0.00750
v 0.39750 0.01500 0.00250
v 0.39750 0.01500 0.01250
v 0.39750 0.01500 0.01750
v 0.39750 0.01500 0.02250
v 0.39750 0.01500 0.02750
v 0.39750 0.01500 0.03250
v 0.39750 0.01500 0.03750
v 0.39750 0.01500 0.04250
v 0.39750 0.01500 0.04750
v 0.39750 0.01500 0.05250
v 0.39750 0.01500 0.05750
v 0.39500 0.01750 0.06250
v 0.39750 0.01750 0.06000
v 0.39500 0.01750 0.06750
v 0.39750 0.02000 0.06250
v 0.39750 0.02250 0.06500
v 0.39500 0.02750 0.05750
v 0.39750 0.02500 0.05750
v 0.39750 0.02750 0.05500
v 0.39500 0.02750 0.06250
v 0.39750 0.02500 0.06250
v 0.39500 0.02750 0.06750
v 0.39500 0.03250 0.00750
v 0.39750 0.03000 0.00750
v 0.39750 0.03000 0.00250
v 0.39500 0.03250 0.00250
v 0.39750 0.03250 0.01000
v 0.39500 0.03250 0.01750
v 0.39750 0.03000 0.01750
v 0.39750 0.03250 0.01500
v 0.39500 0.03250 0.02250
v 0.39750 0.03000 0.02250
v 0.39750 0.03250 0.02500
v 0.39500 0.03250 0.05250
v 0.39750 0.03000 0.05250
v 0.39750 0.03250 0.05000
v 0.39500 0.03250 0.05750
v 0.39500 0.03250 0.06250
v 0.39750 0.03500 0.01250
v 0.39750 0.03500 0.02750
v 0.39750 0.03500 0.03250
v 0.39500 0.03750 0.03750
v 0.39750 0.03500 0.03750
v 0.39500 0.03750 0.04250
v 0.39750 0.03500 0.04250
v 0.39500 0.03750 0.04750
v 0.39750 0.03500 0.04750
v 0.39500 0.03750 0.05250
v 0.39500 0.03750 0.05750
v 0.39500 0.03750 0.06250
v 0.40000 0.01750 0.00750
v 0.40000 0.01750 0.00250
v 0.40000 0.01750 0.01250
v 0.40000 0.01750 0.01750
v 0.40000 0.01750 0.02250
v 0.40000 0.01750 0.02750
v 0.40000 0.01750 0.03250
v 0.40000 0.01750 0.03750
v 0.40000 0.01750 0.04250
v 0.40000 0.01750 0.04750
v 0.40000 0.01750 0.05250
v 0.40000 0.01750 0.05750
v 0.40000 0.02250 0.00750
v 0.40250 0.02250 0.00500
v 0.40250 0.02000 0.00250
v 0.40000 0.02250 0.01250
v 0.40000 0.02250 0.01750
v 0.40000 0.02250 0.02250
v 0.40000 0.02250 0.02750
v 0.40000 0.02250 0.03250
v 0.40000 0.02250 0.03750
v 0.40000 0.02250 0.04250
v 0.40000 0.02250 0.04750
v 0.40000 0.02250 0.05250
v 0.40000 0.02250 0.05750
v 0.40000 0.02250 0.06250
v 0.40250 0.02500 0.00750
v 0.40000 0.02750 0.01250
v 0.40250 0.02750 0.01000
v 0.40000 0.02750 0.01750
v 0.40000 0.02750 0.02250
v 0.40000 0.02750 0.02750
v 0.40000 0.02750 0.03250
v 0.40000 0.02750 0.03750
v 0.40000 0.02750 0.04250
v 0.40000 0.02750 0.04750
v 0.40000 0.02750 0.05250
v 0.40250 0.03000 0.00750
v 0.40250 0.03000 0.00250
v 0.40000 0.03250 0.01250
v 0.40000 0.03250 0.02750
v 0.40000 0.03250 0.03250
v 0.40000 0.03250 0.03750
v 0.40000 0.03250 0.04250
v 0.40000 0.03250 0.04750
v 0.40500 0.02250 0.00250
v 0.40500 0.02750 0.00750
v 0.40500 0.02750 0.00250
f 3 2 1
f 2 5 4
f 1 2 4
f 5 7 6
f 4 5 6
f 7 9 8
f 6 7 8
f 9 10 8
f 13 12 11
f 12 15 14
f 11 12 14
f 15 17 16
f 14 15 16
f 17 19 18
f 16 17 18
f 19 21 20
f 18 19 20
f 21 23 22
f 20 21 22
f 23 3 1
f 23 1 22
f 22 1 24
f 1 4 24
f 4 25 24
f 4 6 25
f 6 26 25
f 6 8 26
f 8 27 26
f 10 29 28
f 10 28 8
f 8 28 27
f 29 31 30
f 28 29 30
f 31 32 30
f 35 34 33
f 34 37 36
f 33 34 36
f 37 39 38
f 36 37 38
f 39 13 11
f 39 11 38
f 38 11 40
f 11 14 40
f 14 41 40
f 14 16 41
f 16 42 41
f 16 18 42
f 18 43 42
f 18 20 43
f 20 44 43
f 20 22 44
f 22 45 44
f 22 24 45
f 24 46 45
f 24 25 46
f 25 47 46
f 25 26 47
f 26 48 47
f 26 27 48
f 27 49 48
f 27 28 49
f 28 50 49
f 28 30 50
f 30 51 50
f 32 53 52
f 32 52 30
f 30 52 51
f 53 55 54
f 52 53 54
f 55 56 54
f 59 58 57
f 58 35 33
f 58 33 57
f 57 33 60
f 33 36 60
f 36 61 60
f 36 38 61
f 38 62 61
f 38 40 62
f 40 63 62
f 40 41 63
f 41 64 63
f 41 42 64
f 42 65 64
f 42 43 65
f 43 66 65
f 43 44 66
f 44 67 66
f 44 45 67
f 45 68 67
f 45 46 68
f 46 69 68
f 46 47 69
f 47 70 69
f 47 48 70
f 48 71 70
f 48 49 71
f 49 72 71
f 49 50 72
f 50 73 72
f 50 51 73
f 51 74 73
f 51 52 74
f 52 75 74
f 52 54 75
f 54 76 75
f 56 77 76
f 54 56 76
f 59 57 78
f 80 78 57
f 80 57 79
f 79 57 60
f 60 61 79
f 61 81 79
f 61 62 81
f 62 82 81
f 62 63 82
f 63 83 82
f 63 64 83
f 64 84 83
f 64 65 84
f 65 85 84
f 65 66 85
f 66 86 85
f 66 67 86
f 67 87 86
f 67 68 87
f 68 88 87
f 68 69 88
f 69 89 88
f 69 70 89
f 70 90 89
f 70 71 90
f 71 91 90
f 71 72 91
f 72 92 91
f 72 73 92
f 73 93 92
f 73 74 93
f 74 94 93
f 74 75 94
f 75 95 94
f 96 97 95
f 96 95 76
f 76 95 75
f 76 77 96
f 80 79 98
f 79 81 99
f 98 79 99
f 81 82 100
f 99 81 100
f 102 100 82
f 102 82 101
f 101 82 83
f 83 84 101
f 84 103 101
f 84 85 103
f 85 104 103
f 85 86 104
f 86 105 104
f 86 87 105
f 87 106 105
f 87 88 106
f 88 107 106
f 88 89 107
f 89 108 107
f 89 90 108
f 90 109 108
f 90 91 109
f 91 110 109
f 91 92 110
f 92 111 110
f 92 93 111
f 93 112 111
f 93 94 112
f 94 113 112
f 114 115 113
f 114 113 95
f 95 113 94
f 95 97 114
f 102 101 116
f 101 103 117
f 116 101 117
f 103 104 118
f 117 103 118
f 104 105 119
f 118 104 119
f 105 106 120
f 119 105 120
f 122 120 106
f 122 106 121
f 121 106 107
f 107 108 121
f 108 123 121
f 108 109 123
f 109 124 123
f 109 110 124
f 110 125 124
f 110 111 125
f 111 126 125
f 127 128 126
f 127 126 112
f 112 126 111
f 112 113 129
f 127 112 129
f 113 115 129
f 122 121 130
f 121 123 131
f 130 121 131
f 123 124 132
f 131 123 132
f 124 125 133
f 132 124 133
f 125 126 134
f 133 125 134
f 126 128 134
f 137 136 135
f 136 139 138
f 135 136 138
f 139 141 140
f 138 139 140
f 141 143 142
f 140 141 142
f 143 144 142
f 147 146 145
f 146 149 148
f 145 146 148
f 149 151 150
f 148 149 150
f 151 153 152
f 150 151 152
f 153 155 154
f 152 153 154
f 155 157 156
f 154 155 156
f 157 159 158
f 156 157 158
f 159 161 160
f 158 159 160
f 161 137 135
f 161 135 160
f 160 135 162
f 3 138 2
f 3 162 138
f 162 135 138
f 140 2 138
f 5 2 140
f 142 5 140
f 7 5 142
f 144 7 142
f 144 163 7
f 163 9 7
f 9 163 164
f 10 9 164
f 166 147 145
f 165 166 145
f 145 148 165
f 148 167 165
f 168 169 167
f 168 167 150
f 150 167 148
f 168 13 170
f 168 152 13
f 168 150 152
f 12 13 152
f 154 12 152
f 15 12 154
f 156 15 154
f 17 15 156
f 158 17 156
f 19 17 158
f 160 19 158
f 21 19 160
f 162 21 160
f 23 21 162
f 162 3 23
f 172 173 171
f 172 171 174
f 177 175 176
f 176 178 179
f 175 178 176
f 179 178 180
f 179 180 10
f 179 10 164
f 10 180 29
f 31 29 180
f 181 31 180
f 31 181 32
f 184 183 182
f 185 184 182
f 183 187 186
f 182 183 186
f 165 34 35
f 166 165 35
f 166 35 186
f 166 186 187
f 167 34 165
f 37 34 167
f 169 37 167
f 169 188 37
f 188 39 37
f 188 13 39
f 170 13 188
f 173 189 171
f 171 189 174
f 177 190 175
f 175 191 178
f 190 191 175
f 178 192 180
f 191 192 178
f 180 193 181
f 192 193 180
f 181 53 32
f 181 193 53
f 193 194 53
f 196 195 55
f 196 55 194
f 194 55 53
f 55 195 56
f 185 182 198
f 182 197 198
f 59 186 58
f 59 197 186
f 197 182 186
f 186 35 58
f 196 199 195
f 195 199 200
f 195 200 56
f 56 200 77
f 198 197 202
f 197 201 202
f 78 197 59
f 78 203 197
f 203 201 197
f 78 80 203
f 97 204 205
f 96 204 97
f 204 96 77
f 200 204 77
f 202 201 207
f 201 206 207
f 201 203 206
f 203 208 206
f 98 203 80
f 98 209 203
f 209 208 203
f 99 209 98
f 210 209 99
f 100 210 99
f 211 210 100
f 100 102 211
f 115 212 213
f 114 212 115
f 212 114 97
f 205 212 97
f 207 206 214
f 215 207 214
f 217 214 206
f 217 206 216
f 216 206 208
f 208 209 216
f 209 218 216
f 209 210 218
f 210 219 218
f 210 211 219
f 211 220 219
f 116 211 102
f 116 221 211
f 221 220 211
f 117 221 116
f 222 221 117
f 118 222 117
f 223 222 118
f 119 223 118
f 224 223 119
f 120 224 119
f 225 224 120
f 120 122 225
f 127 226 128
f 226 227 228
f 226 127 227
f 127 129 227
f 227 129 115
f 213 227 115
f 217 216 229
f 216 218 230
f 229 216 230
f 218 219 231
f 230 218 231
f 219 220 232
f 231 219 232
f 220 221 233
f 232 220 233
f 221 222 234
f 233 221 234
f 222 223 235
f 234 222 235
f 223 224 236
f 235 223 236
f 238 236 224
f 238 224 237
f 237 224 225
f 130 225 122
f 130 239 225
f 239 237 225
f 131 239 130
f 240 239 131
f 132 240 131
f 241 240 132
f 133 241 132
f 242 241 133
f 242 243 244
f 242 133 243
f 133 134 243
f 128 226 245
f 128 245 134
f 134 245 243
f 226 228 245
f 238 237 246
f 237 239 247
f 246 237 247
f 239 240 248
f 247 239 248
f 240 241 249
f 248 240 249
f 241 242 250
f 249 241 250
f 242 244 250
f 253 252 251
f 252 255 254
f 251 252 254
f 255 257 256
f 254 255 256
f 257 259 258
f 256 257 258
f 259 260 258
f 263 262 261
f 262 265 264
f 261 262 264
f 265 267 266
f 264 265 266
f 267 269 268
f 266 267 268
f 269 271 270
f 268 269 270
f 271 273 272
f 270 271 272
f 273 275 274
f 272 273 274
f 275 277 276
f 274 275 276
f 277 253 251
f 277 251 276
f 276 251 278
f 137 254 136
f 137 278 254
f 278 251 254
f 256 136 254
f 139 136 256
f 258 139 256
f 141 139 258
f 260 141 258
f 260 279 141
f 279 143 141
f 280 144 143
f 280 143 281
f 281 143 279
f 281 282 280
f 285 284 283
f 286 285 283
f 284 263 261
f 284 261 283
f 283 261 287
f 147 264 146
f 147 287 264
f 287 261 264
f 266 146 264
f 149 146 266
f 268 149 266
f 151 149 268
f 270 151 268
f 153 151 270
f 272 153 270
f 155 153 272
f 274 155 272
f 157 155 274
f 276 157 274
f 159 157 276
f 278 159 276
f 161 159 278
f 278 137 161
f 280 163 144
f 163 280 282
f 163 282 164
f 164 282 288
f 286 283 290
f 283 289 290
f 283 287 289
f 287 291 289
f 287 166 291
f 147 166 287
f 168 292 169
f 168 170 292
f 172 293 173
f 172 174 293
f 176 294 177
f 179 294 176
f 295 294 179
f 295 179 164
f 295 164 296
f 296 164 288
f 289 184 290
f 183 184 289
f 291 183 289
f 187 183 291
f 291 166 187
f 298 299 297
f 298 297 300
f 292 188 169
f 292 170 188
f 302 303 301
f 293 189 173
f 293 174 189
f 302 301 304
f 294 190 177
f 295 190 294
f 191 190 295
f 296 191 295
f 296 305 191
f 305 192 191
f 305 306 192
f 192 306 193
f 306 307 193
f 193 307 194
f 194 307 308
f 196 194 308
f 299 309 297
f 297 309 300
f 303 310 301
f 301 310 304
f 199 312 311
f 199 196 312
f 196 308 312
f 199 311 200
f 311 205 204
f 311 312 205
f 312 313 205
f 311 204 200
f 316 314 315
f 315 314 317
f 213 318 319
f 212 318 213
f 318 212 205
f 313 318 205
f 214 322 215
f 214 320 322
f 321 314 316
f 321 317 314
f 320 214 217
f 228 323 324
f 227 323 228
f 323 227 213
f 319 323 213
f 322 320 325
f 326 322 325
f 328 229 327
f 325 229 328
f 325 217 229
f 325 320 217
f 230 327 229
f 329 327 230
f 231 329 230
f 330 329 231
f 232 330 231
f 331 330 232
f 233 331 232
f 332 331 233
f 234 332 233
f 333 332 234
f 235 333 234
f 334 333 235
f 236 334 235
f 335 334 236
f 236 238 335
f 243 336 244
f 336 337 338
f 336 243 337
f 243 245 337
f 337 245 228
f 324 337 228
f 328 327 339
f 327 329 340
f 339 327 340
f 329 330 341
f 340 329 341
f 330 331 342
f 341 330 342
f 331 332 343
f 342 331 343
f 332 333 344
f 343 332 344
f 333 334 345
f 344 333 345
f 334 335 346
f 345 334 346
f 348 246 347
f 346 246 348
f 346 238 246
f 346 335 238
f 247 347 246
f 349 347 247
f 248 349 247
f 350 349 248
f 249 350 248
f 351 350 249
f 351 352 353
f 351 249 352
f 249 250 352
f 244 336 354
f 244 354 250
f 250 354 352
f 336 338 354
f 348 347 355
f 347 349 356
f 355 347 356
f 349 350 357
f 356 349 357
f 350 351 358
f 357 350 358
f 351 353 358
f 361 360 359
f 360 363 362
f 359 360 362
f 363 365 364
f 362 363 364
f 365 367 366
f 364 365 366
f 367 369 368
f 366 367 368
f 369 371 370
f 368 369 370
f 371 373 372
f 370 371 372
f 253 372 373
f 253 373 252
f 252 373 374
f 374 375 252
f 252 375 255
f 375 376 255
f 255 376 257
f 376 377 257
f 257 377 259
f 378 260 259
f 378 259 379
f 379 259 377
f 379 380 378
f 383 382 381
f 384 383 381
f 263 381 382
f 263 382 262
f 262 382 385
f 359 385 361
f 359 265 385
f 265 262 385
f 362 265 359
f 267 265 362
f 364 267 362
f 269 267 364
f 366 269 364
f 271 269 366
f 368 271 366
f 273 271 368
f 370 273 368
f 275 273 370
f 372 275 370
f 277 275 372
f 372 253 277
f 378 279 260
f 380 279 378
f 380 386 279
f 386 281 279
f 281 386 387
f 282 281 387
f 381 285 384
f 284 285 381
f 381 263 284
f 387 388 282
f 388 288 282
f 391 389 390
f 390 389 392
f 395 393 394
f 394 393 296
f 394 296 388
f 388 296 288
f 391 396 389
f 389 396 392
f 299 298 397
f 298 300 397
f 302 398 303
f 302 304 398
f 400 393 395
f 399 393 400
f 305 296 393
f 305 393 401
f 401 393 399
f 306 305 401
f 402 306 401
f 307 306 402
f 403 307 402
f 307 403 308
f 397 309 299
f 397 300 309
f 398 310 303
f 398 304 310
f 400 404 399
f 399 405 401
f 404 405 399
f 401 406 402
f 405 406 401
f 402 407 403
f 406 407 402
f 403 407 408
f 403 408 308
f 308 408 312
f 411 409 410
f 410 409 313
f 410 313 408
f 408 313 312
f 315 412 316
f 315 317 412
f 409 319 318
f 409 411 319
f 411 413 319
f 409 318 313
f 412 321 316
f 412 317 321
f 324 414 415
f 323 414 324
f 414 323 319
f 413 414 319
f 325 417 326
f 416 417 325
f 325 328 416
f 338 418 419
f 337 418 338
f 418 337 324
f 415 418 324
f 417 416 420
f 421 417 420
f 416 328 339
f 416 339 420
f 420 339 422
f 424 340 423
f 424 422 340
f 422 339 340
f 341 423 340
f 425 423 341
f 342 425 341
f 426 425 342
f 343 426 342
f 427 426 343
f 344 427 343
f 428 427 344
f 345 428 344
f 429 428 345
f 346 429 345
f 430 429 346
f 346 348 430
f 352 431 353
f 431 432 433
f 431 352 432
f 352 354 432
f 432 354 338
f 419 432 338
f 424 423 434
f 423 425 435
f 434 423 435
f 425 426 436
f 435 425 436
f 426 427 437
f 436 426 437
f 427 428 438
f 437 427 438
f 428 429 439
f 438 428 439
f 429 430 440
f 439 429 440
f 430 348 355
f 430 355 440
f 440 355 441
f 441 355 442
f 355 356 442
f 442 356 443
f 356 357 443
f 443 357 444
f 357 358 444
f 353 431 445
f 353 445 358
f 358 445 444
f 431 433 445
f 448 447 446
f 447 450 449
f 446 447 449
f 450 451 449
f 454 453 452
f 361 452 453
f 361 453 360
f 360 453 455
f 455 456 360
f 360 456 363
f 456 457 363
f 363 457 365
f 457 458 365
f 365 458 367
f 458 459 367
f 367 459 369
f 459 460 369
f 369 460 371
f 460 461 371
f 371 461 373
f 461 462 373
f 373 462 374
f 462 463 374
f 374 463 375
f 446 463 448
f 446 376 463
f 376 375 463
f 449 376 446
f 377 376 449
f 451 377 449
f 451 464 377
f 464 379 377
f 379 464 465
f 380 379 465
f 467 466 383
f 383 466 382
f 452 466 454
f 452 385 466
f 385 382 466
f 452 361 385
f 386 469 468
f 386 380 469
f 380 465 469
f 386 468 387
f 471 468 469
f 470 468 471
f 468 470 388
f 387 468 388
f 390 472 391
f 390 392 472
f 470 395 394
f 470 471 395
f 471 473 395
f 470 394 388
f 475 476 474
f 472 396 391
f 472 392 396
f 473 477 395
f 477 400 395
f 474 476 481
f 479 480 478
f 479 482 483
f 478 482 479
f 483 484 485
f 482 484 483
f 485 486 487
f 484 486 485
f 487 488 489
f 486 488 487
f 489 490 491
f 488 490 489
f 491 492 493
f 490 492 491
f 493 494 495
f 492 494 493
f 495 496 497
f 494 496 495
f 497 498 499
f 496 498 497
f 499 500 501
f 498 500 499
f 501 502 503
f 500 502 501
f 503 504 505
f 502 504 503
f 505 506 507
f 504 506 505
f 477 404 400
f 477 508 404
f 509 507 506
f 508 510 404
f 404 510 405
f 510 511 405
f 405 511 406
f 511 512 406
f 406 512 407
f 407 512 513
f 408 407 513
f 480 514 478
f 478 515 482
f 514 515 478
f 482 516 484
f 515 516 482
f 484 517 486
f 516 517 484
f 486 518 488
f 517 518 486
f 488 519 490
f 518 519 488
f 490 520 492
f 519 520 490
f 492 521 494
f 520 521 492
f 494 522 496
f 521 522 494
f 496 523 498
f 522 523 496
f 498 524 500
f 523 524 498
f 500 525 502
f 524 525 500
f 502 526 504
f 525 526 502
f 504 527 506
f 526 527 504
f 506 527 509
f 411 528 529
f 410 528 411
f 528 410 408
f 513 528 408
f 532 530 531
f 531 530 413
f 531 413 529
f 529 413 411
f 535 533 534
f 530 415 414
f 532 415 530
f 532 533 415
f 532 534 533
f 530 414 413
f 533 419 418
f 533 535 419
f 535 536 419
f 533 418 415
f 538 421 537
f 421 420 537
f 540 422 539
f 540 537 422
f 537 420 422
f 422 424 539
f 433 541 542
f 432 541 433
f 541 432 419
f 536 541 419
f 540 539 543
f 539 424 434
f 539 434 543
f 543 434 544
f 544 434 545
f 434 435 545
f 545 435 546
f 435 436 546
f 546 436 547
f 436 437 547
f 547 437 548
f 437 438 548
f 548 438 549
f 438 439 549
f 549 439 550
f 439 440 550
f 550 440 551
f 440 441 551
f 553 442 552
f 553 551 442
f 551 441 442
f 443 552 442
f 554 552 443
f 444 554 443
f 555 554 444
f 555 556 557
f 555 444 556
f 444 445 556
f 556 445 433
f 542 556 433
f 553 552 558
f 552 554 559
f 558 552 559
f 554 555 560
f 559 554 560
f 555 557 560
f 563 562 561
f 562 565 564
f 561 562 564
f 448 564 565
f 448 565 447
f 567 566 565
f 566 447 565
f 566 569 568
f 566 568 447
f 447 568 450
f 450 568 570
f 451 450 570
f 573 572 571
f 454 571 572
f 454 572 453
f 453 572 574
f 574 575 453
f 453 575 455
f 575 576 455
f 455 576 456
f 576 577 456
f 456 577 457
f 577 578 457
f 457 578 458
f 578 579 458
f 458 579 459
f 579 580 459
f 459 580 460
f 580 581 460
f 460 581 461
f 561 581 563
f 561 462 581
f 462 461 581
f 564 462 561
f 463 462 564
f 567 582 566
f 564 448 463
f 566 582 569
f 570 464 451
f 583 464 570
f 464 583 584
f 465 464 584
f 571 585 573
f 571 466 585
f 466 467 585
f 571 454 466
f 584 586 465
f 586 469 465
f 586 587 469
f 587 471 469
f 587 588 471
f 588 473 471
f 475 474 589
f 588 590 473
f 590 477 473
f 481 589 474
f 480 479 591
f 483 591 479
f 592 591 483
f 485 592 483
f 593 592 485
f 487 593 485
f 594 593 487
f 489 594 487
f 595 594 489
f 491 595 489
f 596 595 491
f 493 596 491
f 597 596 493
f 495 597 493
f 598 597 495
f 497 598 495
f 599 598 497
f 499 599 497
f 600 599 499
f 501 600 499
f 601 600 501
f 503 601 501
f 602 601 503
f 505 602 503
f 603 602 505
f 507 603 505
f 604 603 507
f 604 507 509
f 606 605 477
f 606 477 590
f 477 605 508
f 510 508 605
f 607 510 605
f 511 510 607
f 608 511 607
f 512 511 608
f 609 512 608
f 512 609 513
f 591 514 480
f 592 514 591
f 515 514 592
f 593 515 592
f 516 515 593
f 594 516 593
f 517 516 594
f 595 517 594
f 518 517 595
f 596 518 595
f 519 518 596
f 597 519 596
f 520 519 597
f 598 520 597
f 521 520 598
f 599 521 598
f 522 521 599
f 600 522 599
f 523 522 600
f 601 523 600
f 524 523 601
f 602 524 601
f 525 524 602
f 603 525 602
f 526 525 603
f 604 526 603
f 527 526 604
f 606 610 605
f 604 509 527
f 605 611 607
f 610 611 605
f 613 607 611
f 613 612 607
f 612 608 607
f 529 528 609
f 529 609 612
f 612 609 608
f 609 528 513
f 612 532 531
f 612 613 532
f 613 614 532
f 612 531 529
f 535 615 616
f 534 615 535
f 615 534 532
f 614 615 532
f 619 617 618
f 618 617 536
f 618 536 616
f 616 536 535
f 621 537 620
f 621 622 537
f 622 538 537
f 537 540 620
f 625 623 624
f 617 542 541
f 619 542 617
f 619 623 542
f 619 624 623
f 617 541 536
f 621 620 626
f 620 540 543
f 620 543 626
f 626 543 627
f 627 543 628
f 543 544 628
f 628 544 629
f 544 545 629
f 629 545 630
f 545 546 630
f 630 546 631
f 546 547 631
f 631 547 632
f 547 548 632
f 632 548 633
f 548 549 633
f 633 549 634
f 549 550 634
f 634 550 635
f 550 551 635
f 551 636 635
f 553 636 551
f 623 557 556
f 623 625 557
f 625 637 557
f 623 556 542
f 636 553 558
f 638 636 558
f 638 558 639
f 558 559 639
f 639 559 640
f 559 560 640
f 640 560 557
f 637 640 557
f 562 563 641
f 565 562 641
f 642 565 641
f 565 642 567
f 569 644 643
f 568 569 643
f 568 643 645
f 570 568 645
f 573 647 646
f 572 573 646
f 646 648 572
f 572 648 574
f 648 649 574
f 574 649 575
f 649 650 575
f 575 650 576
f 650 651 576
f 576 651 577
f 651 652 577
f 577 652 578
f 652 653 578
f 578 653 579
f 653 654 579
f 579 654 580
f 654 655 580
f 580 655 581
f 563 656 641
f 563 581 656
f 581 655 656
f 641 657 642
f 656 657 641
f 642 582 567
f 642 657 582
f 657 658 582
f 658 569 582
f 644 569 658
f 645 583 570
f 659 583 645
f 583 659 660
f 584 583 660
f 661 573 585
f 647 573 661
f 660 662 584
f 662 586 584
f 662 663 586
f 663 587 586
f 663 664 587
f 664 588 587
f 664 665 588
f 665 590 588
f 665 666 590
f 666 606 590
f 668 669 667
f 672 670 671
f 671 673 674
f 670 673 671
f 674 673 675
f 678 676 677
f 677 679 680
f 676 679 677
f 680 679 681
f 680 681 606
f 680 606 666
f 606 681 610
f 611 610 681
f 682 611 681
f 611 682 613
f 669 683 667
f 672 684 670
f 670 685 673
f 684 685 670
f 673 685 675
f 678 686 676
f 676 687 679
f 686 687 676
f 679 688 681
f 687 688 679
f 690 681 688
f 690 689 681
f 689 682 681
f 682 689 614
f 613 682 614
f 689 616 615
f 689 690 616
f 690 691 616
f 689 615 614
f 619 692 693
f 618 692 619
f 692 618 616
f 691 692 616
f 622 621 694
f 625 695 696
f 624 695 625
f 695 624 619
f 693 695 619
f 694 621 626
f 694 626 698
f 698 626 697
f 697 626 699
f 626 627 699
f 699 627 700
f 627 628 700
f 700 628 701
f 628 629 701
f 701 629 702
f 629 630 702
f 702 630 703
f 630 631 703
f 703 631 704
f 631 632 704
f 704 632 705
f 632 633 705
f 705 633 706
f 633 634 706
f 708 635 707
f 708 706 635
f 706 634 635
f 635 636 707
f 696 709 625
f 709 637 625
f 708 707 710
f 707 636 638
f 707 638 710
f 710 638 711
f 711 638 712
f 638 639 712
f 712 639 713
f 639 640 713
f 713 640 637
f 709 713 637
f 644 715 714
f 643 644 714
f 643 714 716
f 645 643 716
f 647 718 717
f 646 647 717
f 717 719 646
f 646 719 648
f 719 720 648
f 648 720 649
f 720 721 649
f 649 721 650
f 721 722 650
f 650 722 651
f 722 723 651
f 651 723 652
f 723 724 652
f 652 724 653
f 724 725 653
f 653 725 654
f 725 726 654
f 654 726 655
f 726 727 655
f 655 727 656
f 727 728 656
f 656 728 657
f 728 729 657
f 657 729 658
f 729 644 658
f 715 644 729
f 659 731 730
f 659 645 731
f 645 716 731
f 659 730 660
f 732 647 661
f 718 647 732
f 731 733 730
f 730 733 734
f 730 734 660
f 660 734 662
f 734 735 662
f 735 663 662
f 735 736 663
f 736 664 663
f 736 737 664
f 737 665 664
f 740 738 739
f 739 738 666
f 739 666 737
f 737 666 665
f 668 667 741
f 671 742 672
f 674 742 671
f 743 742 674
f 674 675 743
f 677 744 678
f 744 740 745
f 744 680 740
f 744 677 680
f 680 738 740
f 738 680 666
f 748 746 747
f 748 749 746
f 683 741 667
f 747 750 751
f 746 750 747
f 751 752 753
f 750 752 751
f 753 754 755
f 752 754 753
f 755 754 756
f 758 759 757
f 742 684 672
f 758 757 761
f 761 757 760
f 684 742 743
f 684 743 685
f 743 675 685
f 761 760 762
f 744 686 678
f 745 686 744
f 745 763 686
f 763 687 686
f 763 764 687
f 687 764 688
f 688 764 765
f 690 688 765
f 749 766 746
f 767 766 749
f 746 768 750
f 766 768 746
f 750 769 752
f 768 769 750
f 752 770 754
f 769 770 752
f 754 770 756
f 759 771 757
f 757 772 760
f 771 772 757
f 760 772 762
f 775 773 774
f 774 773 691
f 774 691 765
f 765 691 690
f 773 693 692
f 773 775 693
f 775 776 693
f 773 692 691
f 778 779 777
f 696 780 781
f 695 780 696
f 780 695 693
f 776 780 693
f 777 779 698
f 777 698 782
f 782 698 697
f 782 697 783
f 697 699 783
f 783 699 784
f 699 700 784
f 784 700 785
f 700 701 785
f 785 701 786
f 701 702 786
f 786 702 787
f 702 703 787
f 787 703 788
f 703 704 788
f 788 704 789
f 704 705 789
f 789 705 790
f 705 706 790
f 791 706 708
f 791 792 706
f 792 790 706
f 792 793 794
f 791 793 792
f 794 793 795
f 798 796 797
f 797 796 709
f 797 709 781
f 781 709 696
f 791 708 710
f 793 791 710
f 711 793 710
f 795 793 711
f 795 711 799
f 799 711 712
f 796 798 799
f 796 799 713
f 713 799 712
f 796 713 709
f 714 715 800
f 714 800 716
f 717 718 801
f 719 717 801
f 802 719 801
f 720 719 802
f 803 720 802
f 721 720 803
f 804 721 803
f 804 806 805
f 804 805 721
f 721 805 722
f 805 807 722
f 722 807 723
f 807 808 723
f 723 808 724
f 810 809 725
f 810 725 808
f 808 725 724
f 726 725 809
f 811 726 809
f 811 813 812
f 811 812 726
f 726 812 727
f 815 814 728
f 815 728 812
f 812 728 727
f 729 728 814
f 816 729 814
f 816 818 817
f 729 816 817
f 729 817 800
f 729 800 715
f 800 817 819
f 800 819 716
f 716 819 731
f 718 820 801
f 718 732 820
f 732 821 820
f 801 822 802
f 820 822 801
f 802 823 803
f 822 823 802
f 803 824 804
f 823 824 803
f 804 824 806
f 810 825 809
f 809 826 811
f 825 826 809
f 811 826 813
f 815 827 814
f 814 828 816
f 827 828 814
f 816 828 818
f 733 830 829
f 733 731 830
f 731 819 830
f 733 829 734
f 832 829 830
f 831 829 832
f 829 831 735
f 734 829 735
f 834 831 832
f 833 831 834
f 831 833 736
f 735 831 736
f 836 833 834
f 835 833 836
f 833 835 737
f 736 833 737
f 835 740 739
f 835 836 740
f 836 837 740
f 835 739 737
f 837 838 740
f 838 745 740
f 747 840 748
f 839 840 747
f 751 839 747
f 841 839 751
f 753 841 751
f 842 841 753
f 755 842 753
f 843 842 755
f 755 756 843
f 758 844 759
f 761 844 758
f 845 844 761
f 761 762 845
f 763 847 846
f 763 745 847
f 745 838 847
f 764 763 846
f 848 764 846
f 764 848 765
f 839 767 840
f 766 767 839
f 841 766 839
f 768 766 841
f 842 768 841
f 769 768 842
f 843 769 842
f 770 769 843
f 843 756 770
f 844 771 759
f 845 771 844
f 772 771 845
f 845 762 772
f 847 849 846
f 849 850 775
f 849 775 848
f 849 848 846
f 774 848 775
f 848 774 765
f 853 851 852
f 852 851 776
f 852 776 850
f 850 776 775
f 854 778 777
f 854 855 778
f 855 856 778
f 855 857 858
f 854 857 855
f 858 859 860
f 857 859 858
f 860 861 862
f 859 861 860
f 862 861 863
f 851 781 780
f 851 853 781
f 853 864 781
f 851 780 776
f 854 777 782
f 857 854 782
f 783 857 782
f 859 857 783
f 784 859 783
f 861 859 784
f 785 861 784
f 863 861 785
f 863 785 865
f 865 785 786
f 865 786 866
f 786 787 866
f 866 787 867
f 787 788 867
f 867 788 868
f 788 789 868
f 868 789 869
f 789 790 869
f 869 790 870
f 790 792 870
f 870 792 871
f 792 794 871
f 872 794 795
f 872 873 794
f 873 871 794
f 798 873 872
f 798 797 873
f 797 874 873
f 874 797 781
f 864 874 781
f 872 795 799
f 872 799 798
f 805 806 875
f 807 805 875
f 876 807 875
f 808 807 876
f 877 808 876
f 808 877 810
f 812 813 878
f 812 878 815
f 881 880 879
f 818 879 880
f 818 880 817
f 883 882 880
f 882 817 880
f 817 882 819
f 886 885 884
f 886 884 821
f 821 884 820
f 884 887 820
f 820 887 822
f 887 888 822
f 822 888 823
f 888 889 823
f 823 889 824
f 806 890 875
f 806 824 890
f 824 889 890
f 875 891 876
f 890 891 875
f 876 892 877
f 891 892 876
f 877 825 810
f 877 892 825
f 892 893 825
f 893 894 825
f 825 894 826
f 813 826 894
f 813 894 895
f 813 895 878
f 895 894 896
f 815 878 895
f 815 895 897
f 815 897 827
f 898 897 895
f 879 897 881
f 879 828 897
f 828 827 897
f 883 899 882
f 879 818 828
f 882 899 900
f 882 900 819
f 819 900 830
f 886 901 885
f 896 902 895
f 895 902 898
f 900 903 830
f 903 832 830
f 903 904 832
f 904 834 832
f 904 905 834
f 905 836 834
f 905 906 836
f 906 837 836
f 906 907 837
f 907 838 837
f 907 908 838
f 908 847 838
f 911 909 910
f 910 912 913
f 909 912 910
f 913 914 915
f 912 914 913
f 915 916 917
f 914 916 915
f 917 918 919
f 916 918 917
f 919 920 921
f 918 920 919
f 921 922 923
f 920 922 921
f 923 924 925
f 922 924 923
f 925 926 927
f 924 926 925
f 927 926 928
f 849 930 929
f 849 847 930
f 847 908 930
f 849 929 850
f 911 931 909
f 909 932 912
f 931 932 909
f 912 933 914
f 932 933 912
f 914 934 916
f 933 934 914
f 916 935 918
f 934 935 916
f 918 936 920
f 935 936 918
f 920 937 922
f 936 937 920
f 922 938 924
f 937 938 922
f 924 939 926
f 938 939 924
f 926 939 928
f 929 853 852
f 929 930 853
f 930 940 853
f 929 852 850
f 942 856 941
f 856 855 941
f 941 855 943
f 855 858 943
f 943 858 944
f 858 860 944
f 944 860 945
f 860 862 945
f 946 862 863
f 946 947 862
f 947 945 862
f 947 948 949
f 946 948 947
f 949 950 951
f 948 950 949
f 951 952 953
f 950 952 951
f 953 954 955
f 952 954 953
f 955 956 957
f 954 956 955
f 957 956 958
f 961 959 960
f 960 959 864
f 960 864 940
f 940 864 853
f 946 863 865
f 948 946 865
f 866 948 865
f 950 948 866
f 867 950 866
f 952 950 867
f 868 952 867
f 954 952 868
f 869 954 868
f 956 954 869
f 870 956 869
f 958 956 870
f 958 870 962
f 962 870 871
f 962 871 963
f 871 873 963
f 959 961 963
f 959 963 874
f 874 963 873
f 959 874 864
f 880 881 964
f 880 964 883
f 884 885 965
f 887 884 965
f 966 887 965
f 888 887 966
f 967 888 966
f 889 888 967
f 968 889 967
f 890 889 968
f 969 890 968
f 891 890 969
f 970 891 969
f 892 891 970
f 971 892 970
f 893 892 971
f 972 893 971
f 894 893 972
f 973 894 972
f 974 896 894
f 974 894 975
f 973 976 894
f 976 975 894
f 898 974 975
f 898 975 897
f 897 975 977
f 881 978 964
f 881 897 978
f 897 977 978
f 980 979 899
f 978 980 899
f 978 899 883
f 978 883 964
f 899 979 900
f 885 981 965
f 885 901 981
f 901 982 981
f 965 983 966
f 981 983 965
f 966 984 967
f 983 984 966
f 967 985 968
f 984 985 967
f 968 986 969
f 985 986 968
f 969 987 970
f 986 987 969
f 970 988 971
f 987 988 970
f 971 989 972
f 988 989 971
f 972 990 973
f 989 990 972
f 973 990 976
f 896 974 902
f 974 898 902
f 980 991 979
f 979 991 992
f 979 992 900
f 900 992 903
f 992 993 903
f 993 904 903
f 993 994 904
f 994 905 904
f 994 995 905
f 995 906 905
f 995 996 906
f 996 907 906
f 996 997 907
f 997 908 907
f 910 998 911
f 913 998 910
f 999 998 913
f 915 999 913
f 1000 999 915
f 917 1000 915
f 1001 1000 917
f 919 1001 917
f 1002 1001 919
f 921 1002 919
f 1003 1002 921
f 923 1003 921
f 1004 1003 923
f 925 1004 923
f 1005 1004 925
f 927 1005 925
f 1006 1005 927
f 927 928 1006
f 997 1007 908
f 1007 930 908
f 1010 1008 1009
f 1011 1008 1010
f 1009 1012 1013
f 1008 1012 1009
f 1013 1014 1015
f 1012 1014 1013
f 1016 1015 1014
f 1016 1017 1015
f 998 931 911
f 1017 1016 1019
f 1019 1016 1018
f 931 998 999
f 931 999 932
f 1019 1018 1021
f 1021 1018 1020
f 932 999 1000
f 932 1000 933
f 1021 1020 1023
f 1023 1020 1022
f 933 1000 1001
f 933 1001 934
f 1023 1022 1025
f 1025 1022 1024
f 934 1001 1002
f 934 1002 935
f 1025 1024 1027
f 1027 1024 1026
f 935 1002 1003
f 935 1003 936
f 1027 1026 1029
f 1029 1026 1028
f 936 1003 1004
f 936 1004 937
f 937 1005 938
f 937 1004 1005
f 1029 1028 1030
f 1006 938 1005
f 939 938 1006
f 1006 928 939
f 1032 1033 1031
f 1032 1031 940
f 1032 940 1007
f 1007 940 930
f 1008 1011 942
f 941 1008 942
f 1012 1008 941
f 943 1012 941
f 1014 1012 943
f 944 1014 943
f 1016 1014 944
f 945 1016 944
f 1018 1016 945
f 947 1018 945
f 1020 1018 947
f 949 1020 947
f 1022 1020 949
f 951 1022 949
f 1024 1022 951
f 953 1024 951
f 1026 1024 953
f 955 1026 953
f 1028 1026 955
f 957 1028 955
f 957 958 1034
f 1028 957 1034
f 1028 1034 1035
f 1028 1035 1030
f 1035 1036 1037
f 1034 1036 1035
f 1031 961 960
f 1033 961 1031
f 1033 1036 961
f 1033 1037 1036
f 1031 960 940
f 1034 958 962
f 1036 1034 962
f 963 1036 962
f 1036 963 961
f 975 976 1038
f 977 975 1038
f 1039 977 1038
f 978 977 1039
f 1040 978 1039
f 978 1040 980
f 981 982 1042
f 1041 981 1042
f 983 981 1041
f 1043 983 1041
f 984 983 1043
f 1044 984 1043
f 985 984 1044
f 1045 985 1044
f 986 985 1045
f 1046 986 1045
f 987 986 1046
f 1047 987 1046
f 988 987 1047
f 1048 988 1047
f 989 988 1048
f 1049 989 1048
f 1049 1051 1050
f 1049 1050 989
f 989 1050 990
f 976 1052 1038
f 976 990 1052
f 990 1050 1052
f 1038 1053 1039
f 1052 1053 1038
f 1039 1054 1040
f 1053 1054 1039
f 1056 1055 991
f 1054 1056 991
f 1054 991 980
f 1054 980 1040
f 991 1055 992
f 1042 1057 1041
f 1058 1057 1042
f 1041 1059 1043
f 1057 1059 1041
f 1043 1060 1044
f 1059 1060 1043
f 1044 1061 1045
f 1060 1061 1044
f 1045 1062 1046
f 1061 1062 1045
f 1046 1063 1047
f 1062 1063 1046
f 1047 1064 1048
f 1063 1064 1047
f 1048 1065 1049
f 1064 1065 1048
f 1049 1065 1051
f 1067 1055 1056
f 1066 1055 1067
f 1055 1066 993
f 992 1055 993
f 1067 1068 1066
f 1066 1068 1069
f 1066 1069 993
f 993 1069 994
f 1072 1070 1071
f 1071 1070 995
f 1071 995 1069
f 1069 995 994
f 1072 1073 1070
f 1070 1073 1074
f 1070 1074 995
f 995 1074 996
f 1077 1075 1076
f 1076 1075 997
f 1076 997 1074
f 1074 997 996
f 1080 1078 1079
f 1081 1078 1080
f 1079 1082 1083
f 1078 1082 1079
f 1083 1084 1085
f 1082 1084 1083
f 1085 1086 1087
f 1084 1086 1085
f 1087 1088 1089
f 1086 1088 1087
f 1089 1090 1091
f 1088 1090 1089
f 1091 1090 1092
f 1094 1075 1077
f 1093 1075 1094
f 1075 1093 1007
f 997 1075 1007
f 1078 1081 1010
f 1009 1078 1010
f 1082 1078 1009
f 1013 1082 1009
f 1084 1082 1013
f 1015 1084 1013
f 1086 1084 1015
f 1017 1086 1015
f 1088 1086 1017
f 1019 1088 1017
f 1090 1088 1019
f 1021 1090 1019
f 1092 1090 1021
f 1092 1021 1095
f 1095 1021 1023
f 1095 1023 1096
f 1023 1025 1096
f 1096 1025 1097
f 1025 1027 1097
f 1097 1027 1098
f 1027 1029 1098
f 1099 1029 1030
f 1099 1100 1029
f 1100 1098 1029
f 1100 1101 1102
f 1099 1101 1100
f 1093 1033 1032
f 1094 1033 1093
f 1094 1101 1033
f 1094 1102 1101
f 1093 1032 1007
f 1099 1030 1035
f 1101 1099 1035
f 1037 1101 1035
f 1101 1037 1033
f 1050 1051 1103
f 1052 1050 1103
f 1104 1052 1103
f 1053 1052 1104
f 1105 1053 1104
f 1054 1053 1105
f 1106 1054 1105
f 1054 1106 1056
f 1057 1058 1108
f 1107 1057 1108
f 1059 1057 1107
f 1109 1059 1107
f 1060 1059 1109
f 1110 1060 1109
f 1061 1060 1110
f 1111 1061 1110
f 1062 1061 1111
f 1112 1062 1111
f 1063 1062 1112
f 1113 1063 1112
f 1064 1063 1113
f 1114 1064 1113
f 1065 1064 1114
f 1115 1065 1114
f 1051 1065 1115
f 1051 1115 1103
f 1103 1115 1116
f 1103 1116 1104
f 1104 1116 1117
f 1104 1117 1105
f 1105 1117 1118
f 1105 1118 1106
f 1106 1118 1119
f 1106 1119 1067
f 1056 1106 1067
f 1108 1120 1107
f 1121 1120 1108
f 1107 1122 1109
f 1120 1122 1107
f 1109 1123 1110
f 1122 1123 1109
f 1110 1124 1111
f 1123 1124 1110
f 1111 1125 1112
f 1124 1125 1111
f 1112 1126 1113
f 1125 1126 1112
f 1113 1127 1114
f 1126 1127 1113
f 1114 1128 1115
f 1127 1128 1114
f 1115 1129 1116
f 1128 1129 1115
f 1116 1130 1117
f 1129 1130 1116
f 1117 1131 1118
f 1130 1131 1117
f 1133 1118 1131
f 1133 1132 1118
f 1132 1119 1118
f 1068 1067 1119
f 1068 1119 1134
f 1134 1119 1132
f 1068 1134 1069
f 1133 1135 1132
f 1135 1136 1072
f 1135 1072 1134
f 1135 1134 1132
f 1071 1134 1072
f 1134 1071 1069
f 1139 1137 1138
f 1138 1140 1141
f 1137 1140 1138
f 1141 1140 1142
f 1141 1142 1072
f 1141 1072 1136
f 1072 1142 1073
f 1073 1142 1074
f 1145 1143 1144
f 1146 1143 1145
f 1144 1143 1147
f 1150 1148 1149
f 1149 1151 1152
f 1148 1151 1149
f 1152 1151 1153
f 1156 1154 1155
f 1155 1137 1139
f 1155 1154 1137
f 1154 1157 1137
f 1137 1157 1140
f 1140 1157 1158
f 1077 1076 1142
f 1077 1142 1158
f 1158 1142 1140
f 1142 1076 1074
f 1143 1146 1080
f 1079 1143 1080
f 1147 1143 1079
f 1147 1079 1159
f 1159 1079 1083
f 1148 1150 1159
f 1148 1159 1085
f 1085 1159 1083
f 1151 1148 1085
f 1087 1151 1085
f 1153 1151 1087
f 1153 1087 1160
f 1160 1087 1089
f 1160 1089 1161
f 1089 1091 1161
f 1162 1091 1092
f 1162 1163 1091
f 1163 1161 1091
f 1163 1164 1165
f 1162 1164 1163
f 1165 1166 1167
f 1164 1166 1165
f 1167 1154 1156
f 1167 1166 1154
f 1166 1168 1154
f 1154 1168 1157
f 1157 1168 1169
f 1157 1169 1158
f 1158 1169 1170
f 1158 1170 1094
f 1077 1158 1094
f 1162 1092 1095
f 1164 1162 1095
f 1096 1164 1095
f 1166 1164 1096
f 1097 1166 1096
f 1168 1166 1097
f 1098 1168 1097
f 1169 1168 1098
f 1100 1169 1098
f 1170 1169 1100
f 1102 1170 1100
f 1170 1102 1094
f 1120 1121 1172
f 1171 1120 1172
f 1122 1120 1171
f 1173 1122 1171
f 1123 1122 1173
f 1174 1123 1173
f 1124 1123 1174
f 1175 1124 1174
f 1125 1124 1175
f 1176 1125 1175
f 1126 1125 1176
f 1177 1126 1176
f 1127 1126 1177
f 1178 1127 1177
f 1128 1127 1178
f 1179 1128 1178
f 1129 1128 1179
f 1180 1129 1179
f 1130 1129 1180
f 1181 1130 1180
f 1131 1130 1181
f 1182 1131 1181
f 1131 1182 1133
f 1184 1172 1185
f 1184 1183 1172
f 1183 1171 1172
f 1171 1183 1173
f 1173 1183 1186
f 1173 1186 1174
f 1174 1186 1187
f 1174 1187 1175
f 1175 1187 1188
f 1175 1188 1176
f 1176 1188 1189
f 1176 1189 1177
f 1177 1189 1190
f 1177 1190 1178
f 1178 1190 1191
f 1178 1191 1179
f 1179 1191 1192
f 1179 1192 1180
f 1180 1192 1193
f 1180 1193 1181
f 1181 1193 1194
f 1181 1194 1182
f 1182 1194 1195
f 1135 1133 1182
f 1135 1182 1196
f 1196 1182 1195
f 1135 1196 1136
f 1184 1197 1183
f 1199 1183 1197
f 1199 1198 1183
f 1198 1186 1183
f 1186 1198 1187
f 1187 1198 1200
f 1187 1200 1188
f 1188 1200 1201
f 1188 1201 1189
f 1189 1201 1202
f 1189 1202 1190
f 1190 1202 1203
f 1190 1203 1191
f 1191 1203 1204
f 1191 1204 1192
f 1192 1204 1205
f 1192 1205 1193
f 1193 1205 1206
f 1193 1206 1194
f 1194 1206 1207
f 1139 1138 1195
f 1139 1195 1207
f 1207 1195 1194
f 1196 1195 1138
f 1141 1196 1138
f 1196 1141 1136
f 1209 1145 1208
f 1145 1144 1208
f 1199 1210 1198
f 1199 1144 1210
f 1199 1208 1144
f 1147 1210 1144
f 1150 1149 1200
f 1150 1200 1210
f 1210 1200 1198
f 1201 1200 1149
f 1152 1201 1149
f 1152 1153 1211
f 1152 1211 1201
f 1201 1211 1202
f 1202 1211 1203
f 1203 1211 1212
f 1203 1212 1204
f 1204 1212 1213
f 1204 1213 1205
f 1205 1213 1214
f 1205 1214 1206
f 1206 1214 1215
f 1156 1155 1207
f 1156 1207 1215
f 1215 1207 1206
f 1207 1155 1139
f 1210 1147 1159
f 1210 1159 1150
f 1211 1153 1160
f 1212 1211 1160
f 1161 1212 1160
f 1213 1212 1161
f 1163 1213 1161
f 1214 1213 1163
f 1165 1214 1163
f 1215 1214 1165
f 1167 1215 1165
f 1215 1167 1156
f 1185 1216 1184
f 1197 1184 1216
f 1197 1216 1217
f 1217 1216 1218
f 1197 1217 1199
f 1217 1218 1209
f 1208 1217 1209
f 1217 1208 1199
