vn 0 0 -1
vn 0 0 1
vn 0 -1 0
vn 1 0 0
vn 0 1 0
vn -1 0 0
v 0.40000 0.06000 0.03500
v 0.40500 0.06000 0.03500
v 0.40500 0.06500 0.03500
v 0.40000 0.06500 0.03500
v 0.40000 0.06000 0.04000
v 0.40500 0.06000 0.04000
v 0.40500 0.06500 0.04000
v 0.40000 0.06500 0.04000
v 0.40000 0.06000 0.04000
v 0.40500 0.06000 0.04000
v 0.40500 0.06500 0.04000
v 0.40000 0.06500 0.04000
v 0.40000 0.06000 0.04500
v 0.40500 0.06000 0.04500
v 0.40500 0.06500 0.04500
v 0.40000 0.06500 0.04500
v 0.40000 0.06000 0.04500
v 0.40500 0.06000 0.04500
v 0.40500 0.06500 0.04500
v 0.40000 0.06500 0.04500
v 0.40000 0.06000 0.05000
v 0.40500 0.06000 0.05000
v 0.40500 0.06500 0.05000
v 0.40000 0.06500 0.05000
v 0.40000 0.06000 0.05000
v 0.40500 0.06000 0.05000
v 0.40500 0.06500 0.05000
v 0.40000 0.06500 0.05000
v 0.40000 0.06000 0.05500
v 0.40500 0.06000 0.05500
v 0.40500 0.06500 0.05500
v 0.40000 0.06500 0.05500
v 0.40000 0.06000 0.05500
v 0.40500 0.06000 0.05500
v 0.40500 0.06500 0.05500
v 0.40000 0.06500 0.05500
v 0.40000 0.06000 0.06000
v 0.40500 0.06000 0.06000
v 0.40500 0.06500 0.06000
v 0.40000 0.06500 0.06000
v 0.40000 0.06500 0.02500
v 0.40500 0.06500 0.02500
v 0.40500 0.07000 0.02500
v 0.40000 0.07000 0.02500
v 0.40000 0.06500 0.03000
v 0.40500 0.06500 0.03000
v 0.40500 0.07000 0.03000
v 0.40000 0.07000 0.03000
v 0.40000 0.06500 0.03000
v 0.40500 0.06500 0.03000
v 0.40500 0.07000 0.03000
v 0.40000 0.07000 0.03000
v 0.40000 0.06500 0.03500
v 0.40500 0.06500 0.03500
v 0.40500 0.07000 0.03500
v 0.40000 0.07000 0.03500
v 0.40000 0.06500 0.03500
v 0.40500 0.06500 0.03500
v 0.40500 0.07000 0.03500
v 0.40000 0.07000 0.03500
v 0.40000 0.06500 0.04000
v 0.40500 0.06500 0.04000
v 0.40500 0.07000 0.04000
v 0.40000 0.07000 0.04000
v 0.40000 0.06500 0.04000
v 0.40500 0.06500 0.04000
v 0.40500 0.07000 0.04000
v 0.40000 0.07000 0.04000
v 0.40000 0.06500 0.04500
v 0.40500 0.06500 0.04500
v 0.40500 0.07000 0.04500
v 0.40000 0.07000 0.04500
v 0.40000 0.06500 0.04500
v 0.40500 0.06500 0.04500
v 0.40500 0.07000 0.04500
v 0.40000 0.07000 0.04500
v 0.40000 0.06500 0.05000
v 0.40500 0.06500 0.05000
v 0.40500 0.07000 0.05000
v 0.40000 0.07000 0.05000
v 0.40000 0.06500 0.05000
v 0.40500 0.06500 0.05000
v 0.40500 0.07000 0.05000
v 0.40000 0.07000 0.05000
v 0.40000 0.06500 0.05500
v 0.40500 0.06500 0.05500
v 0.40500 0.07000 0.05500
v 0.40000 0.07000 0.05500
v 0.40000 0.06500 0.05500
v 0.40500 0.06500 0.05500
v 0.40500 0.07000 0.05500
v 0.40000 0.07000 0.05500
v 0.40000 0.06500 0.06000
v 0.40500 0.06500 0.06000
v 0.40500 0.07000 0.06000
v 0.40000 0.07000 0.06000
v 0.40000 0.06500 0.06000
v 0.40500 0.06500 0.06000
v 0.40500 0.07000 0.06000
v 0.40000 0.07000 0.06000
v 0.40000 0.06500 0.06500
v 0.40500 0.06500 0.06500
v 0.40500 0.07000 0.06500
v 0.40000 0.07000 0.06500
v 0.40000 0.07000 0.03000
v 0.40500 0.07000 0.03000
v 0.40500 0.07500 0.03000
v 0.40000 0.07500 0.03000
v 0.40000 0.07000 0.03500
v 0.40500 0.07000 0.03500
v 0.40500 0.07500 0.03500
v 0.40000 0.07500 0.03500
v 0.40000 0.07000 0.03500
v 0.40500 0.07000 0.03500
v 0.40500 0.07500 0.03500
v 0.40000 0.07500 0.03500
v 0.40000 0.07000 0.04000
v 0.40500 0.07000 0.04000
v 0.40500 0.07500 0.04000
v 0.40000 0.07500 0.04000
v 0.40000 0.07000 0.04000
v 0.40500 0.07000 0.04000
v 0.40500 0.07500 0.04000
v 0.40000 0.07500 0.04000
v 0.40000 0.07000 0.04500
v 0.40500 0.07000 0.04500
v 0.40500 0.07500 0.04500
v 0.40000 0.07500 0.04500
v 0.40000 0.07000 0.04500
v 0.40500 0.07000 0.04500
v 0.40500 0.07500 0.04500
v 0.40000 0.07500 0.04500
v 0.40000 0.07000 0.05000
v 0.40500 0.07000 0.05000
v 0.40500 0.07500 0.05000
v 0.40000 0.07500 0.05000
v 0.40000 0.07000 0.05000
v 0.40500 0.07000 0.05000
v 0.40500 0.07500 0.05000
v 0.40000 0.07500 0.05000
v 0.40000 0.07000 0.05500
v 0.40500 0.07000 0.05500
v 0.40500 0.07500 0.05500
v 0.40000 0.07500 0.05500
v 0.40000 0.07000 0.05500
v 0.40500 0.07000 0.05500
v 0.40500 0.07500 0.05500
v 0.40000 0.07500 0.05500
v 0.40000 0.07000 0.06000
v 0.40500 0.07000 0.06000
v 0.40500 0.07500 0.06000
v 0.40000 0.07500 0.06000
v 0.40000 0.07000 0.06000
v 0.40500 0.07000 0.06000
v 0.40500 0.07500 0.06000
v 0.40000 0.07500 0.06000
v 0.40000 0.07000 0.06500
v 0.40500 0.07000 0.06500
v 0.40500 0.07500 0.06500
v 0.40000 0.07500 0.06500
v 0.40000 0.07500 0.03000
v 0.40500 0.07500 0.03000
v 0.40500 0.08000 0.03000
v 0.40000 0.08000 0.03000
v 0.40000 0.07500 0.03500
v 0.40500 0.07500 0.03500
v 0.40500 0.08000 0.03500
v 0.40000 0.08000 0.03500
v 0.40000 0.07500 0.05500
v 0.40500 0.07500 0.05500
v 0.40500 0.08000 0.05500
v 0.40000 0.08000 0.05500
v 0.40000 0.07500 0.06000
v 0.40500 0.07500 0.06000
v 0.40500 0.08000 0.06000
v 0.40000 0.08000 0.06000
v 0.40500 0.05000 0.02500
v 0.41000 0.05000 0.02500
v 0.41000 0.05500 0.02500
v 0.40500 0.05500 0.02500
v 0.40500 0.05000 0.03000
v 0.41000 0.05000 0.03000
v 0.41000 0.05500 0.03000
v 0.40500 0.05500 0.03000
v 0.40500 0.05000 0.03000
v 0.41000 0.05000 0.03000
v 0.41000 0.05500 0.03000
v 0.40500 0.05500 0.03000
v 0.40500 0.05000 0.03500
v 0.41000 0.05000 0.03500
v 0.41000 0.05500 0.03500
v 0.40500 0.05500 0.03500
v 0.40500 0.05000 0.03500
v 0.41000 0.05000 0.03500
v 0.41000 0.05500 0.03500
v 0.40500 0.05500 0.03500
v 0.40500 0.05000 0.04000
v 0.41000 0.05000 0.04000
v 0.41000 0.05500 0.04000
v 0.40500 0.05500 0.04000
v 0.40500 0.05500 0.02000
v 0.41000 0.05500 0.02000
v 0.41000 0.06000 0.02000
v 0.40500 0.06000 0.02000
v 0.40500 0.05500 0.02500
v 0.41000 0.05500 0.02500
v 0.41000 0.06000 0.02500
v 0.40500 0.06000 0.02500
v 0.40500 0.05500 0.02500
v 0.41000 0.05500 0.02500
v 0.41000 0.06000 0.02500
v 0.40500 0.06000 0.02500
v 0.40500 0.05500 0.03000
v 0.41000 0.05500 0.03000
v 0.41000 0.06000 0.03000
v 0.40500 0.06000 0.03000
v 0.40500 0.05500 0.04500
v 0.41000 0.05500 0.04500
v 0.41000 0.06000 0.04500
v 0.40500 0.06000 0.04500
v 0.40500 0.05500 0.05000
v 0.41000 0.05500 0.05000
v 0.41000 0.06000 0.05000
v 0.40500 0.06000 0.05000
v 0.40500 0.06000 0.01500
v 0.41000 0.06000 0.01500
v 0.41000 0.06500 0.01500
v 0.40500 0.06500 0.01500
v 0.40500 0.06000 0.02000
v 0.41000 0.06000 0.02000
v 0.41000 0.06500 0.02000
v 0.40500 0.06500 0.02000
v 0.40500 0.06000 0.05500
v 0.41000 0.06000 0.05500
v 0.41000 0.06500 0.05500
v 0.40500 0.06500 0.05500
v 0.40500 0.06000 0.06000
v 0.41000 0.06000 0.06000
v 0.41000 0.06500 0.06000
v 0.40500 0.06500 0.06000
v 0.40500 0.06500 0.01500
v 0.41000 0.06500 0.01500
v 0.41000 0.07000 0.01500
v 0.40500 0.07000 0.01500
v 0.40500 0.06500 0.02000
v 0.41000 0.06500 0.02000
v 0.41000 0.07000 0.02000
v 0.40500 0.07000 0.02000
v 0.40500 0.06500 0.06000
v 0.41000 0.06500 0.06000
v 0.41000 0.07000 0.06000
v 0.40500 0.07000 0.06000
v 0.40500 0.06500 0.06500
v 0.41000 0.06500 0.06500
v 0.41000 0.07000 0.06500
v 0.40500 0.07000 0.06500
v 0.40500 0.06500 0.06500
v 0.41000 0.06500 0.06500
v 0.41000 0.07000 0.06500
v 0.40500 0.07000 0.06500
v 0.40500 0.06500 0.07000
v 0.41000 0.06500 0.07000
v 0.41000 0.07000 0.07000
v 0.40500 0.07000 0.07000
v 0.40500 0.07000 0.01500
v 0.41000 0.07000 0.01500
v 0.41000 0.07500 0.01500
v 0.40500 0.07500 0.01500
v 0.40500 0.07000 0.02000
v 0.41000 0.07000 0.02000
v 0.41000 0.07500 0.02000
v 0.40500 0.07500 0.02000
v 0.40500 0.07000 0.02000
v 0.41000 0.07000 0.02000
v 0.41000 0.07500 0.02000
v 0.40500 0.07500 0.02000
v 0.40500 0.07000 0.02500
v 0.41000 0.07000 0.02500
v 0.41000 0.07500 0.02500
v 0.40500 0.07500 0.02500
v 0.40500 0.07000 0.06000
v 0.41000 0.07000 0.06000
v 0.41000 0.07500 0.06000
v 0.40500 0.07500 0.06000
v 0.40500 0.07000 0.06500
v 0.41000 0.07000 0.06500
v 0.41000 0.07500 0.06500
v 0.40500 0.07500 0.06500
v 0.40500 0.07500 0.01500
v 0.41000 0.07500 0.01500
v 0.41000 0.08000 0.01500
v 0.40500 0.08000 0.01500
v 0.40500 0.07500 0.02000
v 0.41000 0.07500 0.02000
v 0.41000 0.08000 0.02000
v 0.40500 0.08000 0.02000
v 0.40500 0.07500 0.02000
v 0.41000 0.07500 0.02000
v 0.41000 0.08000 0.02000
v 0.40500 0.08000 0.02000
v 0.40500 0.07500 0.02500
v 0.41000 0.07500 0.02500
v 0.41000 0.08000 0.02500
v 0.40500 0.08000 0.02500
v 0.40500 0.07500 0.02500
v 0.41000 0.07500 0.02500
v 0.41000 0.08000 0.02500
v 0.40500 0.08000 0.02500
v 0.40500 0.07500 0.03000
v 0.41000 0.07500 0.03000
v 0.41000 0.08000 0.03000
v 0.40500 0.08000 0.03000
v 0.40500 0.07500 0.03500
v 0.41000 0.07500 0.03500
v 0.41000 0.08000 0.03500
v 0.40500 0.08000 0.03500
v 0.40500 0.07500 0.04000
v 0.41000 0.07500 0.04000
v 0.41000 0.08000 0.04000
v 0.40500 0.08000 0.04000
v 0.40500 0.07500 0.04000
v 0.41000 0.07500 0.04000
v 0.41000 0.08000 0.04000
v 0.40500 0.08000 0.04000
v 0.40500 0.07500 0.04500
v 0.41000 0.07500 0.04500
v 0.41000 0.08000 0.04500
v 0.40500 0.08000 0.04500
v 0.40500 0.07500 0.04500
v 0.41000 0.07500 0.04500
v 0.41000 0.08000 0.04500
v 0.40500 0.08000 0.04500
v 0.40500 0.07500 0.05000
v 0.41000 0.07500 0.05000
v 0.41000 0.08000 0.05000
v 0.40500 0.08000 0.05000
v 0.40500 0.07500 0.06000
v 0.41000 0.07500 0.06000
v 0.41000 0.08000 0.06000
v 0.40500 0.08000 0.06000
v 0.40500 0.07500 0.06500
v 0.41000 0.07500 0.06500
v 0.41000 0.08000 0.06500
v 0.40500 0.08000 0.06500
v 0.40500 0.08000 0.02000
v 0.41000 0.08000 0.02000
v 0.41000 0.08500 0.02000
v 0.40500 0.08500 0.02000
v 0.40500 0.08000 0.02500
v 0.41000 0.08000 0.02500
v 0.41000 0.08500 0.02500
v 0.40500 0.08500 0.02500
v 0.40500 0.08000 0.02500
v 0.41000 0.08000 0.02500
v 0.41000 0.08500 0.02500
v 0.40500 0.08500 0.02500
v 0.40500 0.08000 0.03000
v 0.41000 0.08000 0.03000
v 0.41000 0.08500 0.03000
v 0.40500 0.08500 0.03000
v 0.40500 0.08000 0.03000
v 0.41000 0.08000 0.03000
v 0.41000 0.08500 0.03000
v 0.40500 0.08500 0.03000
v 0.40500 0.08000 0.03500
v 0.41000 0.08000 0.03500
v 0.41000 0.08500 0.03500
v 0.40500 0.08500 0.03500
v 0.40500 0.08000 0.03500
v 0.41000 0.08000 0.03500
v 0.41000 0.08500 0.03500
v 0.40500 0.08500 0.03500
v 0.40500 0.08000 0.04000
v 0.41000 0.08000 0.04000
v 0.41000 0.08500 0.04000
v 0.40500 0.08500 0.04000
v 0.40500 0.08000 0.04000
v 0.41000 0.08000 0.04000
v 0.41000 0.08500 0.04000
v 0.40500 0.08500 0.04000
v 0.40500 0.08000 0.04500
v 0.41000 0.08000 0.04500
v 0.41000 0.08500 0.04500
v 0.40500 0.08500 0.04500
v 0.40500 0.08000 0.04500
v 0.41000 0.08000 0.04500
v 0.41000 0.08500 0.04500
v 0.40500 0.08500 0.04500
v 0.40500 0.08000 0.05000
v 0.41000 0.08000 0.05000
v 0.41000 0.08500 0.05000
v 0.40500 0.08500 0.05000
v 0.40500 0.08000 0.05000
v 0.41000 0.08000 0.05000
v 0.41000 0.08500 0.05000
v 0.40500 0.08500 0.05000
v 0.40500 0.08000 0.05500
v 0.41000 0.08000 0.05500
v 0.41000 0.08500 0.05500
v 0.40500 0.08500 0.05500
v 0.40500 0.08000 0.05500
v 0.41000 0.08000 0.05500
v 0.41000 0.08500 0.05500
v 0.40500 0.08500 0.05500
v 0.40500 0.08000 0.06000
v 0.41000 0.08000 0.06000
v 0.41000 0.08500 0.06000
v 0.40500 0.08500 0.06000
v 0.40500 0.08000 0.06000
v 0.41000 0.08000 0.06000
v 0.41000 0.08500 0.06000
v 0.40500 0.08500 0.06000
v 0.40500 0.08000 0.06500
v 0.41000 0.08000 0.06500
v 0.41000 0.08500 0.06500
v 0.40500 0.08500 0.06500
v 0.40500 0.08000 0.06500
v 0.41000 0.08000 0.06500
v 0.41000 0.08500 0.06500
v 0.40500 0.08500 0.06500
v 0.40500 0.08000 0.07000
v 0.41000 0.08000 0.07000
v 0.41000 0.08500 0.07000
v 0.40500 0.08500 0.07000
v 0.41000 0.05000 0.01500
v 0.41500 0.05000 0.01500
v 0.41500 0.05500 0.01500
v 0.41000 0.05500 0.01500
v 0.41000 0.05000 0.02000
v 0.41500 0.05000 0.02000
v 0.41500 0.05500 0.02000
v 0.41000 0.05500 0.02000
v 0.41000 0.05000 0.02000
v 0.41500 0.05000 0.02000
v 0.41500 0.05500 0.02000
v 0.41000 0.05500 0.02000
v 0.41000 0.05000 0.02500
v 0.41500 0.05000 0.02500
v 0.41500 0.05500 0.02500
v 0.41000 0.05500 0.02500
v 0.41000 0.05000 0.02500
v 0.41500 0.05000 0.02500
v 0.41500 0.05500 0.02500
v 0.41000 0.05500 0.02500
v 0.41000 0.05000 0.03000
v 0.41500 0.05000 0.03000
v 0.41500 0.05500 0.03000
v 0.41000 0.05500 0.03000
v 0.41000 0.05000 0.03000
v 0.41500 0.05000 0.03000
v 0.41500 0.05500 0.03000
v 0.41000 0.05500 0.03000
v 0.41000 0.05000 0.03500
v 0.41500 0.05000 0.03500
v 0.41500 0.05500 0.03500
v 0.41000 0.05500 0.03500
v 0.41000 0.05000 0.03500
v 0.41500 0.05000 0.03500
v 0.41500 0.05500 0.03500
v 0.41000 0.05500 0.03500
v 0.41000 0.05000 0.04000
v 0.41500 0.05000 0.04000
v 0.41500 0.05500 0.04000
v 0.41000 0.05500 0.04000
v 0.41000 0.05500 0.01000
v 0.41500 0.05500 0.01000
v 0.41500 0.06000 0.01000
v 0.41000 0.06000 0.01000
v 0.41000 0.05500 0.01500
v 0.41500 0.05500 0.01500
v 0.41500 0.06000 0.01500
v 0.41000 0.06000 0.01500
v 0.41000 0.05500 0.04000
v 0.41500 0.05500 0.04000
v 0.41500 0.06000 0.04000
v 0.41000 0.06000 0.04000
v 0.41000 0.05500 0.04500
v 0.41500 0.05500 0.04500
v 0.41500 0.06000 0.04500
v 0.41000 0.06000 0.04500
v 0.41000 0.05500 0.04500
v 0.41500 0.05500 0.04500
v 0.41500 0.06000 0.04500
v 0.41000 0.06000 0.04500
v 0.41000 0.05500 0.05000
v 0.41500 0.05500 0.05000
v 0.41500 0.06000 0.05000
v 0.41000 0.06000 0.05000
v 0.41000 0.05500 0.05000
v 0.41500 0.05500 0.05000
v 0.41500 0.06000 0.05000
v 0.41000 0.06000 0.05000
v 0.41000 0.05500 0.05500
v 0.41500 0.05500 0.05500
v 0.41500 0.06000 0.05500
v 0.41000 0.06000 0.05500
v 0.41000 0.06000 0.05500
v 0.41500 0.06000 0.05500
v 0.41500 0.06500 0.05500
v 0.41000 0.06500 0.05500
v 0.41000 0.06000 0.06000
v 0.41500 0.06000 0.06000
v 0.41500 0.06500 0.06000
v 0.41000 0.06500 0.06000
v 0.41000 0.06500 0.05500
v 0.41500 0.06500 0.05500
v 0.41500 0.07000 0.05500
v 0.41000 0.07000 0.05500
v 0.41000 0.06500 0.06000
v 0.41500 0.06500 0.06000
v 0.41500 0.07000 0.06000
v 0.41000 0.07000 0.06000
v 0.41000 0.07000 0.05500
v 0.41500 0.07000 0.05500
v 0.41500 0.07500 0.05500
v 0.41000 0.07500 0.05500
v 0.41000 0.07000 0.06000
v 0.41500 0.07000 0.06000
v 0.41500 0.07500 0.06000
v 0.41000 0.07500 0.06000
v 0.41000 0.07500 0.06000
v 0.41500 0.07500 0.06000
v 0.41500 0.08000 0.06000
v 0.41000 0.08000 0.06000
v 0.41000 0.07500 0.06500
v 0.41500 0.07500 0.06500
v 0.41500 0.08000 0.06500
v 0.41000 0.08000 0.06500
v 0.41000 0.08000 0.01000
v 0.41500 0.08000 0.01000
v 0.41500 0.08500 0.01000
v 0.41000 0.08500 0.01000
v 0.41000 0.08000 0.01500
v 0.41500 0.08000 0.01500
v 0.41500 0.08500 0.01500
v 0.41000 0.08500 0.01500
v 0.41000 0.08000 0.06500
v 0.41500 0.08000 0.06500
v 0.41500 0.08500 0.06500
v 0.41000 0.08500 0.06500
v 0.41000 0.08000 0.07000
v 0.41500 0.08000 0.07000
v 0.41500 0.08500 0.07000
v 0.41000 0.08500 0.07000
v 0.41000 0.08500 0.01500
v 0.41500 0.08500 0.01500
v 0.41500 0.09000 0.01500
v 0.41000 0.09000 0.01500
v 0.41000 0.08500 0.02000
v 0.41500 0.08500 0.02000
v 0.41500 0.09000 0.02000
v 0.41000 0.09000 0.02000
v 0.41000 0.08500 0.02000
v 0.41500 0.08500 0.02000
v 0.41500 0.09000 0.02000
v 0.41000 0.09000 0.02000
v 0.41000 0.08500 0.02500
v 0.41500 0.08500 0.02500
v 0.41500 0.09000 0.02500
v 0.41000 0.09000 0.02500
v 0.41000 0.08500 0.02500
v 0.41500 0.08500 0.02500
v 0.41500 0.09000 0.02500
v 0.41000 0.09000 0.02500
v 0.41000 0.08500 0.03000
v 0.41500 0.08500 0.03000
v 0.41500 0.09000 0.03000
v 0.41000 0.09000 0.03000
v 0.41000 0.08500 0.03000
v 0.41500 0.08500 0.03000
v 0.41500 0.09000 0.03000
v 0.41000 0.09000 0.03000
v 0.41000 0.08500 0.03500
v 0.41500 0.08500 0.03500
v 0.41500 0.09000 0.03500
v 0.41000 0.09000 0.03500
v 0.41000 0.08500 0.03500
v 0.41500 0.08500 0.03500
v 0.41500 0.09000 0.03500
v 0.41000 0.09000 0.03500
v 0.41000 0.08500 0.04000
v 0.41500 0.08500 0.04000
v 0.41500 0.09000 0.04000
v 0.41000 0.09000 0.04000
v 0.41000 0.08500 0.04000
v 0.41500 0.08500 0.04000
v 0.41500 0.09000 0.04000
v 0.41000 0.09000 0.04000
v 0.41000 0.08500 0.04500
v 0.41500 0.08500 0.04500
v 0.41500 0.09000 0.04500
v 0.41000 0.09000 0.04500
v 0.41000 0.08500 0.04500
v 0.41500 0.08500 0.04500
v 0.41500 0.09000 0.04500
v 0.41000 0.09000 0.04500
v 0.41000 0.08500 0.05000
v 0.41500 0.08500 0.05000
v 0.41500 0.09000 0.05000
v 0.41000 0.09000 0.05000
v 0.41000 0.08500 0.05000
v 0.41500 0.08500 0.05000
v 0.41500 0.09000 0.05000
v 0.41000 0.09000 0.05000
v 0.41000 0.08500 0.05500
v 0.41500 0.08500 0.05500
v 0.41500 0.09000 0.05500
v 0.41000 0.09000 0.05500
v 0.41000 0.08500 0.05500
v 0.41500 0.08500 0.05500
v 0.41500 0.09000 0.05500
v 0.41000 0.09000 0.05500
v 0.41000 0.08500 0.06000
v 0.41500 0.08500 0.06000
v 0.41500 0.09000 0.06000
v 0.41000 0.09000 0.06000
v 0.41000 0.08500 0.06000
v 0.41500 0.08500 0.06000
v 0.41500 0.09000 0.06000
v 0.41000 0.09000 0.06000
v 0.41000 0.08500 0.06500
v 0.41500 0.08500 0.06500
v 0.41500 0.09000 0.06500
v 0.41000 0.09000 0.06500
v 0.41500 0.04500 0.02500
v 0.42000 0.04500 0.02500
v 0.42000 0.05000 0.02500
v 0.41500 0.05000 0.02500
v 0.41500 0.04500 0.03000
v 0.42000 0.04500 0.03000
v 0.42000 0.05000 0.03000
v 0.41500 0.05000 0.03000
v 0.41500 0.05000 0.01500
v 0.42000 0.05000 0.01500
v 0.42000 0.05500 0.01500
v 0.41500 0.05500 0.01500
v 0.41500 0.05000 0.02000
v 0.42000 0.05000 0.02000
v 0.42000 0.05500 0.02000
v 0.41500 0.05500 0.02000
v 0.41500 0.05000 0.03000
v 0.42000 0.05000 0.03000
v 0.42000 0.05500 0.03000
v 0.41500 0.05500 0.03000
v 0.41500 0.05000 0.03500
v 0.42000 0.05000 0.03500
v 0.42000 0.05500 0.03500
v 0.41500 0.05500 0.03500
v 0.41500 0.05000 0.03500
v 0.42000 0.05000 0.03500
v 0.42000 0.05500 0.03500
v 0.41500 0.05500 0.03500
v 0.41500 0.05000 0.04000
v 0.42000 0.05000 0.04000
v 0.42000 0.05500 0.04000
v 0.41500 0.05500 0.04000
v 0.41500 0.05000 0.04000
v 0.42000 0.05000 0.04000
v 0.42000 0.05500 0.04000
v 0.41500 0.05500 0.04000
v 0.41500 0.05000 0.04500
v 0.42000 0.05000 0.04500
v 0.42000 0.05500 0.04500
v 0.41500 0.05500 0.04500
v 0.41500 0.05500 0.04500
v 0.42000 0.05500 0.04500
v 0.42000 0.06000 0.04500
v 0.41500 0.06000 0.04500
v 0.41500 0.05500 0.05000
v 0.42000 0.05500 0.05000
v 0.42000 0.06000 0.05000
v 0.41500 0.06000 0.05000
v 0.41500 0.05500 0.05000
v 0.42000 0.05500 0.05000
v 0.42000 0.06000 0.05000
v 0.41500 0.06000 0.05000
v 0.41500 0.05500 0.05500
v 0.42000 0.05500 0.05500
v 0.42000 0.06000 0.05500
v 0.41500 0.06000 0.05500
v 0.41500 0.06000 0.05500
v 0.42000 0.06000 0.05500
v 0.42000 0.06500 0.05500
v 0.41500 0.06500 0.05500
v 0.41500 0.06000 0.06000
v 0.42000 0.06000 0.06000
v 0.42000 0.06500 0.06000
v 0.41500 0.06500 0.06000
v 0.41500 0.06500 0.06000
v 0.42000 0.06500 0.06000
v 0.42000 0.07000 0.06000
v 0.41500 0.07000 0.06000
v 0.41500 0.06500 0.06500
v 0.42000 0.06500 0.06500
v 0.42000 0.07000 0.06500
v 0.41500 0.07000 0.06500
v 0.41500 0.07000 0.05500
v 0.42000 0.07000 0.05500
v 0.42000 0.07500 0.05500
v 0.41500 0.07500 0.05500
v 0.41500 0.07000 0.06000
v 0.42000 0.07000 0.06000
v 0.42000 0.07500 0.06000
v 0.41500 0.07500 0.06000
v 0.41500 0.07500 0.06000
v 0.42000 0.07500 0.06000
v 0.42000 0.08000 0.06000
v 0.41500 0.08000 0.06000
v 0.41500 0.07500 0.06500
v 0.42000 0.07500 0.06500
v 0.42000 0.08000 0.06500
v 0.41500 0.08000 0.06500
v 0.41500 0.08000 0.06000
v 0.42000 0.08000 0.06000
v 0.42000 0.08500 0.06000
v 0.41500 0.08500 0.06000
v 0.41500 0.08000 0.06500
v 0.42000 0.08000 0.06500
v 0.42000 0.08500 0.06500
v 0.41500 0.08500 0.06500
v 0.41500 0.08500 0.06000
v 0.42000 0.08500 0.06000
v 0.42000 0.09000 0.06000
v 0.41500 0.09000 0.06000
v 0.41500 0.08500 0.06500
v 0.42000 0.08500 0.06500
v 0.42000 0.09000 0.06500
v 0.41500 0.09000 0.06500
v 0.41500 0.09000 0.01500
v 0.42000 0.09000 0.01500
v 0.42000 0.09500 0.01500
v 0.41500 0.09500 0.01500
v 0.41500 0.09000 0.02000
v 0.42000 0.09000 0.02000
v 0.42000 0.09500 0.02000
v 0.41500 0.09500 0.02000
v 0.41500 0.09000 0.02000
v 0.42000 0.09000 0.02000
v 0.42000 0.09500 0.02000
v 0.41500 0.09500 0.02000
v 0.41500 0.09000 0.02500
v 0.42000 0.09000 0.02500
v 0.42000 0.09500 0.02500
v 0.41500 0.09500 0.02500
v 0.41500 0.09000 0.02500
v 0.42000 0.09000 0.02500
v 0.42000 0.09500 0.02500
v 0.41500 0.09500 0.02500
v 0.41500 0.09000 0.03000
v 0.42000 0.09000 0.03000
v 0.42000 0.09500 0.03000
v 0.41500 0.09500 0.03000
v 0.41500 0.09000 0.03000
v 0.42000 0.09000 0.03000
v 0.42000 0.09500 0.03000
v 0.41500 0.09500 0.03000
v 0.41500 0.09000 0.03500
v 0.42000 0.09000 0.03500
v 0.42000 0.09500 0.03500
v 0.41500 0.09500 0.03500
v 0.41500 0.09000 0.03500
v 0.42000 0.09000 0.03500
v 0.42000 0.09500 0.03500
v 0.41500 0.09500 0.03500
v 0.41500 0.09000 0.04000
v 0.42000 0.09000 0.04000
v 0.42000 0.09500 0.04000
v 0.41500 0.09500 0.04000
v 0.41500 0.09000 0.04000
v 0.42000 0.09000 0.04000
v 0.42000 0.09500 0.04000
v 0.41500 0.09500 0.04000
v 0.41500 0.09000 0.04500
v 0.42000 0.09000 0.04500
v 0.42000 0.09500 0.04500
v 0.41500 0.09500 0.04500
v 0.41500 0.09000 0.04500
v 0.42000 0.09000 0.04500
v 0.42000 0.09500 0.04500
v 0.41500 0.09500 0.04500
v 0.41500 0.09000 0.05000
v 0.42000 0.09000 0.05000
v 0.42000 0.09500 0.05000
v 0.41500 0.09500 0.05000
v 0.41500 0.09000 0.05000
v 0.42000 0.09000 0.05000
v 0.42000 0.09500 0.05000
v 0.41500 0.09500 0.05000
v 0.41500 0.09000 0.05500
v 0.42000 0.09000 0.05500
v 0.42000 0.09500 0.05500
v 0.41500 0.09500 0.05500
v 0.42000 0.04500 0.02000
v 0.42500 0.04500 0.02000
v 0.42500 0.05000 0.02000
v 0.42000 0.05000 0.02000
v 0.42000 0.04500 0.02500
v 0.42500 0.04500 0.02500
v 0.42500 0.05000 0.02500
v 0.42000 0.05000 0.02500
v 0.42000 0.04500 0.02500
v 0.42500 0.04500 0.02500
v 0.42500 0.05000 0.02500
v 0.42000 0.05000 0.02500
v 0.42000 0.04500 0.03000
v 0.42500 0.04500 0.03000
v 0.42500 0.05000 0.03000
v 0.42000 0.05000 0.03000
v 0.42000 0.04500 0.03000
v 0.42500 0.04500 0.03000
v 0.42500 0.05000 0.03000
v 0.42000 0.05000 0.03000
v 0.42000 0.04500 0.03500
v 0.42500 0.04500 0.03500
v 0.42500 0.05000 0.03500
v 0.42000 0.05000 0.03500
v 0.42000 0.04500 0.03500
v 0.42500 0.04500 0.03500
v 0.42500 0.05000 0.03500
v 0.42000 0.05000 0.03500
v 0.42000 0.04500 0.04000
v 0.42500 0.04500 0.04000
v 0.42500 0.05000 0.04000
v 0.42000 0.05000 0.04000
v 0.42000 0.05000 0.01000
v 0.42500 0.05000 0.01000
v 0.42500 0.05500 0.01000
v 0.42000 0.05500 0.01000
v 0.42000 0.05000 0.01500
v 0.42500 0.05000 0.01500
v 0.42500 0.05500 0.01500
v 0.42000 0.05500 0.01500
v 0.42000 0.05000 0.01500
v 0.42500 0.05000 0.01500
v 0.42500 0.05500 0.01500
v 0.42000 0.05500 0.01500
v 0.42000 0.05000 0.02000
v 0.42500 0.05000 0.02000
v 0.42500 0.05500 0.02000
v 0.42000 0.05500 0.02000
v 0.42000 0.05000 0.04000
v 0.42500 0.05000 0.04000
v 0.42500 0.05500 0.04000
v 0.42000 0.05500 0.04000
v 0.42000 0.05000 0.04500
v 0.42500 0.05000 0.04500
v 0.42500 0.05500 0.04500
v 0.42000 0.05500 0.04500
v 0.42000 0.05500 0.04500
v 0.42500 0.05500 0.04500
v 0.42500 0.06000 0.04500
v 0.42000 0.06000 0.04500
v 0.42000 0.05500 0.05000
v 0.42500 0.05500 0.05000
v 0.42500 0.06000 0.05000
v 0.42000 0.06000 0.05000
v 0.42000 0.05500 0.05000
v 0.42500 0.05500 0.05000
v 0.42500 0.06000 0.05000
v 0.42000 0.06000 0.05000
v 0.42000 0.05500 0.05500
v 0.42500 0.05500 0.05500
v 0.42500 0.06000 0.05500
v 0.42000 0.06000 0.05500
v 0.42000 0.06000 0.05500
v 0.42500 0.06000 0.05500
v 0.42500 0.06500 0.05500
v 0.42000 0.06500 0.05500
v 0.42000 0.06000 0.06000
v 0.42500 0.06000 0.06000
v 0.42500 0.06500 0.06000
v 0.42000 0.06500 0.06000
v 0.42000 0.06500 0.05500
v 0.42500 0.06500 0.05500
v 0.42500 0.07000 0.05500
v 0.42000 0.07000 0.05500
v 0.42000 0.06500 0.06000
v 0.42500 0.06500 0.06000
v 0.42500 0.07000 0.06000
v 0.42000 0.07000 0.06000
v 0.42000 0.07000 0.05500
v 0.42500 0.07000 0.05500
v 0.42500 0.07500 0.05500
v 0.42000 0.07500 0.05500
v 0.42000 0.07000 0.06000
v 0.42500 0.07000 0.06000
v 0.42500 0.07500 0.06000
v 0.42000 0.07500 0.06000
v 0.42000 0.07500 0.06000
v 0.42500 0.07500 0.06000
v 0.42500 0.08000 0.06000
v 0.42000 0.08000 0.06000
v 0.42000 0.07500 0.06500
v 0.42500 0.07500 0.06500
v 0.42500 0.08000 0.06500
v 0.42000 0.08000 0.06500
v 0.42000 0.08000 0.05500
v 0.42500 0.08000 0.05500
v 0.42500 0.08500 0.05500
v 0.42000 0.08500 0.05500
v 0.42000 0.08000 0.06000
v 0.42500 0.08000 0.06000
v 0.42500 0.08500 0.06000
v 0.42000 0.08500 0.06000
v 0.42000 0.08500 0.05000
v 0.42500 0.08500 0.05000
v 0.42500 0.09000 0.05000
v 0.42000 0.09000 0.05000
v 0.42000 0.08500 0.05500
v 0.42500 0.08500 0.05500
v 0.42500 0.09000 0.05500
v 0.42000 0.09000 0.05500
v 0.42000 0.09000 0.04500
v 0.42500 0.09000 0.04500
v 0.42500 0.09500 0.04500
v 0.42000 0.09500 0.04500
v 0.42000 0.09000 0.05000
v 0.42500 0.09000 0.05000
v 0.42500 0.09500 0.05000
v 0.42000 0.09500 0.05000
v 0.42000 0.09000 0.05500
v 0.42500 0.09000 0.05500
v 0.42500 0.09500 0.05500
v 0.42000 0.09500 0.05500
v 0.42000 0.09000 0.06000
v 0.42500 0.09000 0.06000
v 0.42500 0.09500 0.06000
v 0.42000 0.09500 0.06000
v 0.42000 0.09500 0.01500
v 0.42500 0.09500 0.01500
v 0.42500 0.10000 0.01500
v 0.42000 0.10000 0.01500
v 0.42000 0.09500 0.02000
v 0.42500 0.09500 0.02000
v 0.42500 0.10000 0.02000
v 0.42000 0.10000 0.02000
v 0.42000 0.09500 0.02000
v 0.42500 0.09500 0.02000
v 0.42500 0.10000 0.02000
v 0.42000 0.10000 0.02000
v 0.42000 0.09500 0.02500
v 0.42500 0.09500 0.02500
v 0.42500 0.10000 0.02500
v 0.42000 0.10000 0.02500
v 0.42000 0.09500 0.02500
v 0.42500 0.09500 0.02500
v 0.42500 0.10000 0.02500
v 0.42000 0.10000 0.02500
v 0.42000 0.09500 0.03000
v 0.42500 0.09500 0.03000
v 0.42500 0.10000 0.03000
v 0.42000 0.10000 0.03000
v 0.42000 0.09500 0.03000
v 0.42500 0.09500 0.03000
v 0.42500 0.10000 0.03000
v 0.42000 0.10000 0.03000
v 0.42000 0.09500 0.03500
v 0.42500 0.09500 0.03500
v 0.42500 0.10000 0.03500
v 0.42000 0.10000 0.03500
v 0.42000 0.09500 0.03500
v 0.42500 0.09500 0.03500
v 0.42500 0.10000 0.03500
v 0.42000 0.10000 0.03500
v 0.42000 0.09500 0.04000
v 0.42500 0.09500 0.04000
v 0.42500 0.10000 0.04000
v 0.42000 0.10000 0.04000
v 0.42000 0.09500 0.04000
v 0.42500 0.09500 0.04000
v 0.42500 0.10000 0.04000
v 0.42000 0.10000 0.04000
v 0.42000 0.09500 0.04500
v 0.42500 0.09500 0.04500
v 0.42500 0.10000 0.04500
v 0.42000 0.10000 0.04500
v 0.42500 0.04500 0.02000
v 0.43000 0.04500 0.02000
v 0.43000 0.05000 0.02000
v 0.42500 0.05000 0.02000
v 0.42500 0.04500 0.02500
v 0.43000 0.04500 0.02500
v 0.43000 0.05000 0.02500
v 0.42500 0.05000 0.02500
v 0.42500 0.04500 0.02500
v 0.43000 0.04500 0.02500
v 0.43000 0.05000 0.02500
v 0.42500 0.05000 0.02500
v 0.42500 0.04500 0.03000
v 0.43000 0.04500 0.03000
v 0.43000 0.05000 0.03000
v 0.42500 0.05000 0.03000
v 0.42500 0.04500 0.03000
v 0.43000 0.04500 0.03000
v 0.43000 0.05000 0.03000
v 0.42500 0.05000 0.03000
v 0.42500 0.04500 0.03500
v 0.43000 0.04500 0.03500
v 0.43000 0.05000 0.03500
v 0.42500 0.05000 0.03500
v 0.42500 0.04500 0.03500
v 0.43000 0.04500 0.03500
v 0.43000 0.05000 0.03500
v 0.42500 0.05000 0.03500
v 0.42500 0.04500 0.04000
v 0.43000 0.04500 0.04000
v 0.43000 0.05000 0.04000
v 0.42500 0.05000 0.04000
v 0.42500 0.05000 0.01000
v 0.43000 0.05000 0.01000
v 0.43000 0.05500 0.01000
v 0.42500 0.05500 0.01000
v 0.42500 0.05000 0.01500
v 0.43000 0.05000 0.01500
v 0.43000 0.05500 0.01500
v 0.42500 0.05500 0.01500
v 0.42500 0.05000 0.04000
v 0.43000 0.05000 0.04000
v 0.43000 0.05500 0.04000
v 0.42500 0.05500 0.04000
v 0.42500 0.05000 0.04500
v 0.43000 0.05000 0.04500
v 0.43000 0.05500 0.04500
v 0.42500 0.05500 0.04500
v 0.42500 0.05000 0.04500
v 0.43000 0.05000 0.04500
v 0.43000 0.05500 0.04500
v 0.42500 0.05500 0.04500
v 0.42500 0.05000 0.05000
v 0.43000 0.05000 0.05000
v 0.43000 0.05500 0.05000
v 0.42500 0.05500 0.05000
v 0.42500 0.05500 0.05000
v 0.43000 0.05500 0.05000
v 0.43000 0.06000 0.05000
v 0.42500 0.06000 0.05000
v 0.42500 0.05500 0.05500
v 0.43000 0.05500 0.05500
v 0.43000 0.06000 0.05500
v 0.42500 0.06000 0.05500
v 0.42500 0.06000 0.05500
v 0.43000 0.06000 0.05500
v 0.43000 0.06500 0.05500
v 0.42500 0.06500 0.05500
v 0.42500 0.06000 0.06000
v 0.43000 0.06000 0.06000
v 0.43000 0.06500 0.06000
v 0.42500 0.06500 0.06000
v 0.42500 0.06500 0.05500
v 0.43000 0.06500 0.05500
v 0.43000 0.07000 0.05500
v 0.42500 0.07000 0.05500
v 0.42500 0.06500 0.06000
v 0.43000 0.06500 0.06000
v 0.43000 0.07000 0.06000
v 0.42500 0.07000 0.06000
v 0.42500 0.07000 0.05500
v 0.43000 0.07000 0.05500
v 0.43000 0.07500 0.05500
v 0.42500 0.07500 0.05500
v 0.42500 0.07000 0.06000
v 0.43000 0.07000 0.06000
v 0.43000 0.07500 0.06000
v 0.42500 0.07500 0.06000
v 0.42500 0.07500 0.05500
v 0.43000 0.07500 0.05500
v 0.43000 0.08000 0.05500
v 0.42500 0.08000 0.05500
v 0.42500 0.07500 0.06000
v 0.43000 0.07500 0.06000
v 0.43000 0.08000 0.06000
v 0.42500 0.08000 0.06000
v 0.42500 0.08000 0.05500
v 0.43000 0.08000 0.05500
v 0.43000 0.08500 0.05500
v 0.42500 0.08500 0.05500
v 0.42500 0.08000 0.06000
v 0.43000 0.08000 0.06000
v 0.43000 0.08500 0.06000
v 0.42500 0.08500 0.06000
v 0.42500 0.08500 0.05000
v 0.43000 0.08500 0.05000
v 0.43000 0.09000 0.05000
v 0.42500 0.09000 0.05000
v 0.42500 0.08500 0.05500
v 0.43000 0.08500 0.05500
v 0.43000 0.09000 0.05500
v 0.42500 0.09000 0.05500
v 0.42500 0.09000 0.04500
v 0.43000 0.09000 0.04500
v 0.43000 0.09500 0.04500
v 0.42500 0.09500 0.04500
v 0.42500 0.09000 0.05000
v 0.43000 0.09000 0.05000
v 0.43000 0.09500 0.05000
v 0.42500 0.09500 0.05000
v 0.42500 0.09500 0.04000
v 0.43000 0.09500 0.04000
v 0.43000 0.10000 0.04000
v 0.42500 0.10000 0.04000
v 0.42500 0.09500 0.04500
v 0.43000 0.09500 0.04500
v 0.43000 0.10000 0.04500
v 0.42500 0.10000 0.04500
v 0.42500 0.09500 0.04500
v 0.43000 0.09500 0.04500
v 0.43000 0.10000 0.04500
v 0.42500 0.10000 0.04500
v 0.42500 0.09500 0.05000
v 0.43000 0.09500 0.05000
v 0.43000 0.10000 0.05000
v 0.42500 0.10000 0.05000
v 0.43000 0.04500 0.02000
v 0.43500 0.04500 0.02000
v 0.43500 0.05000 0.02000
v 0.43000 0.05000 0.02000
v 0.43000 0.04500 0.02500
v 0.43500 0.04500 0.02500
v 0.43500 0.05000 0.02500
v 0.43000 0.05000 0.02500
v 0.43000 0.04500 0.02500
v 0.43500 0.04500 0.02500
v 0.43500 0.05000 0.02500
v 0.43000 0.05000 0.02500
v 0.43000 0.04500 0.03000
v 0.43500 0.04500 0.03000
v 0.43500 0.05000 0.03000
v 0.43000 0.05000 0.03000
v 0.43000 0.04500 0.03000
v 0.43500 0.04500 0.03000
v 0.43500 0.05000 0.03000
v 0.43000 0.05000 0.03000
v 0.43000 0.04500 0.03500
v 0.43500 0.04500 0.03500
v 0.43500 0.05000 0.03500
v 0.43000 0.05000 0.03500
v 0.43000 0.04500 0.03500
v 0.43500 0.04500 0.03500
v 0.43500 0.05000 0.03500
v 0.43000 0.05000 0.03500
v 0.43000 0.04500 0.04000
v 0.43500 0.04500 0.04000
v 0.43500 0.05000 0.04000
v 0.43000 0.05000 0.04000
v 0.43000 0.05000 0.01000
v 0.43500 0.05000 0.01000
v 0.43500 0.05500 0.01000
v 0.43000 0.05500 0.01000
v 0.43000 0.05000 0.01500
v 0.43500 0.05000 0.01500
v 0.43500 0.05500 0.01500
v 0.43000 0.05500 0.01500
v 0.43000 0.05000 0.04000
v 0.43500 0.05000 0.04000
v 0.43500 0.05500 0.04000
v 0.43000 0.05500 0.04000
v 0.43000 0.05000 0.04500
v 0.43500 0.05000 0.04500
v 0.43500 0.05500 0.04500
v 0.43000 0.05500 0.04500
v 0.43000 0.05500 0.04500
v 0.43500 0.05500 0.04500
v 0.43500 0.06000 0.04500
v 0.43000 0.06000 0.04500
v 0.43000 0.05500 0.05000
v 0.43500 0.05500 0.05000
v 0.43500 0.06000 0.05000
v 0.43000 0.06000 0.05000
v 0.43000 0.06000 0.05000
v 0.43500 0.06000 0.05000
v 0.43500 0.06500 0.05000
v 0.43000 0.06500 0.05000
v 0.43000 0.06000 0.05500
v 0.43500 0.06000 0.05500
v 0.43500 0.06500 0.05500
v 0.43000 0.06500 0.05500
v 0.43000 0.06500 0.05500
v 0.43500 0.06500 0.05500
v 0.43500 0.07000 0.05500
v 0.43000 0.07000 0.05500
v 0.43000 0.06500 0.06000
v 0.43500 0.06500 0.06000
v 0.43500 0.07000 0.06000
v 0.43000 0.07000 0.06000
v 0.43000 0.07000 0.05500
v 0.43500 0.07000 0.05500
v 0.43500 0.07500 0.05500
v 0.43000 0.07500 0.05500
v 0.43000 0.07000 0.06000
v 0.43500 0.07000 0.06000
v 0.43500 0.07500 0.06000
v 0.43000 0.07500 0.06000
v 0.43000 0.07500 0.05500
v 0.43500 0.07500 0.05500
v 0.43500 0.08000 0.05500
v 0.43000 0.08000 0.05500
v 0.43000 0.07500 0.06000
v 0.43500 0.07500 0.06000
v 0.43500 0.08000 0.06000
v 0.43000 0.08000 0.06000
v 0.43000 0.08000 0.05500
v 0.43500 0.08000 0.05500
v 0.43500 0.08500 0.05500
v 0.43000 0.08500 0.05500
v 0.43000 0.08000 0.06000
v 0.43500 0.08000 0.06000
v 0.43500 0.08500 0.06000
v 0.43000 0.08500 0.06000
v 0.43000 0.08500 0.05000
v 0.43500 0.08500 0.05000
v 0.43500 0.09000 0.05000
v 0.43000 0.09000 0.05000
v 0.43000 0.08500 0.05500
v 0.43500 0.08500 0.05500
v 0.43500 0.09000 0.05500
v 0.43000 0.09000 0.05500
v 0.43000 0.09000 0.04500
v 0.43500 0.09000 0.04500
v 0.43500 0.09500 0.04500
v 0.43000 0.09500 0.04500
v 0.43000 0.09000 0.05000
v 0.43500 0.09000 0.05000
v 0.43500 0.09500 0.05000
v 0.43000 0.09500 0.05000
v 0.43000 0.09500 0.04500
v 0.43500 0.09500 0.04500
v 0.43500 0.10000 0.04500
v 0.43000 0.10000 0.04500
v 0.43000 0.09500 0.05000
v 0.43500 0.09500 0.05000
v 0.43500 0.10000 0.05000
v 0.43000 0.10000 0.05000
v 0.43000 0.10000 0.02000
v 0.43500 0.10000 0.02000
v 0.43500 0.10500 0.02000
v 0.43000 0.10500 0.02000
v 0.43000 0.10000 0.02500
v 0.43500 0.10000 0.02500
v 0.43500 0.10500 0.02500
v 0.43000 0.10500 0.02500
v 0.43000 0.10000 0.02500
v 0.43500 0.10000 0.02500
v 0.43500 0.10500 0.02500
v 0.43000 0.10500 0.02500
v 0.43000 0.10000 0.03000
v 0.43500 0.10000 0.03000
v 0.43500 0.10500 0.03000
v 0.43000 0.10500 0.03000
v 0.43000 0.10000 0.03000
v 0.43500 0.10000 0.03000
v 0.43500 0.10500 0.03000
v 0.43000 0.10500 0.03000
v 0.43000 0.10000 0.03500
v 0.43500 0.10000 0.03500
v 0.43500 0.10500 0.03500
v 0.43000 0.10500 0.03500
v 0.43500 0.04500 0.03000
v 0.44000 0.04500 0.03000
v 0.44000 0.05000 0.03000
v 0.43500 0.05000 0.03000
v 0.43500 0.04500 0.03500
v 0.44000 0.04500 0.03500
v 0.44000 0.05000 0.03500
v 0.43500 0.05000 0.03500
v 0.43500 0.04500 0.03500
v 0.44000 0.04500 0.03500
v 0.44000 0.05000 0.03500
v 0.43500 0.05000 0.03500
v 0.43500 0.04500 0.04000
v 0.44000 0.04500 0.04000
v 0.44000 0.05000 0.04000
v 0.43500 0.05000 0.04000
v 0.43500 0.05000 0.04000
v 0.44000 0.05000 0.04000
v 0.44000 0.05500 0.04000
v 0.43500 0.05500 0.04000
v 0.43500 0.05000 0.04500
v 0.44000 0.05000 0.04500
v 0.44000 0.05500 0.04500
v 0.43500 0.05500 0.04500
v 0.43500 0.05500 0.04500
v 0.44000 0.05500 0.04500
v 0.44000 0.06000 0.04500
v 0.43500 0.06000 0.04500
v 0.43500 0.05500 0.05000
v 0.44000 0.05500 0.05000
v 0.44000 0.06000 0.05000
v 0.43500 0.06000 0.05000
v 0.43500 0.06000 0.05000
v 0.44000 0.06000 0.05000
v 0.44000 0.06500 0.05000
v 0.43500 0.06500 0.05000
v 0.43500 0.06000 0.05500
v 0.44000 0.06000 0.05500
v 0.44000 0.06500 0.05500
v 0.43500 0.06500 0.05500
v 0.43500 0.06500 0.05000
v 0.44000 0.06500 0.05000
v 0.44000 0.07000 0.05000
v 0.43500 0.07000 0.05000
v 0.43500 0.06500 0.05500
v 0.44000 0.06500 0.05500
v 0.44000 0.07000 0.05500
v 0.43500 0.07000 0.05500
v 0.43500 0.07000 0.05000
v 0.44000 0.07000 0.05000
v 0.44000 0.07500 0.05000
v 0.43500 0.07500 0.05000
v 0.43500 0.07000 0.05500
v 0.44000 0.07000 0.05500
v 0.44000 0.07500 0.05500
v 0.43500 0.07500 0.05500
v 0.43500 0.07500 0.05000
v 0.44000 0.07500 0.05000
v 0.44000 0.08000 0.05000
v 0.43500 0.08000 0.05000
v 0.43500 0.07500 0.05500
v 0.44000 0.07500 0.05500
v 0.44000 0.08000 0.05500
v 0.43500 0.08000 0.05500
v 0.43500 0.08000 0.05000
v 0.44000 0.08000 0.05000
v 0.44000 0.08500 0.05000
v 0.43500 0.08500 0.05000
v 0.43500 0.08000 0.05500
v 0.44000 0.08000 0.05500
v 0.44000 0.08500 0.05500
v 0.43500 0.08500 0.05500
v 0.43500 0.08500 0.05000
v 0.44000 0.08500 0.05000
v 0.44000 0.09000 0.05000
v 0.43500 0.09000 0.05000
v 0.43500 0.08500 0.05500
v 0.44000 0.08500 0.05500
v 0.44000 0.09000 0.05500
v 0.43500 0.09000 0.05500
v 0.43500 0.09000 0.04500
v 0.44000 0.09000 0.04500
v 0.44000 0.09500 0.04500
v 0.43500 0.09500 0.04500
v 0.43500 0.09000 0.05000
v 0.44000 0.09000 0.05000
v 0.44000 0.09500 0.05000
v 0.43500 0.09500 0.05000
v 0.43500 0.09500 0.04000
v 0.44000 0.09500 0.04000
v 0.44000 0.10000 0.04000
v 0.43500 0.10000 0.04000
v 0.43500 0.09500 0.04500
v 0.44000 0.09500 0.04500
v 0.44000 0.10000 0.04500
v 0.43500 0.10000 0.04500
v 0.43500 0.10000 0.03000
v 0.44000 0.10000 0.03000
v 0.44000 0.10500 0.03000
v 0.43500 0.10500 0.03000
v 0.43500 0.10000 0.03500
v 0.44000 0.10000 0.03500
v 0.44000 0.10500 0.03500
v 0.43500 0.10500 0.03500
v 0.43500 0.10000 0.03500
v 0.44000 0.10000 0.03500
v 0.44000 0.10500 0.03500
v 0.43500 0.10500 0.03500
v 0.43500 0.10000 0.04000
v 0.44000 0.10000 0.04000
v 0.44000 0.10500 0.04000
v 0.43500 0.10500 0.04000
v 0.44000 0.05000 0.03500
v 0.44500 0.05000 0.03500
v 0.44500 0.05500 0.03500
v 0.44000 0.05500 0.03500
v 0.44000 0.05000 0.04000
v 0.44500 0.05000 0.04000
v 0.44500 0.05500 0.04000
v 0.44000 0.05500 0.04000
v 0.44000 0.05500 0.04000
v 0.44500 0.05500 0.04000
v 0.44500 0.06000 0.04000
v 0.44000 0.06000 0.04000
v 0.44000 0.05500 0.04500
v 0.44500 0.05500 0.04500
v 0.44500 0.06000 0.04500
v 0.44000 0.06000 0.04500
v 0.44000 0.05500 0.04500
v 0.44500 0.05500 0.04500
v 0.44500 0.06000 0.04500
v 0.44000 0.06000 0.04500
v 0.44000 0.05500 0.05000
v 0.44500 0.05500 0.05000
v 0.44500 0.06000 0.05000
v 0.44000 0.06000 0.05000
v 0.44000 0.06000 0.04500
v 0.44500 0.06000 0.04500
v 0.44500 0.06500 0.04500
v 0.44000 0.06500 0.04500
v 0.44000 0.06000 0.05000
v 0.44500 0.06000 0.05000
v 0.44500 0.06500 0.05000
v 0.44000 0.06500 0.05000
v 0.44000 0.06500 0.05000
v 0.44500 0.06500 0.05000
v 0.44500 0.07000 0.05000
v 0.44000 0.07000 0.05000
v 0.44000 0.06500 0.05500
v 0.44500 0.06500 0.05500
v 0.44500 0.07000 0.05500
v 0.44000 0.07000 0.05500
v 0.44000 0.07000 0.05000
v 0.44500 0.07000 0.05000
v 0.44500 0.07500 0.05000
v 0.44000 0.07500 0.05000
v 0.44000 0.07000 0.05500
v 0.44500 0.07000 0.05500
v 0.44500 0.07500 0.05500
v 0.44000 0.07500 0.05500
v 0.44000 0.07500 0.05000
v 0.44500 0.07500 0.05000
v 0.44500 0.08000 0.05000
v 0.44000 0.08000 0.05000
v 0.44000 0.07500 0.05500
v 0.44500 0.07500 0.05500
v 0.44500 0.08000 0.05500
v 0.44000 0.08000 0.05500
v 0.44000 0.08000 0.05000
v 0.44500 0.08000 0.05000
v 0.44500 0.08500 0.05000
v 0.44000 0.08500 0.05000
v 0.44000 0.08000 0.05500
v 0.44500 0.08000 0.05500
v 0.44500 0.08500 0.05500
v 0.44000 0.08500 0.05500
v 0.44000 0.08500 0.05000
v 0.44500 0.08500 0.05000
v 0.44500 0.09000 0.05000
v 0.44000 0.09000 0.05000
v 0.44000 0.08500 0.05500
v 0.44500 0.08500 0.05500
v 0.44500 0.09000 0.05500
v 0.44000 0.09000 0.05500
v 0.44000 0.09000 0.04500
v 0.44500 0.09000 0.04500
v 0.44500 0.09500 0.04500
v 0.44000 0.09500 0.04500
v 0.44000 0.09000 0.05000
v 0.44500 0.09000 0.05000
v 0.44500 0.09500 0.05000
v 0.44000 0.09500 0.05000
v 0.44000 0.09500 0.04000
v 0.44500 0.09500 0.04000
v 0.44500 0.10000 0.04000
v 0.44000 0.10000 0.04000
v 0.44000 0.09500 0.04500
v 0.44500 0.09500 0.04500
v 0.44500 0.10000 0.04500
v 0.44000 0.10000 0.04500
v 0.44000 0.10000 0.03000
v 0.44500 0.10000 0.03000
v 0.44500 0.10500 0.03000
v 0.44000 0.10500 0.03000
v 0.44000 0.10000 0.03500
v 0.44500 0.10000 0.03500
v 0.44500 0.10500 0.03500
v 0.44000 0.10500 0.03500
v 0.44500 0.05500 0.03500
v 0.45000 0.05500 0.03500
v 0.45000 0.06000 0.03500
v 0.44500 0.06000 0.03500
v 0.44500 0.05500 0.04000
v 0.45000 0.05500 0.04000
v 0.45000 0.06000 0.04000
v 0.44500 0.06000 0.04000
v 0.44500 0.05500 0.04000
v 0.45000 0.05500 0.04000
v 0.45000 0.06000 0.04000
v 0.44500 0.06000 0.04000
v 0.44500 0.05500 0.04500
v 0.45000 0.05500 0.04500
v 0.45000 0.06000 0.04500
v 0.44500 0.06000 0.04500
v 0.44500 0.06000 0.04500
v 0.45000 0.06000 0.04500
v 0.45000 0.06500 0.04500
v 0.44500 0.06500 0.04500
v 0.44500 0.06000 0.05000
v 0.45000 0.06000 0.05000
v 0.45000 0.06500 0.05000
v 0.44500 0.06500 0.05000
v 0.44500 0.06500 0.04500
v 0.45000 0.06500 0.04500
v 0.45000 0.07000 0.04500
v 0.44500 0.07000 0.04500
v 0.44500 0.06500 0.05000
v 0.45000 0.06500 0.05000
v 0.45000 0.07000 0.05000
v 0.44500 0.07000 0.05000
v 0.44500 0.07000 0.04500
v 0.45000 0.07000 0.04500
v 0.45000 0.07500 0.04500
v 0.44500 0.07500 0.04500
v 0.44500 0.07000 0.05000
v 0.45000 0.07000 0.05000
v 0.45000 0.07500 0.05000
v 0.44500 0.07500 0.05000
v 0.44500 0.07500 0.04500
v 0.45000 0.07500 0.04500
v 0.45000 0.08000 0.04500
v 0.44500 0.08000 0.04500
v 0.44500 0.07500 0.05000
v 0.45000 0.07500 0.05000
v 0.45000 0.08000 0.05000
v 0.44500 0.08000 0.05000
v 0.44500 0.08000 0.04500
v 0.45000 0.08000 0.04500
v 0.45000 0.08500 0.04500
v 0.44500 0.08500 0.04500
v 0.44500 0.08000 0.05000
v 0.45000 0.08000 0.05000
v 0.45000 0.08500 0.05000
v 0.44500 0.08500 0.05000
v 0.44500 0.08500 0.04500
v 0.45000 0.08500 0.04500
v 0.45000 0.09000 0.04500
v 0.44500 0.09000 0.04500
v 0.44500 0.08500 0.05000
v 0.45000 0.08500 0.05000
v 0.45000 0.09000 0.05000
v 0.44500 0.09000 0.05000
v 0.44500 0.09000 0.04500
v 0.45000 0.09000 0.04500
v 0.45000 0.09500 0.04500
v 0.44500 0.09500 0.04500
v 0.44500 0.09000 0.05000
v 0.45000 0.09000 0.05000
v 0.45000 0.09500 0.05000
v 0.44500 0.09500 0.05000
v 0.44500 0.09500 0.03500
v 0.45000 0.09500 0.03500
v 0.45000 0.10000 0.03500
v 0.44500 0.10000 0.03500
v 0.44500 0.09500 0.04000
v 0.45000 0.09500 0.04000
v 0.45000 0.10000 0.04000
v 0.44500 0.10000 0.04000
v 0.45000 0.06000 0.03500
v 0.45500 0.06000 0.03500
v 0.45500 0.06500 0.03500
v 0.45000 0.06500 0.03500
v 0.45000 0.06000 0.04000
v 0.45500 0.06000 0.04000
v 0.45500 0.06500 0.04000
v 0.45000 0.06500 0.04000
v 0.45000 0.06500 0.04000
v 0.45500 0.06500 0.04000
v 0.45500 0.07000 0.04000
v 0.45000 0.07000 0.04000
v 0.45000 0.06500 0.04500
v 0.45500 0.06500 0.04500
v 0.45500 0.07000 0.04500
v 0.45000 0.07000 0.04500
v 0.45000 0.07000 0.04000
v 0.45500 0.07000 0.04000
v 0.45500 0.07500 0.04000
v 0.45000 0.07500 0.04000
v 0.45000 0.07000 0.04500
v 0.45500 0.07000 0.04500
v 0.45500 0.07500 0.04500
v 0.45000 0.07500 0.04500
v 0.45000 0.07500 0.04500
v 0.45500 0.07500 0.04500
v 0.45500 0.08000 0.04500
v 0.45000 0.08000 0.04500
v 0.45000 0.07500 0.05000
v 0.45500 0.07500 0.05000
v 0.45500 0.08000 0.05000
v 0.45000 0.08000 0.05000
v 0.45000 0.08000 0.04500
v 0.45500 0.08000 0.04500
v 0.45500 0.08500 0.04500
v 0.45000 0.08500 0.04500
v 0.45000 0.08000 0.05000
v 0.45500 0.08000 0.05000
v 0.45500 0.08500 0.05000
v 0.45000 0.08500 0.05000
v 0.45000 0.08500 0.04000
v 0.45500 0.08500 0.04000
v 0.45500 0.09000 0.04000
v 0.45000 0.09000 0.04000
v 0.45000 0.08500 0.04500
v 0.45500 0.08500 0.04500
v 0.45500 0.09000 0.04500
v 0.45000 0.09000 0.04500
v 0.45000 0.09000 0.04000
v 0.45500 0.09000 0.04000
v 0.45500 0.09500 0.04000
v 0.45000 0.09500 0.04000
v 0.45000 0.09000 0.04500
v 0.45500 0.09000 0.04500
v 0.45500 0.09500 0.04500
v 0.45000 0.09500 0.04500
v 0.45500 0.06500 0.03000
v 0.46000 0.06500 0.03000
v 0.46000 0.07000 0.03000
v 0.45500 0.07000 0.03000
v 0.45500 0.06500 0.03500
v 0.46000 0.06500 0.03500
v 0.46000 0.07000 0.03500
v 0.45500 0.07000 0.03500
v 0.45500 0.07000 0.03500
v 0.46000 0.07000 0.03500
v 0.46000 0.07500 0.03500
v 0.45500 0.07500 0.03500
v 0.45500 0.07000 0.04000
v 0.46000 0.07000 0.04000
v 0.46000 0.07500 0.04000
v 0.45500 0.07500 0.04000
v 0.45500 0.07500 0.03500
v 0.46000 0.07500 0.03500
v 0.46000 0.08000 0.03500
v 0.45500 0.08000 0.03500
v 0.45500 0.07500 0.04000
v 0.46000 0.07500 0.04000
v 0.46000 0.08000 0.04000
v 0.45500 0.08000 0.04000
v 0.45500 0.08000 0.03500
v 0.46000 0.08000 0.03500
v 0.46000 0.08500 0.03500
v 0.45500 0.08500 0.03500
v 0.45500 0.08000 0.04000
v 0.46000 0.08000 0.04000
v 0.46000 0.08500 0.04000
v 0.45500 0.08500 0.04000
v 0.45500 0.08500 0.03500
v 0.46000 0.08500 0.03500
v 0.46000 0.09000 0.03500
v 0.45500 0.09000 0.03500
v 0.45500 0.08500 0.04000
v 0.46000 0.08500 0.04000
v 0.46000 0.09000 0.04000
v 0.45500 0.09000 0.04000
v 0.45500 0.09000 0.03000
v 0.46000 0.09000 0.03000
v 0.46000 0.09500 0.03000
v 0.45500 0.09500 0.03000
v 0.45500 0.09000 0.03500
v 0.46000 0.09000 0.03500
v 0.46000 0.09500 0.03500
v 0.45500 0.09500 0.03500
f 1//1 3//1 2//1
f 1//1 4//1 3//1
f 1//3 6//3 5//3
f 1//3 2//3 6//3
f 2//4 7//4 6//4
f 2//4 3//4 7//4
f 4//6 5//6 8//6
f 4//6 1//6 5//6
f 9//3 14//3 13//3
f 9//3 10//3 14//3
f 10//4 15//4 14//4
f 10//4 11//4 15//4
f 12//6 13//6 16//6
f 12//6 9//6 13//6
f 17//3 22//3 21//3
f 17//3 18//3 22//3
f 18//4 23//4 22//4
f 18//4 19//4 23//4
f 20//6 21//6 24//6
f 20//6 17//6 21//6
f 25//3 30//3 29//3
f 25//3 26//3 30//3
f 26//4 31//4 30//4
f 26//4 27//4 31//4
f 28//6 29//6 32//6
f 28//6 25//6 29//6
f 37//2 38//2 39//2
f 37//2 39//2 40//2
f 33//3 38//3 37//3
f 33//3 34//3 38//3
f 36//6 37//6 40//6
f 36//6 33//6 37//6
f 41//1 43//1 42//1
f 41//1 44//1 43//1
f 41//3 46//3 45//3
f 41//3 42//3 46//3
f 42//4 47//4 46//4
f 42//4 43//4 47//4
f 43//5 48//5 47//5
f 43//5 44//5 48//5
f 44//6 45//6 48//6
f 44//6 41//6 45//6
f 49//3 54//3 53//3
f 49//3 50//3 54//3
f 50//4 55//4 54//4
f 50//4 51//4 55//4
f 52//6 53//6 56//6
f 52//6 49//6 53//6
f 58//4 63//4 62//4
f 58//4 59//4 63//4
f 60//6 61//6 64//6
f 60//6 57//6 61//6
f 66//4 71//4 70//4
f 66//4 67//4 71//4
f 68//6 69//6 72//6
f 68//6 65//6 69//6
f 74//4 79//4 78//4
f 74//4 75//4 79//4
f 76//6 77//6 80//6
f 76//6 73//6 77//6
f 82//4 87//4 86//4
f 82//4 83//4 87//4
f 84//6 85//6 88//6
f 84//6 81//6 85//6
f 90//4 95//4 94//4
f 90//4 91//4 95//4
f 92//6 93//6 96//6
f 92//6 89//6 93//6
f 101//2 102//2 103//2
f 101//2 103//2 104//2
f 97//3 102//3 101//3
f 97//3 98//3 102//3
f 100//6 101//6 104//6
f 100//6 97//6 101//6
f 105//1 107//1 106//1
f 105//1 108//1 107//1
f 106//4 111//4 110//4
f 106//4 107//4 111//4
f 108//6 109//6 112//6
f 108//6 105//6 109//6
f 114//4 119//4 118//4
f 114//4 115//4 119//4
f 115//5 120//5 119//5
f 115//5 116//5 120//5
f 116//6 117//6 120//6
f 116//6 113//6 117//6
f 122//4 127//4 126//4
f 122//4 123//4 127//4
f 123//5 128//5 127//5
f 123//5 124//5 128//5
f 124//6 125//6 128//6
f 124//6 121//6 125//6
f 130//4 135//4 134//4
f 130//4 131//4 135//4
f 131//5 136//5 135//5
f 131//5 132//5 136//5
f 132//6 133//6 136//6
f 132//6 129//6 133//6
f 138//4 143//4 142//4
f 138//4 139//4 143//4
f 139//5 144//5 143//5
f 139//5 140//5 144//5
f 140//6 141//6 144//6
f 140//6 137//6 141//6
f 146//4 151//4 150//4
f 146//4 147//4 151//4
f 148//6 149//6 152//6
f 148//6 145//6 149//6
f 157//2 158//2 159//2
f 157//2 159//2 160//2
f 155//5 160//5 159//5
f 155//5 156//5 160//5
f 156//6 157//6 160//6
f 156//6 153//6 157//6
f 161//1 163//1 162//1
f 161//1 164//1 163//1
f 165//2 166//2 167//2
f 165//2 167//2 168//2
f 162//4 167//4 166//4
f 162//4 163//4 167//4
f 163//5 168//5 167//5
f 163//5 164//5 168//5
f 164//6 165//6 168//6
f 164//6 161//6 165//6
f 169//1 171//1 170//1
f 169//1 172//1 171//1
f 173//2 174//2 175//2
f 173//2 175//2 176//2
f 170//4 175//4 174//4
f 170//4 171//4 175//4
f 171//5 176//5 175//5
f 171//5 172//5 176//5
f 172//6 173//6 176//6
f 172//6 169//6 173//6
f 177//1 179//1 178//1
f 177//1 180//1 179//1
f 177//3 182//3 181//3
f 177//3 178//3 182//3
f 180//6 181//6 184//6
f 180//6 177//6 181//6
f 185//3 190//3 189//3
f 185//3 186//3 190//3
f 187//5 192//5 191//5
f 187//5 188//5 192//5
f 188//6 189//6 192//6
f 188//6 185//6 189//6
f 197//2 198//2 199//2
f 197//2 199//2 200//2
f 193//3 198//3 197//3
f 193//3 194//3 198//3
f 195//5 200//5 199//5
f 195//5 196//5 200//5
f 196//6 197//6 200//6
f 196//6 193//6 197//6
f 201//1 203//1 202//1
f 201//1 204//1 203//1
f 201//3 206//3 205//3
f 201//3 202//3 206//3
f 202//4 207//4 206//4
f 202//4 203//4 207//4
f 203//5 208//5 207//5
f 203//5 204//5 208//5
f 204//6 205//6 208//6
f 204//6 201//6 205//6
f 213//2 214//2 215//2
f 213//2 215//2 216//2
f 210//4 215//4 214//4
f 210//4 211//4 215//4
f 211//5 216//5 215//5
f 211//5 212//5 216//5
f 212//6 213//6 216//6
f 212//6 209//6 213//6
f 217//1 219//1 218//1
f 217//1 220//1 219//1
f 221//2 222//2 223//2
f 221//2 223//2 224//2
f 217//3 222//3 221//3
f 217//3 218//3 222//3
f 219//5 224//5 223//5
f 219//5 220//5 224//5
f 220//6 221//6 224//6
f 220//6 217//6 221//6
f 225//1 227//1 226//1
f 225//1 228//1 227//1
f 229//2 230//2 231//2
f 229//2 231//2 232//2
f 225//3 230//3 229//3
f 225//3 226//3 230//3
f 226//4 231//4 230//4
f 226//4 227//4 231//4
f 228//6 229//6 232//6
f 228//6 225//6 229//6
f 233//1 235//1 234//1
f 233//1 236//1 235//1
f 237//2 238//2 239//2
f 237//2 239//2 240//2
f 233//3 238//3 237//3
f 233//3 234//3 238//3
f 235//5 240//5 239//5
f 235//5 236//5 240//5
f 241//1 243//1 242//1
f 241//1 244//1 243//1
f 245//2 246//2 247//2
f 245//2 247//2 248//2
f 242//4 247//4 246//4
f 242//4 243//4 247//4
f 244//6 245//6 248//6
f 244//6 241//6 245//6
f 249//1 251//1 250//1
f 249//1 252//1 251//1
f 249//3 254//3 253//3
f 249//3 250//3 254//3
f 250//4 255//4 254//4
f 250//4 251//4 255//4
f 261//2 262//2 263//2
f 261//2 263//2 264//2
f 257//3 262//3 261//3
f 257//3 258//3 262//3
f 258//4 263//4 262//4
f 258//4 259//4 263//4
f 259//5 264//5 263//5
f 259//5 260//5 264//5
f 260//6 261//6 264//6
f 260//6 257//6 261//6
f 265//1 267//1 266//1
f 265//1 268//1 267//1
f 266//4 271//4 270//4
f 266//4 267//4 271//4
f 268//6 269//6 272//6
f 268//6 265//6 269//6
f 277//2 278//2 279//2
f 277//2 279//2 280//2
f 273//3 278//3 277//3
f 273//3 274//3 278//3
f 274//4 279//4 278//4
f 274//4 275//4 279//4
f 276//6 277//6 280//6
f 276//6 273//6 277//6
f 281//1 283//1 282//1
f 281//1 284//1 283//1
f 285//2 286//2 287//2
f 285//2 287//2 288//2
f 282//4 287//4 286//4
f 282//4 283//4 287//4
f 289//1 291//1 290//1
f 289//1 292//1 291//1
f 290//4 295//4 294//4
f 290//4 291//4 295//4
f 291//5 296//5 295//5
f 291//5 292//5 296//5
f 292//6 293//6 296//6
f 292//6 289//6 293//6
f 298//4 303//4 302//4
f 298//4 299//4 303//4
f 300//6 301//6 304//6
f 300//6 297//6 301//6
f 309//2 310//2 311//2
f 309//2 311//2 312//2
f 305//3 310//3 309//3
f 305//3 306//3 310//3
f 306//4 311//4 310//4
f 306//4 307//4 311//4
f 308//6 309//6 312//6
f 308//6 305//6 309//6
f 313//1 315//1 314//1
f 313//1 316//1 315//1
f 313//3 318//3 317//3
f 313//3 314//3 318//3
f 314//4 319//4 318//4
f 314//4 315//4 319//4
f 316//6 317//6 320//6
f 316//6 313//6 317//6
f 321//3 326//3 325//3
f 321//3 322//3 326//3
f 322//4 327//4 326//4
f 322//4 323//4 327//4
f 324//6 325//6 328//6
f 324//6 321//6 325//6
f 333//2 334//2 335//2
f 333//2 335//2 336//2
f 329//3 334//3 333//3
f 329//3 330//3 334//3
f 330//4 335//4 334//4
f 330//4 331//4 335//4
f 332//6 333//6 336//6
f 332//6 329//6 333//6
f 337//1 339//1 338//1
f 337//1 340//1 339//1
f 341//2 342//2 343//2
f 341//2 343//2 344//2
f 340//6 341//6 344//6
f 340//6 337//6 341//6
f 345//1 347//1 346//1
f 345//1 348//1 347//1
f 346//4 351//4 350//4
f 346//4 347//4 351//4
f 347//5 352//5 351//5
f 347//5 348//5 352//5
f 348//6 349//6 352//6
f 348//6 345//6 349//6
f 354//4 359//4 358//4
f 354//4 355//4 359//4
f 355//5 360//5 359//5
f 355//5 356//5 360//5
f 356//6 357//6 360//6
f 356//6 353//6 357//6
f 361//3 366//3 365//3
f 361//3 362//3 366//3
f 362//4 367//4 366//4
f 362//4 363//4 367//4
f 363//5 368//5 367//5
f 363//5 364//5 368//5
f 364//6 365//6 368//6
f 364//6 361//6 365//6
f 370//4 375//4 374//4
f 370//4 371//4 375//4
f 371//5 376//5 375//5
f 371//5 372//5 376//5
f 372//6 373//6 376//6
f 372//6 369//6 373//6
f 378//4 383//4 382//4
f 378//4 379//4 383//4
f 379//5 384//5 383//5
f 379//5 380//5 384//5
f 380//6 381//6 384//6
f 380//6 377//6 381//6
f 386//4 391//4 390//4
f 386//4 387//4 391//4
f 387//5 392//5 391//5
f 387//5 388//5 392//5
f 388//6 389//6 392//6
f 388//6 385//6 389//6
f 393//3 398//3 397//3
f 393//3 394//3 398//3
f 394//4 399//4 398//4
f 394//4 395//4 399//4
f 395//5 400//5 399//5
f 395//5 396//5 400//5
f 396//6 397//6 400//6
f 396//6 393//6 397//6
f 401//3 406//3 405//3
f 401//3 402//3 406//3
f 402//4 407//4 406//4
f 402//4 403//4 407//4
f 403//5 408//5 407//5
f 403//5 404//5 408//5
f 404//6 405//6 408//6
f 404//6 401//6 405//6
f 410//4 415//4 414//4
f 410//4 411//4 415//4
f 411//5 416//5 415//5
f 411//5 412//5 416//5
f 412//6 413//6 416//6
f 412//6 409//6 413//6
f 421//2 422//2 423//2
f 421//2 423//2 424//2
f 417//3 422//3 421//3
f 417//3 418//3 422//3
f 419//5 424//5 423//5
f 419//5 420//5 424//5
f 420//6 421//6 424//6
f 420//6 417//6 421//6
f 425//1 427//1 426//1
f 425//1 428//1 427//1
f 425//3 430//3 429//3
f 425//3 426//3 430//3
f 427//5 432//5 431//5
f 427//5 428//5 432//5
f 428//6 429//6 432//6
f 428//6 425//6 429//6
f 433//3 438//3 437//3
f 433//3 434//3 438//3
f 434//4 439//4 438//4
f 434//4 435//4 439//4
f 435//5 440//5 439//5
f 435//5 436//5 440//5
f 436//6 437//6 440//6
f 436//6 433//6 437//6
f 441//3 446//3 445//3
f 441//3 442//3 446//3
f 442//4 447//4 446//4
f 442//4 443//4 447//4
f 443//5 448//5 447//5
f 443//5 444//5 448//5
f 449//3 454//3 453//3
f 449//3 450//3 454//3
f 451//5 456//5 455//5
f 451//5 452//5 456//5
f 461//2 462//2 463//2
f 461//2 463//2 464//2
f 457//3 462//3 461//3
f 457//3 458//3 462//3
f 459//5 464//5 463//5
f 459//5 460//5 464//5
f 465//1 467//1 466//1
f 465//1 468//1 467//1
f 469//2 470//2 471//2
f 469//2 471//2 472//2
f 465//3 470//3 469//3
f 465//3 466//3 470//3
f 466//4 471//4 470//4
f 466//4 467//4 471//4
f 467//5 472//5 471//5
f 467//5 468//5 472//5
f 468//6 469//6 472//6
f 468//6 465//6 469//6
f 473//1 475//1 474//1
f 473//1 476//1 475//1
f 473//3 478//3 477//3
f 473//3 474//3 478//3
f 474//4 479//4 478//4
f 474//4 475//4 479//4
f 475//5 480//5 479//5
f 475//5 476//5 480//5
f 476//6 477//6 480//6
f 476//6 473//6 477//6
f 481//3 486//3 485//3
f 481//3 482//3 486//3
f 483//5 488//5 487//5
f 483//5 484//5 488//5
f 493//2 494//2 495//2
f 493//2 495//2 496//2
f 489//3 494//3 493//3
f 489//3 490//3 494//3
f 491//5 496//5 495//5
f 491//5 492//5 496//5
f 492//6 493//6 496//6
f 492//6 489//6 493//6
f 497//1 499//1 498//1
f 497//1 500//1 499//1
f 501//2 502//2 503//2
f 501//2 503//2 504//2
f 497//3 502//3 501//3
f 497//3 498//3 502//3
f 505//1 507//1 506//1
f 505//1 508//1 507//1
f 509//2 510//2 511//2
f 509//2 511//2 512//2
f 506//4 511//4 510//4
f 506//4 507//4 511//4
f 508//6 509//6 512//6
f 508//6 505//6 509//6
f 513//1 515//1 514//1
f 513//1 516//1 515//1
f 517//2 518//2 519//2
f 517//2 519//2 520//2
f 515//5 520//5 519//5
f 515//5 516//5 520//5
f 516//6 517//6 520//6
f 516//6 513//6 517//6
f 521//1 523//1 522//1
f 521//1 524//1 523//1
f 525//2 526//2 527//2
f 525//2 527//2 528//2
f 521//3 526//3 525//3
f 521//3 522//3 526//3
f 523//5 528//5 527//5
f 523//5 524//5 528//5
f 529//1 531//1 530//1
f 529//1 532//1 531//1
f 533//2 534//2 535//2
f 533//2 535//2 536//2
f 529//3 534//3 533//3
f 529//3 530//3 534//3
f 530//4 535//4 534//4
f 530//4 531//4 535//4
f 531//5 536//5 535//5
f 531//5 532//5 536//5
f 532//6 533//6 536//6
f 532//6 529//6 533//6
f 537//1 539//1 538//1
f 537//1 540//1 539//1
f 541//2 542//2 543//2
f 541//2 543//2 544//2
f 537//3 542//3 541//3
f 537//3 538//3 542//3
f 538//4 543//4 542//4
f 538//4 539//4 543//4
f 539//5 544//5 543//5
f 539//5 540//5 544//5
f 545//1 547//1 546//1
f 545//1 548//1 547//1
f 545//3 550//3 549//3
f 545//3 546//3 550//3
f 546//4 551//4 550//4
f 546//4 547//4 551//4
f 547//5 552//5 551//5
f 547//5 548//5 552//5
f 548//6 549//6 552//6
f 548//6 545//6 549//6
f 553//3 558//3 557//3
f 553//3 554//3 558//3
f 554//4 559//4 558//4
f 554//4 555//4 559//4
f 555//5 560//5 559//5
f 555//5 556//5 560//5
f 556//6 557//6 560//6
f 556//6 553//6 557//6
f 561//3 566//3 565//3
f 561//3 562//3 566//3
f 562//4 567//4 566//4
f 562//4 563//4 567//4
f 563//5 568//5 567//5
f 563//5 564//5 568//5
f 564//6 565//6 568//6
f 564//6 561//6 565//6
f 569//3 574//3 573//3
f 569//3 570//3 574//3
f 570//4 575//4 574//4
f 570//4 571//4 575//4
f 571//5 576//5 575//5
f 571//5 572//5 576//5
f 572//6 573//6 576//6
f 572//6 569//6 573//6
f 577//3 582//3 581//3
f 577//3 578//3 582//3
f 578//4 583//4 582//4
f 578//4 579//4 583//4
f 579//5 584//5 583//5
f 579//5 580//5 584//5
f 580//6 581//6 584//6
f 580//6 577//6 581//6
f 585//3 590//3 589//3
f 585//3 586//3 590//3
f 586//4 591//4 590//4
f 586//4 587//4 591//4
f 587//5 592//5 591//5
f 587//5 588//5 592//5
f 588//6 589//6 592//6
f 588//6 585//6 589//6
f 593//3 598//3 597//3
f 593//3 594//3 598//3
f 594//4 599//4 598//4
f 594//4 595//4 599//4
f 595//5 600//5 599//5
f 595//5 596//5 600//5
f 596//6 597//6 600//6
f 596//6 593//6 597//6
f 601//3 606//3 605//3
f 601//3 602//3 606//3
f 602//4 607//4 606//4
f 602//4 603//4 607//4
f 603//5 608//5 607//5
f 603//5 604//5 608//5
f 604//6 605//6 608//6
f 604//6 601//6 605//6
f 609//3 614//3 613//3
f 609//3 610//3 614//3
f 610//4 615//4 614//4
f 610//4 611//4 615//4
f 611//5 616//5 615//5
f 611//5 612//5 616//5
f 612//6 613//6 616//6
f 612//6 609//6 613//6
f 621//2 622//2 623//2
f 621//2 623//2 624//2
f 617//3 622//3 621//3
f 617//3 618//3 622//3
f 619//5 624//5 623//5
f 619//5 620//5 624//5
f 620//6 621//6 624//6
f 620//6 617//6 621//6
f 625//1 627//1 626//1
f 625//1 628//1 627//1
f 629//2 630//2 631//2
f 629//2 631//2 632//2
f 625//3 630//3 629//3
f 625//3 626//3 630//3
f 627//5 632//5 631//5
f 627//5 628//5 632//5
f 628//6 629//6 632//6
f 628//6 625//6 629//6
f 633//1 635//1 634//1
f 633//1 636//1 635//1
f 637//2 638//2 639//2
f 637//2 639//2 640//2
f 633//3 638//3 637//3
f 633//3 634//3 638//3
f 635//5 640//5 639//5
f 635//5 636//5 640//5
f 641//1 643//1 642//1
f 641//1 644//1 643//1
f 641//3 646//3 645//3
f 641//3 642//3 646//3
f 642//4 647//4 646//4
f 642//4 643//4 647//4
f 643//5 648//5 647//5
f 643//5 644//5 648//5
f 649//3 654//3 653//3
f 649//3 650//3 654//3
f 650//4 655//4 654//4
f 650//4 651//4 655//4
f 651//5 656//5 655//5
f 651//5 652//5 656//5
f 661//2 662//2 663//2
f 661//2 663//2 664//2
f 657//3 662//3 661//3
f 657//3 658//3 662//3
f 659//5 664//5 663//5
f 659//5 660//5 664//5
f 660//6 661//6 664//6
f 660//6 657//6 661//6
f 665//1 667//1 666//1
f 665//1 668//1 667//1
f 665//3 670//3 669//3
f 665//3 666//3 670//3
f 667//5 672//5 671//5
f 667//5 668//5 672//5
f 677//2 678//2 679//2
f 677//2 679//2 680//2
f 673//3 678//3 677//3
f 673//3 674//3 678//3
f 675//5 680//5 679//5
f 675//5 676//5 680//5
f 681//1 683//1 682//1
f 681//1 684//1 683//1
f 685//2 686//2 687//2
f 685//2 687//2 688//2
f 681//3 686//3 685//3
f 681//3 682//3 686//3
f 683//5 688//5 687//5
f 683//5 684//5 688//5
f 689//1 691//1 690//1
f 689//1 692//1 691//1
f 693//2 694//2 695//2
f 693//2 695//2 696//2
f 689//3 694//3 693//3
f 689//3 690//3 694//3
f 690//4 695//4 694//4
f 690//4 691//4 695//4
f 691//5 696//5 695//5
f 691//5 692//5 696//5
f 692//6 693//6 696//6
f 692//6 689//6 693//6
f 697//1 699//1 698//1
f 697//1 700//1 699//1
f 701//2 702//2 703//2
f 701//2 703//2 704//2
f 697//3 702//3 701//3
f 697//3 698//3 702//3
f 699//5 704//5 703//5
f 699//5 700//5 704//5
f 705//1 707//1 706//1
f 705//1 708//1 707//1
f 709//2 710//2 711//2
f 709//2 711//2 712//2
f 705//3 710//3 709//3
f 705//3 706//3 710//3
f 713//1 715//1 714//1
f 713//1 716//1 715//1
f 717//2 718//2 719//2
f 717//2 719//2 720//2
f 714//4 719//4 718//4
f 714//4 715//4 719//4
f 716//6 717//6 720//6
f 716//6 713//6 717//6
f 721//1 723//1 722//1
f 721//1 724//1 723//1
f 725//2 726//2 727//2
f 725//2 727//2 728//2
f 722//4 727//4 726//4
f 722//4 723//4 727//4
f 723//5 728//5 727//5
f 723//5 724//5 728//5
f 729//1 731//1 730//1
f 729//1 732//1 731//1
f 729//3 734//3 733//3
f 729//3 730//3 734//3
f 730//4 735//4 734//4
f 730//4 731//4 735//4
f 731//5 736//5 735//5
f 731//5 732//5 736//5
f 732//6 733//6 736//6
f 732//6 729//6 733//6
f 737//3 742//3 741//3
f 737//3 738//3 742//3
f 738//4 743//4 742//4
f 738//4 739//4 743//4
f 739//5 744//5 743//5
f 739//5 740//5 744//5
f 740//6 741//6 744//6
f 740//6 737//6 741//6
f 745//3 750//3 749//3
f 745//3 746//3 750//3
f 746//4 751//4 750//4
f 746//4 747//4 751//4
f 747//5 752//5 751//5
f 747//5 748//5 752//5
f 748//6 749//6 752//6
f 748//6 745//6 749//6
f 753//3 758//3 757//3
f 753//3 754//3 758//3
f 754//4 759//4 758//4
f 754//4 755//4 759//4
f 755//5 760//5 759//5
f 755//5 756//5 760//5
f 756//6 757//6 760//6
f 756//6 753//6 757//6
f 761//3 766//3 765//3
f 761//3 762//3 766//3
f 762//4 767//4 766//4
f 762//4 763//4 767//4
f 763//5 768//5 767//5
f 763//5 764//5 768//5
f 764//6 765//6 768//6
f 764//6 761//6 765//6
f 769//3 774//3 773//3
f 769//3 770//3 774//3
f 770//4 775//4 774//4
f 770//4 771//4 775//4
f 771//5 776//5 775//5
f 771//5 772//5 776//5
f 772//6 773//6 776//6
f 772//6 769//6 773//6
f 777//3 782//3 781//3
f 777//3 778//3 782//3
f 779//5 784//5 783//5
f 779//5 780//5 784//5
f 780//6 781//6 784//6
f 780//6 777//6 781//6
f 789//2 790//2 791//2
f 789//2 791//2 792//2
f 785//3 790//3 789//3
f 785//3 786//3 790//3
f 786//4 791//4 790//4
f 786//4 787//4 791//4
f 787//5 792//5 791//5
f 787//5 788//5 792//5
f 788//6 789//6 792//6
f 788//6 785//6 789//6
f 793//1 795//1 794//1
f 793//1 796//1 795//1
f 793//3 798//3 797//3
f 793//3 794//3 798//3
f 795//5 800//5 799//5
f 795//5 796//5 800//5
f 796//6 797//6 800//6
f 796//6 793//6 797//6
f 801//3 806//3 805//3
f 801//3 802//3 806//3
f 803//5 808//5 807//5
f 803//5 804//5 808//5
f 809//3 814//3 813//3
f 809//3 810//3 814//3
f 811//5 816//5 815//5
f 811//5 812//5 816//5
f 812//6 813//6 816//6
f 812//6 809//6 813//6
f 821//2 822//2 823//2
f 821//2 823//2 824//2
f 817//3 822//3 821//3
f 817//3 818//3 822//3
f 819//5 824//5 823//5
f 819//5 820//5 824//5
f 820//6 821//6 824//6
f 820//6 817//6 821//6
f 825//1 827//1 826//1
f 825//1 828//1 827//1
f 825//3 830//3 829//3
f 825//3 826//3 830//3
f 827//5 832//5 831//5
f 827//5 828//5 832//5
f 828//6 829//6 832//6
f 828//6 825//6 829//6
f 837//2 838//2 839//2
f 837//2 839//2 840//2
f 833//3 838//3 837//3
f 833//3 834//3 838//3
f 834//4 839//4 838//4
f 834//4 835//4 839//4
f 835//5 840//5 839//5
f 835//5 836//5 840//5
f 841//1 843//1 842//1
f 841//1 844//1 843//1
f 845//2 846//2 847//2
f 845//2 847//2 848//2
f 841//3 846//3 845//3
f 841//3 842//3 846//3
f 843//5 848//5 847//5
f 843//5 844//5 848//5
f 849//1 851//1 850//1
f 849//1 852//1 851//1
f 849//3 854//3 853//3
f 849//3 850//3 854//3
f 850//4 855//4 854//4
f 850//4 851//4 855//4
f 851//5 856//5 855//5
f 851//5 852//5 856//5
f 861//2 862//2 863//2
f 861//2 863//2 864//2
f 857//3 862//3 861//3
f 857//3 858//3 862//3
f 859//5 864//5 863//5
f 859//5 860//5 864//5
f 865//1 867//1 866//1
f 865//1 868//1 867//1
f 869//2 870//2 871//2
f 869//2 871//2 872//2
f 865//3 870//3 869//3
f 865//3 866//3 870//3
f 873//1 875//1 874//1
f 873//1 876//1 875//1
f 877//2 878//2 879//2
f 877//2 879//2 880//2
f 876//6 877//6 880//6
f 876//6 873//6 877//6
f 881//1 883//1 882//1
f 881//1 884//1 883//1
f 885//2 886//2 887//2
f 885//2 887//2 888//2
f 883//5 888//5 887//5
f 883//5 884//5 888//5
f 889//1 891//1 890//1
f 889//1 892//1 891//1
f 893//2 894//2 895//2
f 893//2 895//2 896//2
f 889//3 894//3 893//3
f 889//3 890//3 894//3
f 890//4 895//4 894//4
f 890//4 891//4 895//4
f 891//5 896//5 895//5
f 891//5 892//5 896//5
f 897//1 899//1 898//1
f 897//1 900//1 899//1
f 901//2 902//2 903//2
f 901//2 903//2 904//2
f 897//3 902//3 901//3
f 897//3 898//3 902//3
f 899//5 904//5 903//5
f 899//5 900//5 904//5
f 900//6 901//6 904//6
f 900//6 897//6 901//6
f 905//1 907//1 906//1
f 905//1 908//1 907//1
f 909//2 910//2 911//2
f 909//2 911//2 912//2
f 905//3 910//3 909//3
f 905//3 906//3 910//3
f 907//5 912//5 911//5
f 907//5 908//5 912//5
f 908//6 909//6 912//6
f 908//6 905//6 909//6
f 913//1 915//1 914//1
f 913//1 916//1 915//1
f 917//2 918//2 919//2
f 917//2 919//2 920//2
f 913//3 918//3 917//3
f 913//3 914//3 918//3
f 915//5 920//5 919//5
f 915//5 916//5 920//5
f 921//1 923//1 922//1
f 921//1 924//1 923//1
f 925//2 926//2 927//2
f 925//2 927//2 928//2
f 921//3 926//3 925//3
f 921//3 922//3 926//3
f 922//4 927//4 926//4
f 922//4 923//4 927//4
f 923//5 928//5 927//5
f 923//5 924//5 928//5
f 924//6 925//6 928//6
f 924//6 921//6 925//6
f 929//1 931//1 930//1
f 929//1 932//1 931//1
f 929//3 934//3 933//3
f 929//3 930//3 934//3
f 930//4 935//4 934//4
f 930//4 931//4 935//4
f 931//5 936//5 935//5
f 931//5 932//5 936//5
f 932//6 933//6 936//6
f 932//6 929//6 933//6
f 937//3 942//3 941//3
f 937//3 938//3 942//3
f 938//4 943//4 942//4
f 938//4 939//4 943//4
f 939//5 944//5 943//5
f 939//5 940//5 944//5
f 940//6 941//6 944//6
f 940//6 937//6 941//6
f 945//3 950//3 949//3
f 945//3 946//3 950//3
f 946//4 951//4 950//4
f 946//4 947//4 951//4
f 947//5 952//5 951//5
f 947//5 948//5 952//5
f 948//6 949//6 952//6
f 948//6 945//6 949//6
f 953//3 958//3 957//3
f 953//3 954//3 958//3
f 954//4 959//4 958//4
f 954//4 955//4 959//4
f 955//5 960//5 959//5
f 955//5 956//5 960//5
f 956//6 957//6 960//6
f 956//6 953//6 957//6
f 961//3 966//3 965//3
f 961//3 962//3 966//3
f 962//4 967//4 966//4
f 962//4 963//4 967//4
f 963//5 968//5 967//5
f 963//5 964//5 968//5
f 964//6 965//6 968//6
f 964//6 961//6 965//6
f 973//2 974//2 975//2
f 973//2 975//2 976//2
f 969//3 974//3 973//3
f 969//3 970//3 974//3
f 971//5 976//5 975//5
f 971//5 972//5 976//5
f 972//6 973//6 976//6
f 972//6 969//6 973//6
f 977//1 979//1 978//1
f 977//1 980//1 979//1
f 977//3 982//3 981//3
f 977//3 978//3 982//3
f 979//5 984//5 983//5
f 979//5 980//5 984//5
f 985//3 990//3 989//3
f 985//3 986//3 990//3
f 987//5 992//5 991//5
f 987//5 988//5 992//5
f 993//3 998//3 997//3
f 993//3 994//3 998//3
f 995//5 1000//5 999//5
f 995//5 996//5 1000//5
f 1005//2 1006//2 1007//2
f 1005//2 1007//2 1008//2
f 1001//3 1006//3 1005//3
f 1001//3 1002//3 1006//3
f 1003//5 1008//5 1007//5
f 1003//5 1004//5 1008//5
f 1009//1 1011//1 1010//1
f 1009//1 1012//1 1011//1
f 1013//2 1014//2 1015//2
f 1013//2 1015//2 1016//2
f 1009//3 1014//3 1013//3
f 1009//3 1010//3 1014//3
f 1011//5 1016//5 1015//5
f 1011//5 1012//5 1016//5
f 1017//1 1019//1 1018//1
f 1017//1 1020//1 1019//1
f 1017//3 1022//3 1021//3
f 1017//3 1018//3 1022//3
f 1019//5 1024//5 1023//5
f 1019//5 1020//5 1024//5
f 1029//2 1030//2 1031//2
f 1029//2 1031//2 1032//2
f 1025//3 1030//3 1029//3
f 1025//3 1026//3 1030//3
f 1026//4 1031//4 1030//4
f 1026//4 1027//4 1031//4
f 1027//5 1032//5 1031//5
f 1027//5 1028//5 1032//5
f 1028//6 1029//6 1032//6
f 1028//6 1025//6 1029//6
f 1033//1 1035//1 1034//1
f 1033//1 1036//1 1035//1
f 1037//2 1038//2 1039//2
f 1037//2 1039//2 1040//2
f 1033//3 1038//3 1037//3
f 1033//3 1034//3 1038//3
f 1034//4 1039//4 1038//4
f 1034//4 1035//4 1039//4
f 1035//5 1040//5 1039//5
f 1035//5 1036//5 1040//5
f 1041//1 1043//1 1042//1
f 1041//1 1044//1 1043//1
f 1045//2 1046//2 1047//2
f 1045//2 1047//2 1048//2
f 1041//3 1046//3 1045//3
f 1041//3 1042//3 1046//3
f 1042//4 1047//4 1046//4
f 1042//4 1043//4 1047//4
f 1049//1 1051//1 1050//1
f 1049//1 1052//1 1051//1
f 1053//2 1054//2 1055//2
f 1053//2 1055//2 1056//2
f 1057//1 1059//1 1058//1
f 1057//1 1060//1 1059//1
f 1061//2 1062//2 1063//2
f 1061//2 1063//2 1064//2
f 1065//1 1067//1 1066//1
f 1065//1 1068//1 1067//1
f 1069//2 1070//2 1071//2
f 1069//2 1071//2 1072//2
f 1068//6 1069//6 1072//6
f 1068//6 1065//6 1069//6
f 1073//1 1075//1 1074//1
f 1073//1 1076//1 1075//1
f 1077//2 1078//2 1079//2
f 1077//2 1079//2 1080//2
f 1075//5 1080//5 1079//5
f 1075//5 1076//5 1080//5
f 1081//1 1083//1 1082//1
f 1081//1 1084//1 1083//1
f 1085//2 1086//2 1087//2
f 1085//2 1087//2 1088//2
f 1081//3 1086//3 1085//3
f 1081//3 1082//3 1086//3
f 1083//5 1088//5 1087//5
f 1083//5 1084//5 1088//5
f 1089//1 1091//1 1090//1
f 1089//1 1092//1 1091//1
f 1093//2 1094//2 1095//2
f 1093//2 1095//2 1096//2
f 1089//3 1094//3 1093//3
f 1089//3 1090//3 1094//3
f 1097//1 1099//1 1098//1
f 1097//1 1100//1 1099//1
f 1097//3 1102//3 1101//3
f 1097//3 1098//3 1102//3
f 1098//4 1103//4 1102//4
f 1098//4 1099//4 1103//4
f 1099//5 1104//5 1103//5
f 1099//5 1100//5 1104//5
f 1109//2 1110//2 1111//2
f 1109//2 1111//2 1112//2
f 1107//5 1112//5 1111//5
f 1107//5 1108//5 1112//5
f 1108//6 1109//6 1112//6
f 1108//6 1105//6 1109//6
f 1113//1 1115//1 1114//1
f 1113//1 1116//1 1115//1
f 1113//3 1118//3 1117//3
f 1113//3 1114//3 1118//3
f 1114//4 1119//4 1118//4
f 1114//4 1115//4 1119//4
f 1115//5 1120//5 1119//5
f 1115//5 1116//5 1120//5
f 1121//3 1126//3 1125//3
f 1121//3 1122//3 1126//3
f 1122//4 1127//4 1126//4
f 1122//4 1123//4 1127//4
f 1123//5 1128//5 1127//5
f 1123//5 1124//5 1128//5
f 1129//3 1134//3 1133//3
f 1129//3 1130//3 1134//3
f 1131//5 1136//5 1135//5
f 1131//5 1132//5 1136//5
f 1141//2 1142//2 1143//2
f 1141//2 1143//2 1144//2
f 1137//3 1142//3 1141//3
f 1137//3 1138//3 1142//3
f 1139//5 1144//5 1143//5
f 1139//5 1140//5 1144//5
f 1145//1 1147//1 1146//1
f 1145//1 1148//1 1147//1
f 1149//2 1150//2 1151//2
f 1149//2 1151//2 1152//2
f 1145//3 1150//3 1149//3
f 1145//3 1146//3 1150//3
f 1146//4 1151//4 1150//4
f 1146//4 1147//4 1151//4
f 1147//5 1152//5 1151//5
f 1147//5 1148//5 1152//5
f 1153//1 1155//1 1154//1
f 1153//1 1156//1 1155//1
f 1157//2 1158//2 1159//2
f 1157//2 1159//2 1160//2
f 1153//3 1158//3 1157//3
f 1153//3 1154//3 1158//3
f 1155//5 1160//5 1159//5
f 1155//5 1156//5 1160//5
f 1161//1 1163//1 1162//1
f 1161//1 1164//1 1163//1
f 1165//2 1166//2 1167//2
f 1165//2 1167//2 1168//2
f 1161//3 1166//3 1165//3
f 1161//3 1162//3 1166//3
f 1163//5 1168//5 1167//5
f 1163//5 1164//5 1168//5
f 1164//6 1165//6 1168//6
f 1164//6 1161//6 1165//6
f 1169//1 1171//1 1170//1
f 1169//1 1172//1 1171//1
f 1173//2 1174//2 1175//2
f 1173//2 1175//2 1176//2
f 1169//3 1174//3 1173//3
f 1169//3 1170//3 1174//3
f 1171//5 1176//5 1175//5
f 1171//5 1172//5 1176//5
f 1172//6 1173//6 1176//6
f 1172//6 1169//6 1173//6
f 1177//1 1179//1 1178//1
f 1177//1 1180//1 1179//1
f 1181//2 1182//2 1183//2
f 1181//2 1183//2 1184//2
f 1177//3 1182//3 1181//3
f 1177//3 1178//3 1182//3
f 1178//4 1183//4 1182//4
f 1178//4 1179//4 1183//4
f 1185//1 1187//1 1186//1
f 1185//1 1188//1 1187//1
f 1189//2 1190//2 1191//2
f 1189//2 1191//2 1192//2
f 1186//4 1191//4 1190//4
f 1186//4 1187//4 1191//4
f 1193//1 1195//1 1194//1
f 1193//1 1196//1 1195//1
f 1197//2 1198//2 1199//2
f 1197//2 1199//2 1200//2
f 1194//4 1199//4 1198//4
f 1194//4 1195//4 1199//4
f 1201//1 1203//1 1202//1
f 1201//1 1204//1 1203//1
f 1205//2 1206//2 1207//2
f 1205//2 1207//2 1208//2
f 1202//4 1207//4 1206//4
f 1202//4 1203//4 1207//4
f 1203//5 1208//5 1207//5
f 1203//5 1204//5 1208//5
f 1209//1 1211//1 1210//1
f 1209//1 1212//1 1211//1
f 1213//2 1214//2 1215//2
f 1213//2 1215//2 1216//2
f 1209//3 1214//3 1213//3
f 1209//3 1210//3 1214//3
f 1211//5 1216//5 1215//5
f 1211//5 1212//5 1216//5
f 1217//1 1219//1 1218//1
f 1217//1 1220//1 1219//1
f 1221//2 1222//2 1223//2
f 1221//2 1223//2 1224//2
f 1217//3 1222//3 1221//3
f 1217//3 1218//3 1222//3
f 1225//1 1227//1 1226//1
f 1225//1 1228//1 1227//1
f 1229//2 1230//2 1231//2
f 1229//2 1231//2 1232//2
f 1226//4 1231//4 1230//4
f 1226//4 1227//4 1231//4
f 1227//5 1232//5 1231//5
f 1227//5 1228//5 1232//5
f 1233//1 1235//1 1234//1
f 1233//1 1236//1 1235//1
f 1233//3 1238//3 1237//3
f 1233//3 1234//3 1238//3
f 1234//4 1239//4 1238//4
f 1234//4 1235//4 1239//4
f 1235//5 1240//5 1239//5
f 1235//5 1236//5 1240//5
f 1236//6 1237//6 1240//6
f 1236//6 1233//6 1237//6
f 1241//3 1246//3 1245//3
f 1241//3 1242//3 1246//3
f 1242//4 1247//4 1246//4
f 1242//4 1243//4 1247//4
f 1243//5 1248//5 1247//5
f 1243//5 1244//5 1248//5
f 1244//6 1245//6 1248//6
f 1244//6 1241//6 1245//6
f 1253//2 1254//2 1255//2
f 1253//2 1255//2 1256//2
f 1249//3 1254//3 1253//3
f 1249//3 1250//3 1254//3
f 1251//5 1256//5 1255//5
f 1251//5 1252//5 1256//5
f 1252//6 1253//6 1256//6
f 1252//6 1249//6 1253//6
f 1257//1 1259//1 1258//1
f 1257//1 1260//1 1259//1
f 1257//3 1262//3 1261//3
f 1257//3 1258//3 1262//3
f 1258//4 1263//4 1262//4
f 1258//4 1259//4 1263//4
f 1259//5 1264//5 1263//5
f 1259//5 1260//5 1264//5
f 1269//2 1270//2 1271//2
f 1269//2 1271//2 1272//2
f 1265//3 1270//3 1269//3
f 1265//3 1266//3 1270//3
f 1266//4 1271//4 1270//4
f 1266//4 1267//4 1271//4
f 1267//5 1272//5 1271//5
f 1267//5 1268//5 1272//5
f 1273//1 1275//1 1274//1
f 1273//1 1276//1 1275//1
f 1277//2 1278//2 1279//2
f 1277//2 1279//2 1280//2
f 1273//3 1278//3 1277//3
f 1273//3 1274//3 1278//3
f 1274//4 1279//4 1278//4
f 1274//4 1275//4 1279//4
f 1275//5 1280//5 1279//5
f 1275//5 1276//5 1280//5
f 1281//1 1283//1 1282//1
f 1281//1 1284//1 1283//1
f 1285//2 1286//2 1287//2
f 1285//2 1287//2 1288//2
f 1281//3 1286//3 1285//3
f 1281//3 1282//3 1286//3
f 1283//5 1288//5 1287//5
f 1283//5 1284//5 1288//5
f 1289//1 1291//1 1290//1
f 1289//1 1292//1 1291//1
f 1293//2 1294//2 1295//2
f 1293//2 1295//2 1296//2
f 1289//3 1294//3 1293//3
f 1289//3 1290//3 1294//3
f 1290//4 1295//4 1294//4
f 1290//4 1291//4 1295//4
f 1297//1 1299//1 1298//1
f 1297//1 1300//1 1299//1
f 1301//2 1302//2 1303//2
f 1301//2 1303//2 1304//2
f 1300//6 1301//6 1304//6
f 1300//6 1297//6 1301//6
f 1305//1 1307//1 1306//1
f 1305//1 1308//1 1307//1
f 1309//2 1310//2 1311//2
f 1309//2 1311//2 1312//2
f 1308//6 1309//6 1312//6
f 1308//6 1305//6 1309//6
f 1313//1 1315//1 1314//1
f 1313//1 1316//1 1315//1
f 1317//2 1318//2 1319//2
f 1317//2 1319//2 1320//2
f 1316//6 1317//6 1320//6
f 1316//6 1313//6 1317//6
f 1321//1 1323//1 1322//1
f 1321//1 1324//1 1323//1
f 1325//2 1326//2 1327//2
f 1325//2 1327//2 1328//2
f 1324//6 1325//6 1328//6
f 1324//6 1321//6 1325//6
f 1329//1 1331//1 1330//1
f 1329//1 1332//1 1331//1
f 1333//2 1334//2 1335//2
f 1333//2 1335//2 1336//2
f 1331//5 1336//5 1335//5
f 1331//5 1332//5 1336//5
f 1337//1 1339//1 1338//1
f 1337//1 1340//1 1339//1
f 1341//2 1342//2 1343//2
f 1341//2 1343//2 1344//2
f 1337//3 1342//3 1341//3
f 1337//3 1338//3 1342//3
f 1339//5 1344//5 1343//5
f 1339//5 1340//5 1344//5
f 1345//1 1347//1 1346//1
f 1345//1 1348//1 1347//1
f 1349//2 1350//2 1351//2
f 1349//2 1351//2 1352//2
f 1345//3 1350//3 1349//3
f 1345//3 1346//3 1350//3
f 1347//5 1352//5 1351//5
f 1347//5 1348//5 1352//5
f 1348//6 1349//6 1352//6
f 1348//6 1345//6 1349//6
f 1353//1 1355//1 1354//1
f 1353//1 1356//1 1355//1
f 1353//3 1358//3 1357//3
f 1353//3 1354//3 1358//3
f 1355//5 1360//5 1359//5
f 1355//5 1356//5 1360//5
f 1365//2 1366//2 1367//2
f 1365//2 1367//2 1368//2
f 1361//3 1366//3 1365//3
f 1361//3 1362//3 1366//3
f 1362//4 1367//4 1366//4
f 1362//4 1363//4 1367//4
f 1363//5 1368//5 1367//5
f 1363//5 1364//5 1368//5
f 1364//6 1365//6 1368//6
f 1364//6 1361//6 1365//6
f 1369//1 1371//1 1370//1
f 1369//1 1372//1 1371//1
f 1373//2 1374//2 1375//2
f 1373//2 1375//2 1376//2
f 1369//3 1374//3 1373//3
f 1369//3 1370//3 1374//3
f 1370//4 1375//4 1374//4
f 1370//4 1371//4 1375//4
f 1371//5 1376//5 1375//5
f 1371//5 1372//5 1376//5
f 1372//6 1373//6 1376//6
f 1372//6 1369//6 1373//6
f 1377//1 1379//1 1378//1
f 1377//1 1380//1 1379//1
f 1377//3 1382//3 1381//3
f 1377//3 1378//3 1382//3
f 1379//5 1384//5 1383//5
f 1379//5 1380//5 1384//5
f 1380//6 1381//6 1384//6
f 1380//6 1377//6 1381//6
f 1389//2 1390//2 1391//2
f 1389//2 1391//2 1392//2
f 1385//3 1390//3 1389//3
f 1385//3 1386//3 1390//3
f 1386//4 1391//4 1390//4
f 1386//4 1387//4 1391//4
f 1393//1 1395//1 1394//1
f 1393//1 1396//1 1395//1
f 1397//2 1398//2 1399//2
f 1397//2 1399//2 1400//2
f 1395//5 1400//5 1399//5
f 1395//5 1396//5 1400//5
f 1396//6 1397//6 1400//6
f 1396//6 1393//6 1397//6
f 1401//1 1403//1 1402//1
f 1401//1 1404//1 1403//1
f 1405//2 1406//2 1407//2
f 1405//2 1407//2 1408//2
f 1401//3 1406//3 1405//3
f 1401//3 1402//3 1406//3
f 1402//4 1407//4 1406//4
f 1402//4 1403//4 1407//4
f 1409//1 1411//1 1410//1
f 1409//1 1412//1 1411//1
f 1413//2 1414//2 1415//2
f 1413//2 1415//2 1416//2
f 1410//4 1415//4 1414//4
f 1410//4 1411//4 1415//4
f 1417//1 1419//1 1418//1
f 1417//1 1420//1 1419//1
f 1421//2 1422//2 1423//2
f 1421//2 1423//2 1424//2
f 1418//4 1423//4 1422//4
f 1418//4 1419//4 1423//4
f 1425//1 1427//1 1426//1
f 1425//1 1428//1 1427//1
f 1429//2 1430//2 1431//2
f 1429//2 1431//2 1432//2
f 1426//4 1431//4 1430//4
f 1426//4 1427//4 1431//4
f 1433//1 1435//1 1434//1
f 1433//1 1436//1 1435//1
f 1437//2 1438//2 1439//2
f 1437//2 1439//2 1440//2
f 1434//4 1439//4 1438//4
f 1434//4 1435//4 1439//4
f 1435//5 1440//5 1439//5
f 1435//5 1436//5 1440//5
f 1441//1 1443//1 1442//1
f 1441//1 1444//1 1443//1
f 1445//2 1446//2 1447//2
f 1445//2 1447//2 1448//2
f 1441//3 1446//3 1445//3
f 1441//3 1442//3 1446//3
f 1443//5 1448//5 1447//5
f 1443//5 1444//5 1448//5
f 1449//1 1451//1 1450//1
f 1449//1 1452//1 1451//1
f 1453//2 1454//2 1455//2
f 1453//2 1455//2 1456//2
f 1449//3 1454//3 1453//3
f 1449//3 1450//3 1454//3
f 1450//4 1455//4 1454//4
f 1450//4 1451//4 1455//4
f 1451//5 1456//5 1455//5
f 1451//5 1452//5 1456//5
f 1457//1 1459//1 1458//1
f 1457//1 1460//1 1459//1
f 1461//2 1462//2 1463//2
f 1461//2 1463//2 1464//2
f 1457//3 1462//3 1461//3
f 1457//3 1458//3 1462//3
f 1458//4 1463//4 1462//4
f 1458//4 1459//4 1463//4
f 1459//5 1464//5 1463//5
f 1459//5 1460//5 1464//5
f 1465//1 1467//1 1466//1
f 1465//1 1468//1 1467//1
f 1465//3 1470//3 1469//3
f 1465//3 1466//3 1470//3
f 1466//4 1471//4 1470//4
f 1466//4 1467//4 1471//4
f 1467//5 1472//5 1471//5
f 1467//5 1468//5 1472//5
f 1468//6 1469//6 1472//6
f 1468//6 1465//6 1469//6
f 1477//2 1478//2 1479//2
f 1477//2 1479//2 1480//2
f 1473//3 1478//3 1477//3
f 1473//3 1474//3 1478//3
f 1474//4 1479//4 1478//4
f 1474//4 1475//4 1479//4
f 1475//5 1480//5 1479//5
f 1475//5 1476//5 1480//5
f 1481//1 1483//1 1482//1
f 1481//1 1484//1 1483//1
f 1485//2 1486//2 1487//2
f 1485//2 1487//2 1488//2
f 1481//3 1486//3 1485//3
f 1481//3 1482//3 1486//3
f 1482//4 1487//4 1486//4
f 1482//4 1483//4 1487//4
f 1489//1 1491//1 1490//1
f 1489//1 1492//1 1491//1
f 1493//2 1494//2 1495//2
f 1493//2 1495//2 1496//2
f 1490//4 1495//4 1494//4
f 1490//4 1491//4 1495//4
f 1492//6 1493//6 1496//6
f 1492//6 1489//6 1493//6
f 1497//1 1499//1 1498//1
f 1497//1 1500//1 1499//1
f 1501//2 1502//2 1503//2
f 1501//2 1503//2 1504//2
f 1498//4 1503//4 1502//4
f 1498//4 1499//4 1503//4
f 1500//6 1501//6 1504//6
f 1500//6 1497//6 1501//6
f 1505//1 1507//1 1506//1
f 1505//1 1508//1 1507//1
f 1509//2 1510//2 1511//2
f 1509//2 1511//2 1512//2
f 1508//6 1509//6 1512//6
f 1508//6 1505//6 1509//6
f 1513//1 1515//1 1514//1
f 1513//1 1516//1 1515//1
f 1517//2 1518//2 1519//2
f 1517//2 1519//2 1520//2
f 1516//6 1517//6 1520//6
f 1516//6 1513//6 1517//6
f 1521//1 1523//1 1522//1
f 1521//1 1524//1 1523//1
f 1525//2 1526//2 1527//2
f 1525//2 1527//2 1528//2
f 1522//4 1527//4 1526//4
f 1522//4 1523//4 1527//4
f 1524//6 1525//6 1528//6
f 1524//6 1521//6 1525//6
f 1529//1 1531//1 1530//1
f 1529//1 1532//1 1531//1
f 1533//2 1534//2 1535//2
f 1533//2 1535//2 1536//2
f 1530//4 1535//4 1534//4
f 1530//4 1531//4 1535//4
f 1531//5 1536//5 1535//5
f 1531//5 1532//5 1536//5
f 1537//1 1539//1 1538//1
f 1537//1 1540//1 1539//1
f 1541//2 1542//2 1543//2
f 1541//2 1543//2 1544//2
f 1537//3 1542//3 1541//3
f 1537//3 1538//3 1542//3
f 1538//4 1543//4 1542//4
f 1538//4 1539//4 1543//4
f 1539//5 1544//5 1543//5
f 1539//5 1540//5 1544//5
f 1540//6 1541//6 1544//6
f 1540//6 1537//6 1541//6
f 1545//1 1547//1 1546//1
f 1545//1 1548//1 1547//1
f 1549//2 1550//2 1551//2
f 1549//2 1551//2 1552//2
f 1545//3 1550//3 1549//3
f 1545//3 1546//3 1550//3
f 1546//4 1551//4 1550//4
f 1546//4 1547//4 1551//4
f 1547//5 1552//5 1551//5
f 1547//5 1548//5 1552//5
f 1548//6 1549//6 1552//6
f 1548//6 1545//6 1549//6
f 1553//1 1555//1 1554//1
f 1553//1 1556//1 1555//1
f 1557//2 1558//2 1559//2
f 1557//2 1559//2 1560//2
f 1553//3 1558//3 1557//3
f 1553//3 1554//3 1558//3
f 1554//4 1559//4 1558//4
f 1554//4 1555//4 1559//4
f 1556//6 1557//6 1560//6
f 1556//6 1553//6 1557//6
f 1561//1 1563//1 1562//1
f 1561//1 1564//1 1563//1
f 1565//2 1566//2 1567//2
f 1565//2 1567//2 1568//2
f 1562//4 1567//4 1566//4
f 1562//4 1563//4 1567//4
f 1563//5 1568//5 1567//5
f 1563//5 1564//5 1568//5
f 1564//6 1565//6 1568//6
f 1564//6 1561//6 1565//6
f 1569//1 1571//1 1570//1
f 1569//1 1572//1 1571//1
f 1573//2 1574//2 1575//2
f 1573//2 1575//2 1576//2
f 1569//3 1574//3 1573//3
f 1569//3 1570//3 1574//3
f 1570//4 1575//4 1574//4
f 1570//4 1571//4 1575//4
f 1577//1 1579//1 1578//1
f 1577//1 1580//1 1579//1
f 1581//2 1582//2 1583//2
f 1581//2 1583//2 1584//2
f 1578//4 1583//4 1582//4
f 1578//4 1579//4 1583//4
f 1579//5 1584//5 1583//5
f 1579//5 1580//5 1584//5
f 1585//1 1587//1 1586//1
f 1585//1 1588//1 1587//1
f 1589//2 1590//2 1591//2
f 1589//2 1591//2 1592//2
f 1585//3 1590//3 1589//3
f 1585//3 1586//3 1590//3
f 1586//4 1591//4 1590//4
f 1586//4 1587//4 1591//4
f 1588//6 1589//6 1592//6
f 1588//6 1585//6 1589//6
f 1593//1 1595//1 1594//1
f 1593//1 1596//1 1595//1
f 1597//2 1598//2 1599//2
f 1597//2 1599//2 1600//2
f 1594//4 1599//4 1598//4
f 1594//4 1595//4 1599//4
f 1595//5 1600//5 1599//5
f 1595//5 1596//5 1600//5
f 1596//6 1597//6 1600//6
f 1596//6 1593//6 1597//6
f 1601//1 1603//1 1602//1
f 1601//1 1604//1 1603//1
f 1605//2 1606//2 1607//2
f 1605//2 1607//2 1608//2
f 1601//3 1606//3 1605//3
f 1601//3 1602//3 1606//3
f 1602//4 1607//4 1606//4
f 1602//4 1603//4 1607//4
f 1603//5 1608//5 1607//5
f 1603//5 1604//5 1608//5
f 1604//6 1605//6 1608//6
f 1604//6 1601//6 1605//6
f 1609//1 1611//1 1610//1
f 1609//1 1612//1 1611//1
f 1613//2 1614//2 1615//2
f 1613//2 1615//2 1616//2
f 1609//3 1614//3 1613//3
f 1609//3 1610//3 1614//3
f 1610//4 1615//4 1614//4
f 1610//4 1611//4 1615//4
f 1612//6 1613//6 1616//6
f 1612//6 1609//6 1613//6
f 1617//1 1619//1 1618//1
f 1617//1 1620//1 1619//1
f 1621//2 1622//2 1623//2
f 1621//2 1623//2 1624//2
f 1618//4 1623//4 1622//4
f 1618//4 1619//4 1623//4
f 1620//6 1621//6 1624//6
f 1620//6 1617//6 1621//6
f 1625//1 1627//1 1626//1
f 1625//1 1628//1 1627//1
f 1629//2 1630//2 1631//2
f 1629//2 1631//2 1632//2
f 1626//4 1631//4 1630//4
f 1626//4 1627//4 1631//4
f 1628//6 1629//6 1632//6
f 1628//6 1625//6 1629//6
f 1633//1 1635//1 1634//1
f 1633//1 1636//1 1635//1
f 1637//2 1638//2 1639//2
f 1637//2 1639//2 1640//2
f 1634//4 1639//4 1638//4
f 1634//4 1635//4 1639//4
f 1635//5 1640//5 1639//5
f 1635//5 1636//5 1640//5
f 1636//6 1637//6 1640//6
f 1636//6 1633//6 1637//6
f 1641//1 1643//1 1642//1
f 1641//1 1644//1 1643//1
f 1645//2 1646//2 1647//2
f 1645//2 1647//2 1648//2
f 1641//3 1646//3 1645//3
f 1641//3 1642//3 1646//3
f 1642//4 1647//4 1646//4
f 1642//4 1643//4 1647//4
f 1643//5 1648//5 1647//5
f 1643//5 1644//5 1648//5
f 1644//6 1645//6 1648//6
f 1644//6 1641//6 1645//6
