v 0.20725 -0.15510 0.04529
v 0.20863 -0.15647 0.04529
v 0.20863 -0.15510 0.04461
v 0.20725 -0.15510 0.04667
v 0.20863 -0.15647 0.04667
v 0.20725 -0.15510 0.04804
v 0.20863 -0.15647 0.04804
v 0.20863 -0.15510 0.04873
v 0.20863 -0.15373 0.04529
v 0.20863 -0.15373 0.04667
v 0.20863 -0.15373 0.04804
v 0.21000 -0.15510 0.04392
v 0.21137 -0.15647 0.04392
v 0.21137 -0.15510 0.04324
v 0.21137 -0.15647 0.04529
v 0.21000 -0.15510 0.04667
v 0.21137 -0.15510 0.04598
v 0.21000 -0.15510 0.04804
v 0.21137 -0.15373 0.04392
v 0.21137 -0.15373 0.04529
v 0.21275 -0.15510 0.04392
v 0.21275 -0.15510 0.04529
f 3 2 1
f 2 5 4
f 1 2 4
f 5 7 6
f 4 5 6
f 7 8 6
f 3 1 9
f 1 4 10
f 9 1 10
f 4 6 11
f 10 4 11
f 6 8 11
f 14 13 12
f 3 12 13
f 3 13 2
f 2 13 15
f 17 16 5
f 17 5 15
f 15 5 2
f 7 5 16
f 18 7 16
f 7 18 8
f 14 12 19
f 12 3 9
f 12 9 19
f 19 9 20
f 16 17 20
f 16 20 10
f 10 20 9
f 18 16 10
f 11 18 10
f 18 11 8
f 13 14 21
f 15 13 21
f 22 15 21
f 15 22 17
f 21 14 19
f 22 21 19
f 20 22 19
f 22 20 17
