v 0.59157 -0.15510 0.07686
v 0.59294 -0.15647 0.07686
v 0.59294 -0.15510 0.07618
v 0.59294 -0.15510 0.07755
v 0.59157 -0.15235 0.07686
v 0.59294 -0.15235 0.07618
v 0.59294 -0.15235 0.07755
v 0.59157 -0.14961 0.07686
v 0.59294 -0.14961 0.07618
v 0.59294 -0.14961 0.07755
v 0.59294 -0.14824 0.07686
v 0.59431 -0.15510 0.07686
v 0.59431 -0.15235 0.07686
v 0.59431 -0.14961 0.07686
f 3 2 1
f 2 4 1
f 6 3 1
f 5 6 1
f 4 7 5
f 1 4 5
f 9 6 5
f 8 9 5
f 7 10 8
f 5 7 8
f 9 8 11
f 8 10 11
f 2 3 12
f 2 12 4
f 13 12 3
f 6 13 3
f 12 13 7
f 4 12 7
f 14 13 6
f 9 14 6
f 13 14 10
f 7 13 10
f 14 9 11
f 14 11 10
