v 0.23471 -0.23196 0.08373
v 0.23608 -0.23333 0.08373
v 0.23608 -0.23196 0.08304
v 0.23471 -0.23196 0.08510
v 0.23608 -0.23333 0.08510
v 0.23471 -0.23196 0.08647
v 0.23608 -0.23333 0.08647
v 0.23608 -0.23196 0.08716
v 0.23608 -0.23059 0.08373
v 0.23608 -0.23059 0.08510
v 0.23608 -0.23059 0.08647
v 0.23745 -0.23196 0.08098
v 0.23882 -0.23333 0.08098
v 0.23882 -0.23196 0.08029
v 0.23745 -0.23196 0.08235
v 0.23882 -0.23333 0.08235
v 0.23882 -0.23333 0.08373
v 0.23882 -0.23333 0.08510
v 0.23745 -0.23196 0.08647
v 0.23882 -0.23196 0.08578
v 0.23745 -0.22922 0.07686
v 0.23882 -0.23059 0.07686
v 0.23882 -0.22922 0.07618
v 0.23745 -0.22922 0.07824
v 0.23882 -0.23059 0.07824
v 0.23745 -0.22922 0.07961
v 0.23882 -0.23059 0.07961
v 0.23745 -0.22922 0.08098
v 0.23745 -0.22922 0.08235
v 0.23745 -0.22922 0.08373
v 0.23745 -0.22922 0.08510
v 0.23745 -0.22922 0.08647
v 0.23882 -0.23059 0.08647
v 0.23745 -0.22922 0.08784
v 0.23882 -0.23059 0.08784
v 0.23882 -0.22922 0.08853
v 0.23745 -0.22647 0.07412
v 0.23882 -0.22784 0.07412
v 0.23882 -0.22647 0.07343
v 0.23745 -0.22647 0.07549
v 0.23882 -0.22784 0.07549
v 0.23745 -0.22647 0.07686
v 0.23745 -0.22647 0.07824
v 0.23745 -0.22647 0.07961
v 0.23745 -0.22647 0.08098
v 0.23882 -0.22784 0.08235
v 0.23882 -0.22647 0.08167
v 0.23882 -0.22784 0.08373
v 0.23882 -0.22784 0.08510
v 0.23882 -0.22784 0.08647
v 0.23882 -0.22784 0.08784
v 0.23882 -0.22510 0.07412
v 0.23882 -0.22510 0.07549
v 0.23882 -0.22510 0.07686
v 0.23882 -0.22510 0.07824
v 0.23882 -0.22510 0.07961
v 0.23882 -0.22510 0.08098
v 0.24020 -0.23196 0.08098
v 0.24157 -0.23333 0.08235
v 0.24157 -0.23196 0.08167
v 0.24157 -0.23333 0.08373
v 0.24157 -0.23333 0.08510
v 0.24157 -0.23196 0.08578
v 0.24157 -0.23059 0.07686
v 0.24157 -0.22922 0.07618
v 0.24157 -0.23059 0.07824
v 0.24157 -0.23059 0.07961
v 0.24157 -0.23059 0.08098
v 0.24020 -0.22922 0.08235
v 0.24157 -0.23059 0.08235
v 0.24157 -0.22922 0.08167
v 0.24020 -0.22922 0.08373
v 0.24157 -0.23059 0.08373
v 0.24020 -0.22922 0.08510
v 0.24157 -0.23059 0.08510
v 0.24020 -0.22922 0.08647
v 0.24020 -0.22922 0.08784
v 0.24157 -0.22784 0.07412
v 0.24157 -0.22647 0.07343
v 0.24157 -0.22784 0.07549
v 0.24020 -0.22647 0.07686
v 0.24157 -0.22784 0.07686
v 0.24157 -0.22647 0.07618
v 0.24020 -0.22647 0.07824
v 0.24157 -0.22784 0.07824
v 0.24020 -0.22647 0.07961
v 0.24157 -0.22784 0.07961
v 0.24020 -0.22647 0.08098
v 0.24157 -0.22784 0.08098
v 0.24157 -0.22510 0.07412
v 0.24157 -0.22510 0.07549
v 0.24294 -0.23196 0.08235
v 0.24294 -0.23196 0.08373
v 0.24294 -0.23196 0.08510
v 0.24294 -0.22922 0.07686
v 0.24294 -0.22922 0.07824
v 0.24294 -0.22922 0.07961
v 0.24294 -0.22922 0.08098
v 0.24294 -0.22647 0.07412
v 0.24294 -0.22647 0.07549
f 3 2 1
f 2 5 4
f 1 2 4
f 5 7 6
f 4 5 6
f 7 8 6
f 3 1 9
f 1 4 10
f 9 1 10
f 4 6 11
f 10 4 11
f 6 8 11
f 14 13 12
f 13 16 15
f 12 13 15
f 3 15 16
f 3 16 2
f 2 16 17
f 17 18 2
f 2 18 5
f 20 19 7
f 20 7 18
f 18 7 5
f 7 19 8
f 23 22 21
f 22 25 24
f 21 22 24
f 25 27 26
f 24 25 26
f 27 14 12
f 27 12 26
f 26 12 28
f 12 15 28
f 15 29 28
f 9 15 3
f 9 30 15
f 30 29 15
f 10 30 9
f 31 30 10
f 11 31 10
f 11 32 31
f 33 19 20
f 33 35 8
f 33 8 19
f 35 34 8
f 11 8 32
f 34 32 8
f 35 36 34
f 39 38 37
f 38 41 40
f 37 38 40
f 41 23 21
f 41 21 40
f 40 21 42
f 21 24 42
f 24 43 42
f 24 26 43
f 26 44 43
f 26 28 44
f 28 45 44
f 46 47 45
f 46 45 29
f 29 45 28
f 29 30 48
f 46 29 48
f 30 31 49
f 48 30 49
f 31 32 50
f 49 31 50
f 32 34 51
f 50 32 51
f 34 36 51
f 39 37 52
f 37 40 53
f 52 37 53
f 40 42 54
f 53 40 54
f 42 43 55
f 54 42 55
f 43 44 56
f 55 43 56
f 44 45 57
f 56 44 57
f 45 47 57
f 13 14 58
f 58 60 59
f 58 59 13
f 13 59 16
f 59 61 16
f 16 61 17
f 61 62 17
f 17 62 18
f 18 62 63
f 20 18 63
f 23 65 64
f 22 23 64
f 64 66 22
f 22 66 25
f 66 67 25
f 25 67 27
f 14 68 58
f 14 27 68
f 27 67 68
f 60 58 68
f 70 71 69
f 70 72 73
f 69 72 70
f 73 74 75
f 72 74 73
f 75 74 76
f 75 76 20
f 75 20 63
f 20 76 33
f 35 33 76
f 77 35 76
f 35 77 36
f 39 79 78
f 38 39 78
f 78 80 38
f 38 80 41
f 80 23 41
f 80 65 23
f 82 83 81
f 82 84 85
f 81 84 82
f 85 86 87
f 84 86 85
f 87 88 89
f 86 88 87
f 69 47 46
f 71 47 69
f 71 88 47
f 71 89 88
f 72 69 46
f 48 72 46
f 74 72 48
f 49 74 48
f 76 74 49
f 50 76 49
f 77 76 50
f 51 77 50
f 77 51 36
f 79 39 52
f 90 79 52
f 90 52 91
f 52 53 91
f 81 83 91
f 81 91 54
f 54 91 53
f 84 81 54
f 55 84 54
f 86 84 55
f 56 86 55
f 88 86 56
f 57 88 56
f 88 57 47
f 59 60 92
f 61 59 92
f 93 61 92
f 62 61 93
f 94 62 93
f 62 94 63
f 64 65 95
f 66 64 95
f 96 66 95
f 67 66 96
f 97 67 96
f 68 67 97
f 98 68 97
f 71 70 92
f 71 92 98
f 60 68 92
f 68 98 92
f 93 92 70
f 73 93 70
f 94 93 73
f 75 94 73
f 94 75 63
f 78 79 99
f 80 78 99
f 100 80 99
f 83 82 95
f 83 95 100
f 65 80 95
f 80 100 95
f 96 95 82
f 85 96 82
f 97 96 85
f 87 97 85
f 98 97 87
f 89 98 87
f 98 89 71
f 99 79 90
f 100 99 90
f 91 100 90
f 100 91 83
