#VRML_SIM R2025a utf8

EXTERNPROTO "https://raw.githubusercontent.com/cyberbotics/webots/R2025a/projects/objects/backgrounds/protos/TexturedBackgroundLight.proto"
EXTERNPROTO "https://raw.githubusercontent.com/cyberbotics/webots/R2025a/projects/objects/backgrounds/protos/TexturedBackground.proto"
EXTERNPROTO "../protos/blank_floor.proto"
EXTERNPROTO "https://raw.githubusercontent.com/cyberbotics/webots/R2025a/projects/robots/universal_robots/protos/UR5e.proto"
EXTERNPROTO "https://raw.githubusercontent.com/cyberbotics/webots/R2025a/projects/devices/robotiq/protos/Robotiq2f140Gripper.proto"
EXTERNPROTO "../protos/IntelRealsenseD455.proto"

WorldInfo {
  basicTimeStep 16
}
Viewpoint {
  orientation 1 0 -1 3.14
  position 0 0 5.5
  followType "None"
}
TexturedBackground {
}
TexturedBackgroundLight {
  luminosity 1.2
  castShadows FALSE
}
blank_floor {
}
DEF UR5E UR5e {
  translation -0.4 0 0
  controller "arm_apex"
  toolSlot [
    DEF UR5E_CAMERA IntelRealsenseD455 {
      translation 0 -0.03 0.05
      rotation 0 0 1 1.5708
      controller "<none>"
      resolution "HD"
    }
    Pose {
      rotation 0 1 0 1.5707996938995747
      children [
        Robotiq2f140Gripper {
          rotation 1 0 0 -1.5707996938995747
        }
      ]
    }
  ]
}

Solid {
  translation 0.3500 0.0000 0.0000
  children [ Shape {
    appearance Appearance { material Material { diffuseColor 0 0 1  emissiveColor 0 0 1 } }
    geometry Sphere { radius 0.022 subdivision 2 }
  } ]
  name "center"
}

Solid {
  translation 0.1204 0.2302 0.5621
  children [ Shape {
    appearance Appearance { material Material { diffuseColor 1 0 0  emissiveColor 1 0 0 } }
    geometry Sphere { radius 0.014 subdivision 2 }
  } ]
  name "cam_01"
}

Solid {
  translation 0.1201 -0.2292 0.5630
  children [ Shape {
    appearance Appearance { material Material { diffuseColor 1 0 0  emissiveColor 1 0 0 } }
    geometry Sphere { radius 0.014 subdivision 2 }
  } ]
  name "cam_02"
}

Solid {
  translation -0.1790 -0.3057 0.2220
  children [ Shape {
    appearance Appearance { material Material { diffuseColor 1 0 0  emissiveColor 1 0 0 } }
    geometry Sphere { radius 0.014 subdivision 2 }
  } ]
  name "cam_03"
}

Solid {
  translation 0.3498 0.0001 0.6496
  children [ Shape {
    appearance Appearance { material Material { diffuseColor 1 0 0  emissiveColor 1 0 0 } }
    geometry Sphere { radius 0.014 subdivision 2 }
  } ]
  name "cam_04"
}

Solid {
  translation -0.2240 -0.2087 0.2215
  children [ Shape {
    appearance Appearance { material Material { diffuseColor 1 0 0  emissiveColor 1 0 0 } }
    geometry Sphere { radius 0.014 subdivision 2 }
  } ]
  name "cam_05"
}

Solid {
  translation 0.0255 0.3246 0.4594
  children [ Shape {
    appearance Appearance { material Material { diffuseColor 1 0 0  emissiveColor 1 0 0 } }
    geometry Sphere { radius 0.014 subdivision 2 }
  } ]
  name "cam_06"
}

Solid {
  translation 0.0249 -0.3249 0.4600
  children [ Shape {
    appearance Appearance { material Material { diffuseColor 1 0 0  emissiveColor 1 0 0 } }
    geometry Sphere { radius 0.014 subdivision 2 }
  } ]
  name "cam_07"
}

Solid {
  translation 0.0252 0.0001 0.5624
  children [ Shape {
    appearance Appearance { material Material { diffuseColor 1 0 0  emissiveColor 1 0 0 } }
    geometry Sphere { radius 0.014 subdivision 2 }
  } ]
  name "cam_08"
}

Solid {
  translation -0.1095 -0.0003 0.4595
  children [ Shape {
    appearance Appearance { material Material { diffuseColor 1 0 0  emissiveColor 1 0 0 } }
    geometry Sphere { radius 0.014 subdivision 2 }
  } ]
  name "cam_09"
}

Solid {
  translation 0.1815 -0.0005 0.6281
  children [ Shape {
    appearance Appearance { material Material { diffuseColor 1 0 0  emissiveColor 1 0 0 } }
    geometry Sphere { radius 0.014 subdivision 2 }
  } ]
  name "cam_10"
}

Solid {
  translation 0.2308 0.1195 0.6276
  children [ Shape {
    appearance Appearance { material Material { diffuseColor 1 0 0  emissiveColor 1 0 0 } }
    geometry Sphere { radius 0.014 subdivision 2 }
  } ]
  name "cam_11"
}

Solid {
  translation 0.2311 -0.1195 0.6272
  children [ Shape {
    appearance Appearance { material Material { diffuseColor 1 0 0  emissiveColor 1 0 0 } }
    geometry Sphere { radius 0.014 subdivision 2 }
  } ]
  name "cam_12"
}

Shape {
  appearance Appearance { material Material { emissiveColor 0.4 0.4 0.4 } }
  geometry IndexedLineSet { coord Coordinate { point [ 0.3500 0.0000 0.0000, 0.1204 0.2302 0.5621, 0.1201 -0.2292 0.5630, -0.1790 -0.3057 0.2220, 0.3498 0.0001 0.6496, -0.2240 -0.2087 0.2215, 0.0255 0.3246 0.4594, 0.0249 -0.3249 0.4600, 0.0252 0.0001 0.5624, -0.1095 -0.0003 0.4595, 0.1815 -0.0005 0.6281, 0.2308 0.1195 0.6276, 0.2311 -0.1195 0.6272 ] } coordIndex [ 0 1 -1 0 2 -1 0 3 -1 0 4 -1 0 5 -1 0 6 -1 0 7 -1 0 8 -1 0 9 -1 0 10 -1 0 11 -1 0 12 -1 ] }
}

Solid {
  translation 0.3500 0.0000 0.0000
  children [ Shape {
    appearance Appearance { material Material { diffuseColor 1 0 0  transparency 0.6  emissiveColor 0.30 0.00 0.00 } }
    geometry IndexedFaceSet { coord Coordinate { point [ -0.4319 0.4319 0.2223, -0.4166 0.4166 0.2747, -0.3980 0.3980 0.3250, -0.3765 0.3765 0.3728, -0.3521 0.3521 0.4178, -0.3250 0.3250 0.4596, -0.2954 0.2954 0.4979, -0.2636 0.2636 0.5324, -0.2298 0.2298 0.5629, -0.1942 0.1942 0.5891, -0.1572 0.1572 0.6108, -0.1190 0.1190 0.6279, -0.0798 0.0798 0.6401, -0.0401 0.0401 0.6475, -0.0000 0.0000 0.6500, -0.4679 0.3926 0.2223, -0.4513 0.3787 0.2747, -0.4312 0.3618 0.3250, -0.4079 0.3423 0.3728, -0.3814 0.3201 0.4178, -0.3521 0.2954 0.4596, -0.3201 0.2686 0.4979, -0.2856 0.2396 0.5324, -0.2490 0.2089 0.5629, -0.2104 0.1766 0.5891, -0.1703 0.1429 0.6108, -0.1289 0.1081 0.6279, -0.0865 0.0726 0.6401, -0.0434 0.0364 0.6475, -0.0000 0.0000 0.6500, -0.5003 0.3503 0.2223, -0.4826 0.3379 0.2747, -0.4611 0.3229 0.3250, -0.4362 0.3054 0.3728, -0.4079 0.2856 0.4178, -0.3765 0.2636 0.4596, -0.3423 0.2396 0.4979, -0.3054 0.2138 0.5324, -0.2662 0.1864 0.5629, -0.2250 0.1576 0.5891, -0.1821 0.1275 0.6108, -0.1378 0.0965 0.6279, -0.0925 0.0647 0.6401, -0.0464 0.0325 0.6475, -0.0000 0.0000 0.6500, -0.5290 0.3054 0.2223, -0.5102 0.2946 0.2747, -0.4875 0.2815 0.3250, -0.4611 0.2662 0.3728, -0.4312 0.2490 0.4178, -0.3980 0.2298 0.4596, -0.3618 0.2089 0.4979, -0.3229 0.1864 0.5324, -0.2815 0.1625 0.5629, -0.2379 0.1374 0.5891, -0.1925 0.1112 0.6108, -0.1457 0.0841 0.6279, -0.0977 0.0564 0.6401, -0.0491 0.0283 0.6475, -0.0000 0.0000 0.6500, -0.5536 0.2581 0.2223, -0.5339 0.2490 0.2747, -0.5102 0.2379 0.3250, -0.4826 0.2250 0.3728, -0.4513 0.2104 0.4178, -0.4166 0.1942 0.4596, -0.3787 0.1766 0.4979, -0.3379 0.1576 0.5324, -0.2946 0.1374 0.5629, -0.2490 0.1161 0.5891, -0.2015 0.0940 0.6108, -0.1525 0.0711 0.6279, -0.1023 0.0477 0.6401, -0.0513 0.0239 0.6475, -0.0000 0.0000 0.6500, -0.5740 0.2089 0.2223, -0.5536 0.2015 0.2747, -0.5290 0.1925 0.3250, -0.5003 0.1821 0.3728, -0.4679 0.1703 0.4178, -0.4319 0.1572 0.4596, -0.3926 0.1429 0.4979, -0.3503 0.1275 0.5324, -0.3054 0.1112 0.5629, -0.2581 0.0940 0.5891, -0.2089 0.0760 0.6108, -0.1581 0.0575 0.6279, -0.1061 0.0386 0.6401, -0.0532 0.0194 0.6475, -0.0000 0.0000 0.6500, -0.5900 0.1581 0.2223, -0.5690 0.1525 0.2747, -0.5437 0.1457 0.3250, -0.5143 0.1378 0.3728, -0.4810 0.1289 0.4178, -0.4440 0.1190 0.4596, -0.4036 0.1081 0.4979, -0.3601 0.0965 0.5324, -0.3139 0.0841 0.5629, -0.2653 0.0711 0.5891, -0.2147 0.0575 0.6108, -0.1625 0.0435 0.6279, -0.1090 0.0292 0.6401, -0.0547 0.0147 0.6475, -0.0000 0.0000 0.6500, -0.6015 0.1061 0.2223, -0.5802 0.1023 0.2747, -0.5544 0.0977 0.3250, -0.5244 0.0925 0.3728, -0.4904 0.0865 0.4178, -0.4526 0.0798 0.4596, -0.4115 0.0726 0.4979, -0.3672 0.0647 0.5324, -0.3201 0.0564 0.5629, -0.2705 0.0477 0.5891, -0.2189 0.0386 0.6108, -0.1657 0.0292 0.6279, -0.1112 0.0196 0.6401, -0.0558 0.0098 0.6475, -0.0000 0.0000 0.6500, -0.6085 0.0532 0.2223, -0.5869 0.0513 0.2747, -0.5608 0.0491 0.3250, -0.5304 0.0464 0.3728, -0.4960 0.0434 0.4178, -0.4579 0.0401 0.4596, -0.4162 0.0364 0.4979, -0.3714 0.0325 0.5324, -0.3238 0.0283 0.5629, -0.2737 0.0239 0.5891, -0.2215 0.0194 0.6108, -0.1676 0.0147 0.6279, -0.1124 0.0098 0.6401, -0.0564 0.0049 0.6475, -0.0000 0.0000 0.6500, -0.6108 0.0000 0.2223, -0.5891 0.0000 0.2747, -0.5629 0.0000 0.3250, -0.5324 0.0000 0.3728, -0.4979 0.0000 0.4178, -0.4596 0.0000 0.4596, -0.4178 0.0000 0.4979, -0.3728 0.0000 0.5324, -0.3250 0.0000 0.5629, -0.2747 0.0000 0.5891, -0.2223 0.0000 0.6108, -0.1682 0.0000 0.6279, -0.1129 0.0000 0.6401, -0.0567 0.0000 0.6475, -0.0000 0.0000 0.6500, -0.6085 -0.0532 0.2223, -0.5869 -0.0513 0.2747, -0.5608 -0.0491 0.3250, -0.5304 -0.0464 0.3728, -0.4960 -0.0434 0.4178, -0.4579 -0.0401 0.4596, -0.4162 -0.0364 0.4979, -0.3714 -0.0325 0.5324, -0.3238 -0.0283 0.5629, -0.2737 -0.0239 0.5891, -0.2215 -0.0194 0.6108, -0.1676 -0.0147 0.6279, -0.1124 -0.0098 0.6401, -0.0564 -0.0049 0.6475, -0.0000 -0.0000 0.6500, -0.6015 -0.1061 0.2223, -0.5802 -0.1023 0.2747, -0.5544 -0.0977 0.3250, -0.5244 -0.0925 0.3728, -0.4904 -0.0865 0.4178, -0.4526 -0.0798 0.4596, -0.4115 -0.0726 0.4979, -0.3672 -0.0647 0.5324, -0.3201 -0.0564 0.5629, -0.2705 -0.0477 0.5891, -0.2189 -0.0386 0.6108, -0.1657 -0.0292 0.6279, -0.1112 -0.0196 0.6401, -0.0558 -0.0098 0.6475, -0.0000 -0.0000 0.6500, -0.5900 -0.1581 0.2223, -0.5690 -0.1525 0.2747, -0.5437 -0.1457 0.3250, -0.5143 -0.1378 0.3728, -0.4810 -0.1289 0.4178, -0.4440 -0.1190 0.4596, -0.4036 -0.1081 0.4979, -0.3601 -0.0965 0.5324, -0.3139 -0.0841 0.5629, -0.2653 -0.0711 0.5891, -0.2147 -0.0575 0.6108, -0.1625 -0.0435 0.6279, -0.1090 -0.0292 0.6401, -0.0547 -0.0147 0.6475, -0.0000 -0.0000 0.6500, -0.5740 -0.2089 0.2223, -0.5536 -0.2015 0.2747, -0.5290 -0.1925 0.3250, -0.5003 -0.1821 0.3728, -0.4679 -0.1703 0.4178, -0.4319 -0.1572 0.4596, -0.3926 -0.1429 0.4979, -0.3503 -0.1275 0.5324, -0.3054 -0.1112 0.5629, -0.2581 -0.0940 0.5891, -0.2089 -0.0760 0.6108, -0.1581 -0.0575 0.6279, -0.1061 -0.0386 0.6401, -0.0532 -0.0194 0.6475, -0.0000 -0.0000 0.6500, -0.5536 -0.2581 0.2223, -0.5339 -0.2490 0.2747, -0.5102 -0.2379 0.3250, -0.4826 -0.2250 0.3728, -0.4513 -0.2104 0.4178, -0.4166 -0.1942 0.4596, -0.3787 -0.1766 0.4979, -0.3379 -0.1576 0.5324, -0.2946 -0.1374 0.5629, -0.2490 -0.1161 0.5891, -0.2015 -0.0940 0.6108, -0.1525 -0.0711 0.6279, -0.1023 -0.0477 0.6401, -0.0513 -0.0239 0.6475, -0.0000 -0.0000 0.6500, -0.5290 -0.3054 0.2223, -0.5102 -0.2946 0.2747, -0.4875 -0.2815 0.3250, -0.4611 -0.2662 0.3728, -0.4312 -0.2490 0.4178, -0.3980 -0.2298 0.4596, -0.3618 -0.2089 0.4979, -0.3229 -0.1864 0.5324, -0.2815 -0.1625 0.5629, -0.2379 -0.1374 0.5891, -0.1925 -0.1112 0.6108, -0.1457 -0.0841 0.6279, -0.0977 -0.0564 0.6401, -0.0491 -0.0283 0.6475, -0.0000 -0.0000 0.6500, -0.5003 -0.3503 0.2223, -0.4826 -0.3379 0.2747, -0.4611 -0.3229 0.3250, -0.4362 -0.3054 0.3728, -0.4079 -0.2856 0.4178, -0.3765 -0.2636 0.4596, -0.3423 -0.2396 0.4979, -0.3054 -0.2138 0.5324, -0.2662 -0.1864 0.5629, -0.2250 -0.1576 0.5891, -0.1821 -0.1275 0.6108, -0.1378 -0.0965 0.6279, -0.0925 -0.0647 0.6401, -0.0464 -0.0325 0.6475, -0.0000 -0.0000 0.6500, -0.4679 -0.3926 0.2223, -0.4513 -0.3787 0.2747, -0.4312 -0.3618 0.3250, -0.4079 -0.3423 0.3728, -0.3814 -0.3201 0.4178, -0.3521 -0.2954 0.4596, -0.3201 -0.2686 0.4979, -0.2856 -0.2396 0.5324, -0.2490 -0.2089 0.5629, -0.2104 -0.1766 0.5891, -0.1703 -0.1429 0.6108, -0.1289 -0.1081 0.6279, -0.0865 -0.0726 0.6401, -0.0434 -0.0364 0.6475, -0.0000 -0.0000 0.6500, -0.4319 -0.4319 0.2223, -0.4166 -0.4166 0.2747, -0.3980 -0.3980 0.3250, -0.3765 -0.3765 0.3728, -0.3521 -0.3521 0.4178, -0.3250 -0.3250 0.4596, -0.2954 -0.2954 0.4979, -0.2636 -0.2636 0.5324, -0.2298 -0.2298 0.5629, -0.1942 -0.1942 0.5891, -0.1572 -0.1572 0.6108, -0.1190 -0.1190 0.6279, -0.0798 -0.0798 0.6401, -0.0401 -0.0401 0.6475, -0.0000 -0.0000 0.6500 ] } coordIndex [ 0 15 16 1 -1 1 16 17 2 -1 2 17 18 3 -1 3 18 19 4 -1 4 19 20 5 -1 5 20 21 6 -1 6 21 22 7 -1 7 22 23 8 -1 8 23 24 9 -1 9 24 25 10 -1 10 25 26 11 -1 11 26 27 12 -1 12 27 28 13 -1 13 28 29 14 -1 15 30 31 16 -1 16 31 32 17 -1 17 32 33 18 -1 18 33 34 19 -1 19 34 35 20 -1 20 35 36 21 -1 21 36 37 22 -1 22 37 38 23 -1 23 38 39 24 -1 24 39 40 25 -1 25 40 41 26 -1 26 41 42 27 -1 27 42 43 28 -1 28 43 44 29 -1 30 45 46 31 -1 31 46 47 32 -1 32 47 48 33 -1 33 48 49 34 -1 34 49 50 35 -1 35 50 51 36 -1 36 51 52 37 -1 37 52 53 38 -1 38 53 54 39 -1 39 54 55 40 -1 40 55 56 41 -1 41 56 57 42 -1 42 57 58 43 -1 43 58 59 44 -1 45 60 61 46 -1 46 61 62 47 -1 47 62 63 48 -1 48 63 64 49 -1 49 64 65 50 -1 50 65 66 51 -1 51 66 67 52 -1 52 67 68 53 -1 53 68 69 54 -1 54 69 70 55 -1 55 70 71 56 -1 56 71 72 57 -1 57 72 73 58 -1 58 73 74 59 -1 60 75 76 61 -1 61 76 77 62 -1 62 77 78 63 -1 63 78 79 64 -1 64 79 80 65 -1 65 80 81 66 -1 66 81 82 67 -1 67 82 83 68 -1 68 83 84 69 -1 69 84 85 70 -1 70 85 86 71 -1 71 86 87 72 -1 72 87 88 73 -1 73 88 89 74 -1 75 90 91 76 -1 76 91 92 77 -1 77 92 93 78 -1 78 93 94 79 -1 79 94 95 80 -1 80 95 96 81 -1 81 96 97 82 -1 82 97 98 83 -1 83 98 99 84 -1 84 99 100 85 -1 85 100 101 86 -1 86 101 102 87 -1 87 102 103 88 -1 88 103 104 89 -1 90 105 106 91 -1 91 106 107 92 -1 92 107 108 93 -1 93 108 109 94 -1 94 109 110 95 -1 95 110 111 96 -1 96 111 112 97 -1 97 112 113 98 -1 98 113 114 99 -1 99 114 115 100 -1 100 115 116 101 -1 101 116 117 102 -1 102 117 118 103 -1 103 118 119 104 -1 105 120 121 106 -1 106 121 122 107 -1 107 122 123 108 -1 108 123 124 109 -1 109 124 125 110 -1 110 125 126 111 -1 111 126 127 112 -1 112 127 128 113 -1 113 128 129 114 -1 114 129 130 115 -1 115 130 131 116 -1 116 131 132 117 -1 117 132 133 118 -1 118 133 134 119 -1 120 135 136 121 -1 121 136 137 122 -1 122 137 138 123 -1 123 138 139 124 -1 124 139 140 125 -1 125 140 141 126 -1 126 141 142 127 -1 127 142 143 128 -1 128 143 144 129 -1 129 144 145 130 -1 130 145 146 131 -1 131 146 147 132 -1 132 147 148 133 -1 133 148 149 134 -1 135 150 151 136 -1 136 151 152 137 -1 137 152 153 138 -1 138 153 154 139 -1 139 154 155 140 -1 140 155 156 141 -1 141 156 157 142 -1 142 157 158 143 -1 143 158 159 144 -1 144 159 160 145 -1 145 160 161 146 -1 146 161 162 147 -1 147 162 163 148 -1 148 163 164 149 -1 150 165 166 151 -1 151 166 167 152 -1 152 167 168 153 -1 153 168 169 154 -1 154 169 170 155 -1 155 170 171 156 -1 156 171 172 157 -1 157 172 173 158 -1 158 173 174 159 -1 159 174 175 160 -1 160 175 176 161 -1 161 176 177 162 -1 162 177 178 163 -1 163 178 179 164 -1 165 180 181 166 -1 166 181 182 167 -1 167 182 183 168 -1 168 183 184 169 -1 169 184 185 170 -1 170 185 186 171 -1 171 186 187 172 -1 172 187 188 173 -1 173 188 189 174 -1 174 189 190 175 -1 175 190 191 176 -1 176 191 192 177 -1 177 192 193 178 -1 178 193 194 179 -1 180 195 196 181 -1 181 196 197 182 -1 182 197 198 183 -1 183 198 199 184 -1 184 199 200 185 -1 185 200 201 186 -1 186 201 202 187 -1 187 202 203 188 -1 188 203 204 189 -1 189 204 205 190 -1 190 205 206 191 -1 191 206 207 192 -1 192 207 208 193 -1 193 208 209 194 -1 195 210 211 196 -1 196 211 212 197 -1 197 212 213 198 -1 198 213 214 199 -1 199 214 215 200 -1 200 215 216 201 -1 201 216 217 202 -1 202 217 218 203 -1 203 218 219 204 -1 204 219 220 205 -1 205 220 221 206 -1 206 221 222 207 -1 207 222 223 208 -1 208 223 224 209 -1 210 225 226 211 -1 211 226 227 212 -1 212 227 228 213 -1 213 228 229 214 -1 214 229 230 215 -1 215 230 231 216 -1 216 231 232 217 -1 217 232 233 218 -1 218 233 234 219 -1 219 234 235 220 -1 220 235 236 221 -1 221 236 237 222 -1 222 237 238 223 -1 223 238 239 224 -1 225 240 241 226 -1 226 241 242 227 -1 227 242 243 228 -1 228 243 244 229 -1 229 244 245 230 -1 230 245 246 231 -1 231 246 247 232 -1 232 247 248 233 -1 233 248 249 234 -1 234 249 250 235 -1 235 250 251 236 -1 236 251 252 237 -1 237 252 253 238 -1 238 253 254 239 -1 240 255 256 241 -1 241 256 257 242 -1 242 257 258 243 -1 243 258 259 244 -1 244 259 260 245 -1 245 260 261 246 -1 246 261 262 247 -1 247 262 263 248 -1 248 263 264 249 -1 249 264 265 250 -1 250 265 266 251 -1 251 266 267 252 -1 252 267 268 253 -1 253 268 269 254 -1 255 270 271 256 -1 256 271 272 257 -1 257 272 273 258 -1 258 273 274 259 -1 259 274 275 260 -1 260 275 276 261 -1 261 276 277 262 -1 262 277 278 263 -1 263 278 279 264 -1 264 279 280 265 -1 265 280 281 266 -1 266 281 282 267 -1 267 282 283 268 -1 268 283 284 269 -1 ] creaseAngle 1.5 }
  } ]
  name "capture_crescent"
}

Solid {
  translation 0.3500 0.0000 0.0000
  children [ Shape {
    appearance Appearance { material Material { diffuseColor 0 0 1  transparency 0.6  emissiveColor 0.00 0.00 0.30 } }
    geometry Sphere { radius 0.35 subdivision 3 }
  } ]
  name "workspace_sphere"
}

Solid {
  translation 0.3500 0.0000 0.1750
  children [ Shape {
    appearance Appearance { material Material { diffuseColor 1 1 1  transparency 0.7  emissiveColor 0.30 0.30 0.30 } }
    geometry Box { size 0.7 0.7 0.35 }
  } ]
  name "voxel_workspace"
}
